<?xml version="1.0"?>
<svg width="522" height="246" xmlns="http://www.w3.org/2000/svg" xmlns:svg="http://www.w3.org/2000/svg">
 <g class="layer">
  <title>Layer 1</title>
  <path d="m1,242.06c0,1.99 1.2,3.61 2.67,3.61c1.47,0 2.67,-1.62 2.67,-3.61c0,-1.99 -1.2,-3.61 -2.67,-3.61c-1.47,0 -2.67,1.62 -2.67,3.61zm516.67,-237.36l5,3.23l0,-7.82l-5,3.23l0,1.35l0,0.01zm-514,238.04l128.78,0l0,-1.35l-128.78,0l0,1.35zm209.28,-108.88l0,-21.64l-1,0l0,21.64l1,0zm79.5,-129.16l225.72,0l0,-1.35l-225.72,0l0,1.35zm-79.5,107.52c0,-59.39 35.6,-107.52 79.5,-107.52l0,-1.35c-44.46,0 -80.5,48.74 -80.5,108.88l1,0l0,-0.01zm-80.5,130.52c44.46,0 80.5,-48.74 80.5,-108.88l-1,0c0,59.39 -35.59,107.52 -79.5,107.52l0,1.35l0,0.01z" fill="#252134" id="svg_1"/>
 </g>
</svg>