 <svg  version="1.0" xmlns="http://www.w3.org/2000/svg"  width="183.000000pt" height="139.000000pt" viewBox="0 0 183.000000 139.000000"  preserveAspectRatio="xMidYMid meet">  <g transform="translate(0.000000,139.000000) scale(0.100000,-0.100000)" fill="#ac6aff" stroke="none"> <path d="M404 1361 c3 -4 38 -11 78 -14 109 -9 450 -45 496 -53 28 -4 65 -26 123 -71 46 -35 95 -71 109 -81 84 -56 585 -436 585 -443 0 -8 -118 -99 -543 -414 l-243 -180 -112 -12 c-62 -6 -197 -21 -302 -32 -104 -11 -191 -21 -192 -21 -2 0 -3 -5 -3 -11 0 -7 9 -9 23 -6 12 4 139 18 282 32 143 14 273 28 290 32 28 5 814 586 824 608 3 6 -53 54 -125 107 -71 53 -140 105 -154 116 -14 10 -136 103 -272 205 l-247 185 -203 21 c-112 12 -236 26 -276 31 -90 12 -145 13 -138 1z"/> <path d="M418 1273 c-18 -5 -34 -51 -21 -64 5 -5 114 -9 244 -10 l237 -1 73 -70 c184 -176 446 -359 593 -414 l48 -18 -39 -11 c-67 -20 -279 -143 -362 -210 -9 -8 -52 -43 -96 -78 -44 -35 -110 -93 -147 -130 l-66 -66 -223 -1 c-221 -1 -269 -4 -269 -20 0 -5 5 -21 10 -36 9 -24 14 -26 48 -21 20 4 127 7 237 8 l200 1 66 67 c237 239 535 448 685 479 54 11 51 34 -5 44 -127 22 -423 224 -643 441 l-96 95 -204 7 c-111 3 -214 8 -228 10 -14 1 -32 1 -42 -2z m446 -43 c5 -5 -86 -9 -206 -10 -194 0 -215 1 -215 16 0 15 18 16 206 10 113 -4 210 -11 215 -16z m16 -1060 c0 -5 -21 -10 -47 -11 -27 0 -123 -2 -215 -5 -125 -4 -168 -2 -168 6 0 7 7 10 15 6 8 -3 15 -2 15 2 0 4 90 8 200 10 130 1 200 -1 200 -8z"/> <path d="M315 1150 c-165 -3 -301 -7 -302 -8 -2 -1 -3 -6 -3 -12 0 -6 33 -10 79 -10 71 0 80 -2 94 -22 8 -13 82 -108 165 -211 l151 -188 -124 -154 c-67 -84 -142 -178 -165 -209 l-42 -56 -74 0 c-69 0 -105 -13 -67 -23 37 -11 788 -19 813 -9 14 5 39 23 56 38 16 16 50 47 75 69 24 22 101 92 169 155 69 63 142 129 163 147 20 18 37 36 37 41 0 5 -15 22 -32 38 -18 15 -60 53 -93 84 -33 30 -103 93 -154 140 -52 47 -112 103 -135 124 -74 71 -89 76 -206 74 -58 -1 -240 -5 -405 -8z m48 -73 c21 -29 70 -95 109 -147 39 -52 91 -126 115 -163 l43 -68 -46 -71 c-25 -39 -83 -121 -128 -182 -46 -61 -91 -124 -101 -141 l-17 -30 27 30 c44 48 173 223 231 312 l54 82 -42 63 c-40 61 -78 114 -205 284 l-60 80 72 0 73 -1 67 -90 c37 -49 83 -115 102 -145 20 -30 60 -85 91 -123 l55 -68 -40 -47 c-21 -26 -54 -69 -73 -97 -18 -27 -72 -103 -119 -168 l-85 -118 -148 3 c-81 2 -148 7 -148 11 0 5 18 31 40 58 210 258 280 348 280 359 0 7 -21 37 -47 68 -27 31 -51 61 -56 67 -4 5 -54 69 -112 141 -58 73 -105 134 -105 137 0 3 28 8 63 10 34 2 64 4 67 5 3 0 22 -22 43 -51z m386 -14 c23 -38 85 -135 137 -216 l94 -149 -43 -66 c-24 -37 -86 -133 -137 -215 l-93 -147 -99 0 c-54 0 -98 2 -98 5 0 2 26 39 58 82 32 43 85 116 117 163 32 47 76 106 98 132 l39 47 -59 73 c-32 40 -72 93 -87 118 -16 25 -60 86 -98 137 -37 51 -68 94 -68 97 0 4 44 6 98 6 l98 0 43 -67z m88 39 c17 -15 75 -68 129 -118 54 -49 125 -114 159 -144 167 -152 159 -142 143 -154 -13 -9 -73 -63 -212 -191 -6 -5 -61 -55 -121 -110 -61 -55 -111 -103 -113 -107 -4 -8 -92 -11 -92 -4 0 3 59 97 130 209 72 113 130 211 130 219 0 9 -8 26 -18 39 -10 13 -65 98 -122 189 -56 91 -110 173 -118 183 -14 16 -12 17 29 17 34 0 51 -7 76 -28z"/> </g> </svg> 