<?xml version="1.0" encoding="UTF-8"?>
<svg version="1.1" xmlns="http://www.w3.org/2000/svg" width="882" height="174">
<path d="M0 0 C3.65709179 1.37300618 6.95590808 3.02306228 10.33203125 4.984375 C11.36706787 5.58338623 12.40210449 6.18239746 13.46850586 6.79956055 C14.57202393 7.44320557 15.67554199 8.08685059 16.8125 8.75 C18.54997433 9.76038244 20.28744941 10.7707636 22.02497864 11.78105164 C23.21748881 12.47480045 24.40969588 13.1690705 25.60160828 13.86384583 C29.7035821 16.25340477 33.82063335 18.61468122 37.9453125 20.96484375 C40.10941028 22.20566765 42.27347418 23.44655062 44.4375 24.6875 C45.45497314 25.26274414 46.47244629 25.83798828 47.52075195 26.43066406 C48.46136475 26.97303711 49.40197754 27.51541016 50.37109375 28.07421875 C51.19536865 28.54432373 52.01964355 29.01442871 52.86889648 29.4987793 C55.2023923 31.14257191 56.55286144 32.54181926 58 35 C58.34057617 37.10644531 58.34057617 37.10644531 58.29296875 39.328125 C58.28330078 40.12734375 58.27363281 40.9265625 58.26367188 41.75 C58.23853516 42.575 58.21339844 43.4 58.1875 44.25 C58.16719727 45.51070312 58.16719727 45.51070312 58.14648438 46.796875 C58.11123464 48.86485938 58.0574302 50.93251271 58 53 C58.86109375 53.2578125 59.7221875 53.515625 60.609375 53.78125 C64.1075231 55.03864886 67.05591609 56.6060206 70.25 58.5 C71.80460937 59.41265625 71.80460937 59.41265625 73.390625 60.34375 C76 62 76 62 78 64 C78.30780029 66.05363464 78.30780029 66.05363464 78.38574219 68.61401367 C78.41786804 69.57228561 78.4499939 70.53055756 78.48309326 71.51786804 C78.57207076 75.91235579 78.65415621 80.30623742 78.70019531 84.70141602 C78.7332764 87.01692971 78.78781062 89.3322407 78.86425781 91.64672852 C78.9740574 94.98821631 79.01756802 98.32491797 79.046875 101.66796875 C79.09221375 102.69738083 79.13755249 103.72679291 79.18426514 104.78739929 C79.15818436 109.24410165 79.07927272 111.91032389 75.85505676 115.1656189 C73.30530418 116.972366 70.74765408 118.51529625 68 120 C66.55324099 120.87568325 65.10870147 121.75506189 63.66796875 122.640625 C62.17588466 123.51282551 60.68232897 124.38251222 59.1875 125.25 C52.8026785 128.99140416 46.57086953 132.90916044 40.4296875 137.03515625 C39.77972305 137.46990265 39.12975861 137.90464905 38.46009827 138.35256958 C35.20626159 140.53045261 31.96430731 142.72333973 28.73706055 144.94042969 C27.53476801 145.74868027 26.33206822 146.55632547 25.12890625 147.36328125 C24.06744385 148.08813721 23.00598145 148.81299316 21.91235352 149.55981445 C19 151 19 151 16.11694336 150.72729492 C15.41835205 150.4872876 14.71976074 150.24728027 14 150 C12.78482221 144.47646457 13.02523044 141.80443955 16 137 C18.62890625 134.8046875 18.62890625 134.8046875 21.5625 132.875 C26.28720521 129.78496884 26.28720521 129.78496884 29 125 C28.236875 124.773125 27.47375 124.54625 26.6875 124.3125 C23.36157311 122.68821012 22.35493781 121.42719563 21 118 C21.89190712 113.54046442 24.45482566 110.7394529 28 108 C33.2819672 107.63986587 36.62414849 110.67565459 40.55859375 113.8203125 C44.14228196 115.55195064 46.17022368 114.98742667 50 114 C52.93061148 112.66616711 55.67517723 111.08781726 58.4375 109.4375 C59.16904297 109.01275391 59.90058594 108.58800781 60.65429688 108.15039062 C62.44213758 107.11040486 64.22192662 106.05659823 66 105 C68.6689353 86.58980115 68.6689353 86.58980115 64.265625 69.40576172 C60.04694356 65.68917069 55.21131202 63.51230861 49.87939453 61.82666016 C48 61 48 61 46 58 C45.77294922 56.00708008 45.77294922 56.00708008 45.8046875 53.76953125 C45.81113281 52.96708984 45.81757813 52.16464844 45.82421875 51.33789062 C45.84935547 50.08782227 45.84935547 50.08782227 45.875 48.8125 C45.88402344 47.96751953 45.89304687 47.12253906 45.90234375 46.25195312 C45.92589297 44.16784757 45.96176353 42.08388783 46 40 C45.11771729 39.73195557 44.23543457 39.46391113 43.32641602 39.18774414 C40.16742213 38.05978045 37.62622509 36.74766781 34.77734375 34.99609375 C33.82666016 34.42052734 32.87597656 33.84496094 31.89648438 33.25195312 C29.91924825 32.03950932 27.94268825 30.82596221 25.96679688 29.61132812 C25.01740234 29.03705078 24.06800781 28.46277344 23.08984375 27.87109375 C22.23253662 27.34443115 21.37522949 26.81776855 20.49194336 26.27514648 C17.96178366 24.98044441 15.79947649 24.41129156 13 24 C11.57958179 26.84083641 11.68547728 28.85477278 12 32 C15.09723764 35.75050116 19.03752847 38.09666709 23.125 40.625 C29.76013514 44.76013514 29.76013514 44.76013514 32 47 C32.4375 49.4375 32.4375 49.4375 32 52 C29.2841077 53.87197096 26.43379595 55.28373114 23.484375 56.76171875 C22.87335938 57.07689453 22.26234375 57.39207031 21.6328125 57.71679688 C20.37302675 58.36629223 19.1017341 58.99391718 17.8203125 59.59960938 C15.68704693 60.65625281 15.68704693 60.65625281 13 63 C12.25479347 66.0148397 11.95303488 67.99458268 12 71 C12.01675781 72.24523437 12.03351563 73.49046875 12.05078125 74.7734375 C12.13714844 75.96195312 12.22351563 77.15046875 12.3125 78.375 C12.39113281 79.57898438 12.46976562 80.78296875 12.55078125 82.0234375 C12.71558346 85.11136241 12.71558346 85.11136241 15 87 C22.42375038 87.30932293 26.6335959 82.61337643 32 78 C37.89509148 73.02166487 37.89509148 73.02166487 42.1875 72.9375 C45.45642091 74.17242568 46.98688886 75.135188 49 78 C49.72005963 81.76031138 49.42095844 83.36076681 47.3125 86.5625 C44.62207929 88.94736046 41.74628741 89.89435965 38.375 91.0625 C29.5252876 94.24035127 21.95891865 99.35185338 14.171875 104.55029297 C12.24998899 105.83313459 10.31459128 107.0918811 8.375 108.34765625 C7.385 109.01667969 6.395 109.68570313 5.375 110.375 C4.53710938 110.93960938 3.69921875 111.50421875 2.8359375 112.0859375 C-1.35803494 116.45837686 -0.21307377 124.45165394 -0.31640625 130.2109375 C-0.33718735 131.17907379 -0.35796844 132.14721008 -0.37937927 133.14468384 C-0.44448984 136.22138732 -0.50357998 139.29817236 -0.5625 142.375 C-0.60572186 144.46745617 -0.6493373 146.55990426 -0.69335938 148.65234375 C-0.80013156 153.76814669 -0.90150636 158.88403125 -1 164 C-4.62701809 163.44181476 -7.11341655 162.5484585 -10.16015625 160.515625 C-11.33698975 159.73989136 -11.33698975 159.73989136 -12.53759766 158.94848633 C-13.37081543 158.38798584 -14.2040332 157.82748535 -15.0625 157.25 C-16.84223148 156.07128771 -18.62218633 154.89291265 -20.40234375 153.71484375 C-21.31870605 153.10495605 -22.23506836 152.49506836 -23.17919922 151.86669922 C-26.00440262 149.99708651 -28.84433238 148.1525164 -31.69140625 146.31640625 C-32.60204834 145.72891602 -33.51269043 145.14142578 -34.45092773 144.53613281 C-36.20891666 143.40298191 -37.96752536 142.27079185 -39.72680664 141.13964844 C-40.52078857 140.62563477 -41.31477051 140.11162109 -42.1328125 139.58203125 C-43.18299561 138.90491089 -43.18299561 138.90491089 -44.25439453 138.21411133 C-46 137 -46 137 -48 135 C-48.22463989 133.19865417 -48.22463989 133.19865417 -48.19189453 130.99682617 C-48.18594269 130.17224411 -48.17999084 129.34766205 -48.17385864 128.49809265 C-48.16031342 127.60540176 -48.14676819 126.71271088 -48.1328125 125.79296875 C-48.13361929 123.9082015 -48.13628188 122.0234343 -48.140625 120.13867188 C-48.13866052 117.16224009 -48.12500415 114.18776904 -48.07910156 111.21166992 C-48.04001932 108.34174623 -48.05118815 105.47551801 -48.0703125 102.60546875 C-48.04462189 101.71885056 -48.01893127 100.83223236 -47.99246216 99.91874695 C-48.03203838 97.37204635 -48.14020611 95.40065887 -49 93 C-50.95337318 91.23294339 -52.82383395 90.10886319 -55.18502808 88.95137024 C-57 88 -57 88 -58 86 C-58.30343947 82.51044604 -58.39470082 80.62494296 -56.5 77.625 C-56.005 77.08875 -55.51 76.5525 -55 76 C-48.15871223 76.93900028 -48.15871223 76.93900028 -45.8046875 77.84375 C-41.22435803 78.09892156 -38.07934915 75.46829933 -34.3125 73.0625 C-32.78996367 72.11234575 -31.26532213 71.16555398 -29.73828125 70.22265625 C-29.06837158 69.79734619 -28.39846191 69.37203613 -27.70825195 68.93383789 C-26 68 -26 68 -24 68 C-23.81679113 65.0075884 -23.75101094 63.6631337 -25 61 C-27.68296948 58.85705313 -30.45183569 57.17933221 -33.43359375 55.48046875 C-36 54 -36 54 -38 52 C-38.265625 49.90625 -38.265625 49.90625 -38.25 47.5 C-38.25515625 46.7059375 -38.2603125 45.911875 -38.265625 45.09375 C-38 43 -38 43 -36 41 C-32.21367259 41.18030131 -29.45454202 42.2132345 -26.1875 44 C-22.3876285 46.03197762 -19.05765767 46.5677221 -14.78515625 46.82421875 C-13 47 -13 47 -12 48 C-11.52126997 52.36309824 -11.44160729 56.73988223 -11.3125 61.125 C-11.23322266 62.34960938 -11.15394531 63.57421875 -11.07226562 64.8359375 C-10.86740555 73.64015654 -10.86740555 73.64015654 -13.81787109 77.18261719 C-16.23046875 78.9296875 -16.23046875 78.9296875 -22 82 C-26.29 84.31 -30.58 86.62 -35 89 C-35.33 102.53 -35.66 116.06 -36 130 C-34.35 130.66 -32.7 131.32 -31 132 C-29.68397942 132.75768924 -28.38836068 133.55207674 -27.1171875 134.3828125 C-26.42496094 134.82753906 -25.73273437 135.27226562 -25.01953125 135.73046875 C-23.58078128 136.66604933 -22.14329442 137.603575 -20.70703125 138.54296875 C-20.01738281 138.98511719 -19.32773438 139.42726562 -18.6171875 139.8828125 C-17.99440918 140.28902832 -17.37163086 140.69524414 -16.72998047 141.11376953 C-14.87895469 142.22796706 -14.87895469 142.22796706 -12 142 C-11.70839589 138.12660021 -11.53167303 134.2560148 -11.375 130.375 C-11.29121094 129.28058594 -11.20742187 128.18617188 -11.12109375 127.05859375 C-11.02123378 123.76321464 -11.04372477 121.16166725 -12 118 C-14.45039276 115.94230862 -16.87391034 114.68561702 -19.75146484 113.30224609 C-22 112 -22 112 -22.9765625 108.7890625 C-22.86054687 107.74492188 -22.74453125 106.70078125 -22.625 105.625 C-22.53476563 104.56539063 -22.44453125 103.50578125 -22.3515625 102.4140625 C-22.23554687 101.61742188 -22.11953125 100.82078125 -22 100 C-17.56997577 98.7715704 -17.56997577 98.7715704 -14.97265625 99.8125 C-14.34230469 100.204375 -13.71195313 100.59625 -13.0625 101 C-10.14151258 102.59025402 -9.07798692 103 -5.625 103 C-2.98297279 102.26146177 -2.98297279 102.26146177 -1.85522461 100.47045898 C-0.60060707 96.84628688 -0.70161372 93.26399734 -0.69140625 89.47265625 C-0.66624979 87.77668922 -0.64085172 86.08072576 -0.61523438 84.38476562 C-0.58648913 81.72079363 -0.56246045 79.0568835 -0.54370117 76.39282227 C-0.52201431 73.8149459 -0.48257861 71.23778435 -0.44140625 68.66015625 C-0.44129044 67.86730728 -0.44117462 67.07445831 -0.4410553 66.25758362 C-0.35977512 61.7026717 0.03766565 58.68572022 3 55 C4.051875 54.360625 5.10375 53.72125 6.1875 53.0625 C9.23465442 51.25990411 9.23465442 51.25990411 9.875 48.125 C8.69080738 43.89574064 6.45356284 42.70307462 2.84765625 40.39453125 C1 39 1 39 0 36 C-0.08507079 33.2684044 -0.11591565 30.56308557 -0.09765625 27.83203125 C-0.0962413 27.03721848 -0.09482635 26.2424057 -0.09336853 25.42350769 C-0.08777378 22.88646675 -0.07522228 20.34951425 -0.0625 17.8125 C-0.05748432 16.09179815 -0.05292153 14.37109492 -0.04882812 12.65039062 C-0.03780607 8.4335597 -0.02054506 4.21679484 0 0 Z " fill="#AA48E7" transform="translate(89,4)"/>
<path d="M0 0 C3.08400361 1.70466022 4.76358794 3.26647566 6.7265625 6.2109375 C9.26827454 5.03783964 11.45539994 3.7200878 13.7890625 2.1484375 C19.44357504 -1.5811346 25.13823359 -1.49137167 31.7265625 -0.7890625 C36.96191438 0.88761882 39.87653617 3.90007249 42.41870117 8.70263672 C45.12803316 14.37576444 45.37884356 19.26338101 45.21484375 25.46875 C45.20776901 26.49781464 45.20069427 27.52687927 45.19340515 28.58712769 C45.16566891 31.83750625 45.10296942 35.08608963 45.0390625 38.3359375 C45.01395281 40.55466242 44.99114435 42.77341465 44.97070312 44.9921875 C44.9159111 50.39903829 44.83249714 55.8048596 44.7265625 61.2109375 C41.98150787 62.58346481 39.72328838 62.34323005 36.6640625 62.3359375 C35.57996094 62.33851563 34.49585938 62.34109375 33.37890625 62.34375 C30.7265625 62.2109375 30.7265625 62.2109375 29.7265625 61.2109375 C29.60990773 59.87681023 29.55939881 58.53678605 29.53710938 57.19775391 C29.52039185 56.34662018 29.50367432 55.49548645 29.4864502 54.61856079 C29.47287476 53.69256073 29.45929932 52.76656067 29.4453125 51.8125 C29.42690308 50.86660004 29.40849365 49.92070007 29.38952637 48.94613647 C29.33057713 45.90946877 29.27786314 42.87274348 29.2265625 39.8359375 C29.15897383 35.84883735 29.08525062 31.86191959 29.0078125 27.875 C28.99423706 26.9530484 28.98066162 26.0310968 28.9666748 25.08120728 C28.94995728 24.22376923 28.93323975 23.36633118 28.91601562 22.48291016 C28.90348755 21.72869781 28.89095947 20.97448547 28.87805176 20.19741821 C28.79148697 18.00041929 28.79148697 18.00041929 27.7265625 15.2109375 C24.26908513 12.68431942 20.87665122 12.70127748 16.7265625 13.2109375 C13.25064214 15.931223 11.51035334 17.90856939 10.7265625 22.2109375 C10.6179432 23.58367428 10.55173652 24.96022441 10.52124023 26.33691406 C10.50129501 27.13744202 10.48134979 27.93796997 10.46080017 28.76275635 C10.43573143 30.04421539 10.43573143 30.04421539 10.41015625 31.3515625 C10.38937515 32.23374451 10.36859406 33.11592651 10.34718323 34.02484131 C10.28191383 36.83679581 10.22290803 39.64884195 10.1640625 42.4609375 C10.12085577 44.36980106 10.07724079 46.27865543 10.03320312 48.1875 C9.92625563 52.86188576 9.82492465 57.53636352 9.7265625 62.2109375 C5.1065625 62.2109375 0.4865625 62.2109375 -4.2734375 62.2109375 C-4.3031665 60.44834595 -4.3031665 60.44834595 -4.33349609 58.65014648 C-4.40987346 54.26842718 -4.49854027 49.88702609 -4.59082031 45.50561523 C-4.62897775 43.61342679 -4.66385317 41.72116908 -4.6953125 39.82885742 C-4.74125173 37.10049778 -4.79919715 34.37260957 -4.859375 31.64453125 C-4.87092621 30.80570908 -4.88247742 29.9668869 -4.89437866 29.10264587 C-5.01782169 24.13066988 -5.58437329 19.904947 -7.2734375 15.2109375 C-10.48520953 12.47498355 -14.22348881 12.92165545 -18.2734375 13.2109375 C-20.93728711 14.07488872 -21.91893902 14.62025619 -23.35897827 17.01971436 C-24.3350735 19.35862941 -24.54670494 20.99840269 -24.59228516 23.52050781 C-24.61215485 24.36107727 -24.63202454 25.20164673 -24.65249634 26.06768799 C-24.66982315 27.41476837 -24.66982315 27.41476837 -24.6875 28.7890625 C-24.70686615 29.7156366 -24.7262323 30.64221069 -24.7461853 31.59686279 C-24.80588517 34.55146121 -24.85232818 37.50609879 -24.8984375 40.4609375 C-24.9366261 42.46616267 -24.97567835 44.47137159 -25.015625 46.4765625 C-25.1115789 51.38788861 -25.19564553 56.2992915 -25.2734375 61.2109375 C-29.75550052 63.45196901 -35.26233871 62.2109375 -40.2734375 62.2109375 C-40.2734375 41.7509375 -40.2734375 21.2909375 -40.2734375 0.2109375 C-35.9834375 0.2109375 -31.6934375 0.2109375 -27.2734375 0.2109375 C-26.9434375 1.8609375 -26.6134375 3.5109375 -26.2734375 5.2109375 C-23.86077389 5.2109375 -21.25237334 2.67884613 -19.28125 1.40234375 C-13.79416913 -1.85360891 -5.98142091 -2.07602582 0 0 Z " fill="#F5F5F6" transform="translate(771.2734375,65.7890625)"/>
<path d="M0 0 C5.28 0 10.56 0 16 0 C16 27.72 16 55.44 16 84 C13.16443413 85.41778293 11.0091294 84.86257622 7.875 84.5625 C6.77929688 84.46066406 5.68359375 84.35882813 4.5546875 84.25390625 C3.29011719 84.12822266 3.29011719 84.12822266 2 84 C2 82.35 2 80.7 2 79 C1.39671875 79.42152344 0.7934375 79.84304687 0.171875 80.27734375 C-1.02695312 81.09912109 -1.02695312 81.09912109 -2.25 81.9375 C-3.03890625 82.48277344 -3.8278125 83.02804688 -4.640625 83.58984375 C-10.06278922 86.83057435 -16.21062235 86.6422674 -22.3046875 85.609375 C-29.54381926 83.65556089 -34.58962104 79.1241166 -38.3515625 72.6875 C-43.299284 62.15134486 -43.30696685 50.44111648 -39.9140625 39.40625 C-37.16656047 32.17350961 -31.85631283 26.51605786 -25 23 C-18.59590076 21.03900173 -11.47195286 20.92910352 -5.375 23.8125 C-2.42517048 25.38373572 -2.11398401 25.65804797 -1 29 C-0.1589522 25.3535194 0.11764968 22.00049093 0.09765625 18.26171875 C0.09443359 17.19501953 0.09121094 16.12832031 0.08789062 15.02929688 C0.07951172 13.92650391 0.07113281 12.82371094 0.0625 11.6875 C0.05798828 10.56537109 0.05347656 9.44324219 0.04882812 8.28710938 C0.03707326 5.52471664 0.01913869 2.76235144 0 0 Z M-23.8125 40 C-27.53834272 46.27510353 -26.50923486 54.9613976 -26 62 C-24.89160178 66.00286819 -23.05117058 68.79310044 -20.3125 71.9375 C-15.40229267 74.19354121 -10.74187697 74.58062566 -5.625 72.875 C-2.08011847 70.34294176 -0.47966942 67.95222101 0.55859375 63.7265625 C1.89139058 55.49388825 2.00670858 46.5105509 -2 39 C-4.79739137 35.70895133 -7.28921341 34.72507866 -11.4375 34 C-17.04459661 33.5988267 -20.11302538 35.91782111 -23.8125 40 Z " fill="#F4F4F4" transform="translate(644,43)"/>
<path d="M0 0 C6.22741602 4.85673693 10.08599804 10.28103157 12 18 C12 19.65 12 21.3 12 23 C6.72 23 1.44 23 -4 23 C-5.171875 20.75390625 -6.34375 18.5078125 -7.515625 16.26171875 C-9.43738016 13.33357075 -11.53288532 11.55649177 -14.8125 10.3125 C-21.66004066 9.33427991 -26.27964194 10.22806084 -32 14 C-37.64183586 19.03190766 -38.71114522 26.59986603 -39.32421875 33.81640625 C-39.68832513 42.79806044 -38.37121786 50.58425905 -35 59 C-34.70867187 59.73734375 -34.41734375 60.4746875 -34.1171875 61.234375 C-32.2778784 64.14125512 -29.85987541 64.74074108 -26.66796875 65.703125 C-21.19207472 66.91040872 -17.2877759 67.38468325 -12 65 C-7.3083595 61.26801324 -6.52152163 58.88355047 -4 53 C1.28 53 6.56 53 12 53 C11.57426937 62.08225343 8.89908527 67.48341078 2.3125 73.75 C-6.65697146 81.00862783 -15.86642941 82.04321883 -27.05859375 81.21875 C-35.6563575 80.24998789 -42.48561047 75.49495975 -48 69 C-54.20972475 59.10699098 -56.38194742 49.76140619 -56.3125 38.25 C-56.30686035 37.27716064 -56.3012207 36.30432129 -56.29541016 35.30200195 C-56.08524935 22.84529264 -53.76722238 13.33479587 -45.18359375 4.03125 C-33.0642063 -7.52501439 -13.91824996 -9.56433587 0 0 Z " fill="#F6F6F7" transform="translate(257,48)"/>
<path d="M0 0 C6.25074691 6.42437877 10.25 13.23473824 10.25 22.3125 C4.97 22.3125 -0.31 22.3125 -5.75 22.3125 C-6.306875 21.075 -6.86375 19.8375 -7.4375 18.5625 C-9.37386835 14.77686638 -10.9156297 12.3963969 -14.75 10.3125 C-20.43385373 8.89889907 -25.61898336 8.8059783 -31 11.2578125 C-36.17550095 14.37697602 -37.93413277 18.14117953 -39.5625 23.75 C-42.06965649 35.2031467 -42.4215235 48.28132076 -36.4375 58.6875 C-33.23157982 63.37522631 -30.4726597 64.95129716 -24.875 66.125 C-19.42002502 66.60783206 -15.32961932 65.56901537 -11 62.125 C-8.19354433 58.87310295 -8.19354433 58.87310295 -5.75 52.3125 C-0.47 52.3125 4.81 52.3125 10.25 52.3125 C9.82426937 61.39475343 7.14908527 66.79591078 0.5625 73.0625 C-8.53401919 80.41033528 -18.21896937 81.59743458 -29.60693359 80.63037109 C-37.2677943 79.49407118 -44.1570126 74.97186897 -49.2890625 69.2890625 C-56.30907294 59.79140132 -58.13671626 49.5660744 -58.0625 38 C-58.05404053 36.61687622 -58.05404053 36.61687622 -58.04541016 35.20581055 C-57.8280857 22.97216488 -55.24884022 12.59399624 -46.93359375 3.27734375 C-33.806892 -9.21291185 -14.94438367 -9.17041725 0 0 Z " fill="#F7F7F7" transform="translate(522.75,48.6875)"/>
<path d="M0 0 C4.95 0 9.9 0 15 0 C15 28.05 15 56.1 15 85 C10.71 85 6.42 85 2 85 C1.34 83.35 0.68 81.7 0 80 C-0.680625 80.61875 -1.36125 81.2375 -2.0625 81.875 C-7.46003605 85.77960055 -13.43715095 86.76708625 -20 86 C-26.48217485 84.66773954 -31.7165347 82.12524082 -36 77 C-42.63284036 66.12282914 -43.76091027 54.09096446 -41.3515625 41.65234375 C-38.76234989 33.78512082 -34.2583072 27.37128019 -26.8125 23.5 C-20.19681861 20.95115015 -13.03300885 20.82936501 -6.4375 23.375 C-4.625 24.58333333 -2.8125 25.79166667 -1 27 C-0.67 18.09 -0.34 9.18 0 0 Z M-23.234375 38.58203125 C-27.48963649 45.65871613 -28.03580264 53.44353329 -26.5390625 61.47265625 C-24.95072545 67.06920854 -23.0053433 69.97790593 -18 73 C-13.91177942 74.30561935 -10.75811938 74.28608278 -6.6875 72.75 C-3.05432394 70.38421093 -1.3811693 69.14350791 0 65 C0.25455755 61.56694432 0.23130883 58.12901094 0.25 54.6875 C0.270625 53.74970703 0.29125 52.81191406 0.3125 51.84570312 C0.34260546 46.50574768 0.15639628 42.53464172 -3 38 C-6.14414623 35.5399358 -9.70485833 34.21585694 -13.625 33.5625 C-17.52348697 34.28064234 -20.72239485 35.36256302 -23.234375 38.58203125 Z " fill="#F7F7F7" transform="translate(380,43)"/>
<path d="M0 0 C5.86674326 6.24618437 6.1248507 11.85133329 5.9609375 20.07421875 C5.95527771 21.15192032 5.94961792 22.22962189 5.94378662 23.33998108 C5.9214941 26.76357468 5.87130921 30.18610064 5.8203125 33.609375 C5.80023837 35.93813587 5.7819892 38.26691323 5.765625 40.59570312 C5.72165236 46.28816835 5.65267261 51.97984099 5.5703125 57.671875 C1.2803125 57.671875 -3.0096875 57.671875 -7.4296875 57.671875 C-8.0896875 56.351875 -8.7496875 55.031875 -9.4296875 53.671875 C-10.63625 54.6 -10.63625 54.6 -11.8671875 55.546875 C-18.10939947 59.65474751 -24.87447225 60.12309981 -32.140625 59.14453125 C-37.88550084 57.95830262 -41.74456013 55.15378667 -45.4296875 50.671875 C-48.62348013 45.03649573 -48.97574712 39.91603827 -47.4296875 33.671875 C-45.17822586 28.45796384 -41.37695232 25.00478215 -36.26171875 22.69140625 C-27.2563557 19.71754217 -17.78657109 20.41007618 -8.4296875 20.671875 C-8.87441406 18.76535156 -8.87441406 18.76535156 -9.328125 16.8203125 C-9.49489746 16.10536621 -9.66166992 15.39041992 -9.83349609 14.65380859 C-10.72968785 11.67457655 -11.86795601 10.42463865 -14.4296875 8.671875 C-18.37862706 7.05179723 -21.50428281 6.53219127 -25.7421875 7.171875 C-29.17654892 8.75796036 -29.17654892 8.75796036 -31.4296875 14.671875 C-36.0496875 14.671875 -40.6696875 14.671875 -45.4296875 14.671875 C-44.15722126 7.03707758 -42.46081144 2.81985395 -36.2421875 -1.640625 C-24.70899286 -8.74234584 -11.00288032 -7.63013811 0 0 Z M-31.4296875 34.671875 C-32.43333933 37.81665074 -32.70970645 39.75544933 -31.7421875 42.921875 C-30.12928767 45.07240811 -28.91718748 45.66307951 -26.4296875 46.671875 C-21.3989881 47.32540997 -16.21952236 47.65615145 -11.8046875 44.859375 C-9.23479288 42.49236679 -8.49853569 41.11217903 -8.33203125 37.62890625 C-8.34363281 36.92121094 -8.35523438 36.21351562 -8.3671875 35.484375 C-8.3878125 34.22625 -8.4084375 32.968125 -8.4296875 31.671875 C-11.32608868 31.59066749 -14.22019662 31.53128079 -17.1171875 31.484375 C-18.34211914 31.44666992 -18.34211914 31.44666992 -19.59179688 31.40820312 C-24.33742823 31.35056388 -27.63761924 31.46435481 -31.4296875 34.671875 Z " fill="#F5F4F5" transform="translate(588.4296875,70.328125)"/>
<path d="M0 0 C7.57519711 3.95944967 12.05766773 9.98913064 14.75 18 C16.51349032 23.95177983 16.25 27.86836016 16.25 34.5625 C3.05 34.5625 -10.15 34.5625 -23.75 34.5625 C-21.46043101 44.32350752 -21.46043101 44.32350752 -14.75 49.5625 C-10.37285768 50.34992243 -6.90334488 50.05328506 -2.8125 48.3125 C-0.38326952 46.48349202 -0.38326952 46.48349202 1.25 42.5625 C6.2 42.5625 11.15 42.5625 16.25 42.5625 C13.18519902 51.88460299 9.42810829 56.78851342 0.75 61.4375 C-7.49265794 64.08692577 -14.97104632 64.19581755 -22.953125 60.55859375 C-30.64906435 56.10846088 -35.29607563 50.15685691 -38.0546875 41.71875 C-40.64273279 29.97076914 -38.87762289 18.9633591 -32.625 8.75 C-25.13390734 -0.96501079 -11.28859161 -4.3266379 0 0 Z M-19.75 14.5625 C-21.33920893 17.1327021 -22.59835888 19.77146387 -23.75 22.5625 C-21.9423213 24.79381867 -21.9423213 24.79381867 -19.41162109 24.78955078 C-17.98197021 24.77384033 -17.98197021 24.77384033 -16.5234375 24.7578125 C-15.4921875 24.75136719 -14.4609375 24.74492188 -13.3984375 24.73828125 C-12.31820313 24.72152344 -11.23796875 24.70476562 -10.125 24.6875 C-8.49304688 24.67396484 -8.49304688 24.67396484 -6.828125 24.66015625 C-4.13519848 24.63653409 -1.44270745 24.60359556 1.25 24.5625 C0.63611852 19.28559964 0.07616625 16.38866625 -3.75 12.5625 C-9.44927174 8.57300978 -14.80840993 10.26546516 -19.75 14.5625 Z " fill="#F6F6F7" transform="translate(441.75,66.4375)"/>
<path d="M0 0 C8.20728858 4.70866877 11.95114754 10.9903783 14.625 19.9375 C14.625 24.5575 14.625 29.1775 14.625 33.9375 C1.755 33.9375 -11.115 33.9375 -24.375 33.9375 C-22.17957408 43.3436477 -22.17957408 43.3436477 -18.375 47.9375 C-14.32159014 49.28863662 -10.61331488 49.4887044 -6.375 48.9375 C-3.03899633 46.87911475 -1.5487824 45.1981736 0.625 41.9375 C3.8828125 41.64453125 3.8828125 41.64453125 7.75 41.75 C9.67199219 41.79060547 9.67199219 41.79060547 11.6328125 41.83203125 C12.62023437 41.86683594 13.60765625 41.90164062 14.625 41.9375 C13.19439635 50.18777736 8.07598644 55.02122404 1.625 59.9375 C-4.49968329 63.39244955 -11.56098921 63.35552713 -18.3125 62.0625 C-25.89186243 59.9426017 -31.56446694 55.25394203 -35.84765625 48.67578125 C-40.56579918 39.52698081 -40.6626137 28.59275636 -38.7265625 18.5859375 C-36.12297642 10.68616777 -31.60286264 4.34889989 -24.125 0.5 C-16.25978897 -3.00788412 -7.96079478 -3.68443461 0 0 Z M-19.375 12.9375 C-23.17667397 16.84477602 -23.41618476 18.18460854 -24.375 23.9375 C-16.125 23.9375 -7.875 23.9375 0.625 23.9375 C-1.04569535 15.86517163 -1.04569535 15.86517163 -6.375 10.9375 C-11.39114332 9.30268406 -15.24814698 9.49845582 -19.375 12.9375 Z " fill="#F7F6F7" transform="translate(707.375,67.0625)"/>
<path d="M0 0 C8.46617737 4.89643215 13.93879521 12.41003264 16.5 21.8125 C17.55466692 33.4260997 16.78646552 43.85097549 9.25 53.25 C3.45099726 59.34895115 -3.62902231 61.94433694 -11.9375 62.25 C-20.59187277 62.16059532 -27.36926556 59.73743273 -33.6953125 53.7265625 C-40.69478409 45.37991228 -42.10835315 37.27162613 -41.83984375 26.53125 C-40.93804269 16.663266 -36.97739765 9.31634859 -29.5 2.8125 C-20.6138656 -2.90567205 -9.73903442 -4.67180749 0 0 Z M-22.31640625 14.06640625 C-26.14109019 19.70876177 -27.41997872 27.12059997 -26.5 33.8125 C-25.2397941 40.17214371 -23.74320168 44.64482687 -18.5 48.8125 C-15.28079518 50.42210241 -11.99111461 50.27408126 -8.5 49.8125 C-4.97755967 48.0845104 -3.02090991 46.51303402 -0.6875 43.375 C2.27734186 34.48047443 2.43497334 25.40225887 -1.5 16.8125 C-3.94675774 13.16667469 -3.94675774 13.16667469 -7.5 10.8125 C-13.02670069 10.11669236 -18.10384138 9.85384138 -22.31640625 14.06640625 Z " fill="#F6F6F7" transform="translate(316.5,67.1875)"/>
<path d="M0 0 C5.28 0 10.56 0 16 0 C16.68707031 2.13339844 17.37414062 4.26679687 18.08203125 6.46484375 C18.75713457 8.56001213 19.43239311 10.65513042 20.10766602 12.75024414 C20.5723461 14.19224929 21.036868 15.63430541 21.5012207 17.07641602 C21.95230695 18.47725975 22.40362875 19.87802767 22.85519409 21.27871704 C23.29636649 22.64746813 23.73690301 24.01642433 24.17678833 25.3855896 C25.34900842 29.02467962 26.56564729 32.64392969 27.82421875 36.25390625 C29 40 29 40 29 44 C29.66 44 30.32 44 31 44 C31.11859375 43.0207959 31.2371875 42.0415918 31.359375 41.03271484 C31.97490586 36.74269609 33.07796197 32.64359071 34.25 28.4765625 C34.46817383 27.68978119 34.68634766 26.90299988 34.91113281 26.09237671 C35.36962427 24.44299224 35.83026833 22.79420477 36.29296875 21.14599609 C37.00329338 18.61325711 37.70522866 16.07829662 38.40625 13.54296875 C38.85367308 11.93736237 39.30157261 10.33188867 39.75 8.7265625 C39.96043945 7.96622711 40.17087891 7.20589172 40.38769531 6.42251587 C41.8846761 1.1153239 41.8846761 1.1153239 43 0 C45.35313555 -0.07271741 47.70833668 -0.08370868 50.0625 -0.0625 C51.35285156 -0.05347656 52.64320313 -0.04445313 53.97265625 -0.03515625 C54.97167969 -0.02355469 55.97070312 -0.01195313 57 0 C55.53293094 7.26369995 53.42581864 14.17504156 51.078125 21.19921875 C50.69565613 22.35186722 50.31318726 23.50451569 49.91912842 24.6920929 C49.11110929 27.12254926 48.30078312 29.55223972 47.48828125 31.98120117 C46.26046987 35.65616263 45.04385816 39.3346998 43.828125 43.01367188 C32.89001147 75.94350078 32.89001147 75.94350078 26 82 C22.43954823 83.18681726 19.56191663 83.09689832 15.8125 83.0625 C13.90404297 83.04896484 13.90404297 83.04896484 11.95703125 83.03515625 C10.98121094 83.02355469 10.00539063 83.01195312 9 83 C9 79.7 9 76.4 9 73 C10.2375 72.649375 11.475 72.29875 12.75 71.9375 C16.01213687 70.71492295 17.72477086 69.60562783 19.5625 66.625 C21.70136553 61.2313391 19.96261896 57.61819065 18.05053711 52.32348633 C17.6501976 51.20915726 17.24985809 50.09482819 16.83738708 48.94673157 C16.40507278 47.75388046 15.97275848 46.56102936 15.52734375 45.33203125 C14.85139529 43.45137632 14.17545023 41.57072017 13.49971104 39.68999004 C12.31524808 36.39643222 11.12614777 33.10454931 9.9375 29.8125 C8.51540033 25.8730048 7.09423401 21.93318504 5.6778717 17.99162292 C4.79612899 15.53881378 3.91146309 13.08705322 3.02366638 10.63642883 C2.62647903 9.53155624 2.22929169 8.42668365 1.82006836 7.28833008 C1.29164589 5.82536247 1.29164589 5.82536247 0.75254822 4.33283997 C0 2 0 2 0 0 Z " fill="#F2F2F3" transform="translate(819,66)"/>
<path d="M0 0 C1.56471233 3.12942465 1.69701958 6.61082223 1 10 C-2.17595378 14.15761222 -6.72117868 16.2228806 -11.25 18.625 C-17.64215248 22.09038828 -23.90644763 25.6920548 -30.0625 29.5625 C-30.74666992 29.99191895 -31.43083984 30.42133789 -32.13574219 30.86376953 C-35.2295741 32.72044888 -35.2295741 32.72044888 -38 35 C-37.88398437 36.27617188 -37.76796875 37.55234375 -37.6484375 38.8671875 C-37.28119704 44.09127519 -36.97731476 49.07471577 -39 54 C-43.99250937 59.25766738 -51.24620641 62.55365773 -58 65 C-58.66 65 -59.32 65 -60 65 C-59.98839844 65.93457031 -59.97679687 66.86914062 -59.96484375 67.83203125 C-59.89095491 78.58813582 -60.34656952 89.26507073 -61 100 C-60.27296875 100.27328125 -59.5459375 100.5465625 -58.796875 100.828125 C-54.45411397 102.64771761 -50.56916075 104.91454481 -47 108 C-45.58583868 111.64704762 -45.7355622 113.18905741 -46.9375 116.875 C-47.288125 117.57625 -47.63875 118.2775 -48 119 C-53.99605745 118.56392309 -57.84880794 116.70841904 -62.875 113.5 C-63.55046875 113.08363281 -64.2259375 112.66726562 -64.921875 112.23828125 C-69.76971726 109.23028274 -69.76971726 109.23028274 -71 108 C-71.13484852 106.46778088 -71.20166366 104.92949747 -71.24047852 103.3918457 C-71.27909752 101.91945183 -71.27909752 101.91945183 -71.3184967 100.41731262 C-71.40251508 95.90894902 -71.46855643 91.40075742 -71.51489258 86.8918457 C-71.5465154 84.5142958 -71.59425105 82.1369032 -71.65844727 79.76000977 C-71.74972633 76.33549564 -71.78851442 72.91382851 -71.81640625 69.48828125 C-71.85455948 68.42869705 -71.89271271 67.36911285 -71.93202209 66.27742004 C-71.91300012 59.04582126 -71.91300012 59.04582126 -69.27313232 56.02191162 C-67.24482319 54.47755483 -65.2407709 53.21015503 -63 52 C-61.97132812 51.37351563 -60.94265625 50.74703125 -59.8828125 50.1015625 C-58.97273438 49.61429688 -58.06265625 49.12703125 -57.125 48.625 C-56.19945312 48.12226562 -55.27390625 47.61953125 -54.3203125 47.1015625 C-52 46 -52 46 -50 46 C-50.02320312 45.07058594 -50.04640625 44.14117187 -50.0703125 43.18359375 C-50.09738281 41.32927734 -50.09738281 41.32927734 -50.125 39.4375 C-50.14820312 38.21933594 -50.17140625 37.00117187 -50.1953125 35.74609375 C-49.90833962 30.24195393 -49.5815893 26.42906215 -45.3671875 22.62109375 C-44.21727689 21.87107111 -43.05178733 21.14460673 -41.875 20.4375 C-40.92016724 19.83228516 -40.92016724 19.83228516 -39.94604492 19.21484375 C-37.64876435 17.77794086 -35.32851395 16.38573459 -33 15 C-32.01241699 14.41105957 -31.02483398 13.82211914 -30.00732422 13.21533203 C-5.00941201 -1.62467416 -5.00941201 -1.62467416 0 0 Z " fill="#AA48E7" transform="translate(75,10)"/>
<path d="M0 0 C0.763125 0.0825 1.52625 0.165 2.3125 0.25 C1.3225 0.745 1.3225 0.745 0.3125 1.25 C-2.18180768 4.91809953 -2.25708508 8.94585081 -2.6875 13.25 C-4.1875 12.125 -4.1875 12.125 -5.6875 10.25 C-6.11638292 6.89041709 -6.02014845 4.9152969 -4.5 1.875 C-2.6875 0.25 -2.6875 0.25 0 0 Z " fill="#A647D7" transform="translate(36.6875,79.75)"/>
<path d="M0 0 C0.33 0.99 0.66 1.98 1 3 C0.525625 3.391875 0.05125 3.78375 -0.4375 4.1875 C-2.35179633 6.40808374 -2.61266988 8.13375709 -3 11 C-5 10 -5 10 -5.75 8.125 C-6 6 -6 6 -4 3 C-2.69481525 1.96352976 -1.36538653 0.95577057 0 0 Z " fill="#A144D8" transform="translate(116,115)"/>
<path d="M0 0 C2.0625 0.4375 2.0625 0.4375 4 1 C3.67 2.32 3.34 3.64 3 5 C2.01 5 1.02 5 0 5 C-0.5625 3.0625 -0.5625 3.0625 -1 1 C-0.67 0.67 -0.34 0.34 0 0 Z " fill="#A449DE" transform="translate(68,103)"/>
<path d="M0 0 C0.33 0.99 0.66 1.98 1 3 C-1.66666667 4.33333333 -4.33333333 5.66666667 -7 7 C-5.54744301 3.17053157 -3.57104439 1.87949705 0 0 Z " fill="#A849D7" transform="translate(33,31)"/>
<path d="M0 0 C0 0.66 0 1.32 0 2 C-3.63 2.33 -7.26 2.66 -11 3 C-5.32 -1.26 -5.32 -1.26 0 0 Z " fill="#9B43C5" transform="translate(75,10)"/>
<path d="M0 0 C2.91517292 1.07401108 4.77810176 1.77810176 7 4 C6.21625 4.12375 5.4325 4.2475 4.625 4.375 C1.85942178 4.79117993 1.85942178 4.79117993 0 7 C0 4.69 0 2.38 0 0 Z " fill="#9C45D2" transform="translate(91,5)"/>
<path d="M0 0 C2 3 2 3 3 5 C3.99 5.33 4.98 5.66 6 6 C6 6.66 6 7.32 6 8 C4.35 7.67 2.7 7.34 1 7 C0.67 4.69 0.34 2.38 0 0 Z " fill="#883BAB" transform="translate(102,147)"/>
</svg>
