<svg xmlns="http://www.w3.org/2000/svg" xmlns:svg="http://www.w3.org/2000/svg" viewBox="368 275.31 181.35 29.37">
 <!-- Created with SVG-edit - https://github.com/SVG-Edit/svgedit-->
 <g class="layer">
  <title>Layer 1</title>
  <path d="m383.8,278.91c0,3 0.06,3.29 1.01,4.28l1.02,1.07l-1.02,0.82c-0.93,0.75 -1.01,1.03 -1.02,3.4c-0.01,4.93 -0.63,6.43 -2.26,5.41c-1.87,-1.17 -2.74,1.1 -0.88,2.32c0.82,0.53 0.92,0.86 0.92,2.82c0,2.56 -0.07,2.59 -2.56,1.04l-1.88,-1.16l0,-3.61l0,-3.61l2.13,-1.26l2.13,-1.26l0.11,-2.17c0.13,-2.42 -0.05,-2.71 -2.04,-3.41c-2.98,-1.04 -4,0.49 -1.4,2.1c1.77,1.09 1.63,1.84 -0.56,3.05c-1.43,0.79 -2.03,0.93 -2.72,0.67c-1.72,-0.65 -2.47,1.5 -0.8,2.27c0.9,0.41 0.93,0.53 0.93,4.19c0,4.36 -0.31,3.89 4.61,6.99c4.19,2.64 3.91,2.79 3.91,-2.08c0.01,-2.29 0.14,-4.38 0.31,-4.64c0.43,-0.69 5.91,-4.08 7.37,-4.56c1.04,-0.34 1.23,-0.57 1.13,-1.36c-0.21,-1.73 -1.11,-1.83 -3.07,-0.33c-2.69,2.05 -3.53,1.76 -3.52,-1.18c0.01,-1.73 0.21,-2.01 2.15,-2.99c1.92,-0.98 1.88,-1.41 -0.3,-3.06c-3.4,-2.58 -2.46,-3.51 1.56,-1.53l2.85,1.41l0.02,1.75c0.01,1.65 0.1,1.79 1.43,2.47c3.61,1.85 3.77,7.13 0.25,8.88l-1.74,0.88l-1.47,-0.83c-2.15,-1.21 -4.1,0.59 -2.13,1.97c0.75,0.53 0.74,0.56 -0.74,2.03c-1.55,1.53 -1.9,2.54 -1,2.88c0.43,0.17 4.37,-2.18 9.95,-5.94l1.39,-0.94l0,-4.25l0,-4.25l-1.38,-0.94c-0.76,-0.51 -1.59,-0.94 -1.85,-0.94c-0.32,0 -0.47,-0.59 -0.47,-1.79c0,-1.25 -0.2,-1.96 -0.65,-2.35c-0.71,-0.61 -9.17,-5.48 -9.51,-5.48c-0.12,0 -0.21,1.44 -0.21,3.22m-7.49,-0.33c-3.72,2.17 -4.36,2.93 -4.37,5.22c-0.01,0.76 -0.4,1.19 -1.86,2.06l-1.86,1.1l0.1,4.63l0.11,4.64l1.58,0.87c1.75,0.97 2.68,0.86 2.68,-0.3c0,-0.5 -0.44,-0.96 -1.3,-1.37l-1.3,-0.62l0,-3.23l0,-3.23l1.19,-0.41c2,-0.7 2.89,-1.8 2.89,-3.6c0,-1.7 1.08,-2.67 5.53,-4.94c1.25,-0.64 1.5,-0.95 1.5,-1.87c0,-1.57 -0.68,-1.42 -4.89,1.05m29.71,4.88c0,0.23 1.62,0.37 4.11,0.37l4.11,0l1.3,1.3c1.23,1.24 1.28,1.38 1.06,3.24c-0.44,3.74 -0.11,6.57 0.75,6.57c0.74,0 0.68,-2.57 -0.08,-3.65c-0.44,-0.63 -0.49,-0.96 -0.18,-1.27c1.46,-1.46 0.12,-5.75 -2.06,-6.58c-1.24,-0.47 -9.01,-0.45 -9.01,0.02m13.7,0c0,0.21 0.42,0.37 0.93,0.37c0.92,0 0.92,0.03 0.92,3.32c0,4.01 0.09,4.09 4.4,4.09l2.97,0l0.14,1.2c0.13,1.05 0.16,1 0.21,-0.37l0.06,-1.57l-2.89,0c-3.68,0 -3.77,-0.11 -3.77,-4.15l0,-3.26l-1.49,0c-0.81,0 -1.48,0.17 -1.48,0.37m11.85,0c0,0.21 0.42,0.37 0.93,0.37l0.93,0l0,5.85c0,4.89 -0.11,5.99 -0.64,6.76c-0.6,0.87 -0.59,0.89 0.03,0.38c1.53,-1.23 1.77,-2.41 1.65,-8.2l-0.12,-5.53l-1.39,0c-0.76,0 -1.39,0.17 -1.39,0.37m4.82,0c0,0.21 1.02,0.37 2.32,0.37c1.55,0 2.62,0.2 3.19,0.61c0.72,0.5 0.92,0.52 1.18,0.09c0.21,-0.34 0.06,-0.65 -0.5,-0.96c-0.99,-0.54 -6.19,-0.64 -6.19,-0.11m8.89,0c0,0.21 1.05,0.37 2.41,0.37l2.4,0l0,1.14c0,1.64 0.9,1.19 1.04,-0.52l0.12,-1.36l-2.99,0c-1.74,0 -2.98,0.16 -2.98,0.37m10.55,0c0.14,0.22 2.42,0.37 5.58,0.37l5.35,0l0,1.18c0,1.47 0.2,1.27 0.52,-0.53l0.25,-1.39l-5.96,0c-3.88,0 -5.89,0.13 -5.74,0.37m13.52,0c0,0.21 0.42,0.37 0.93,0.37l0.92,0l0,5.35c0,6.85 -0.31,6.51 5.96,6.51l4.78,0l0,1.11c0,0.76 0.19,1.11 0.59,1.11c0.55,0 0.49,-1.7 -0.09,-2.69c-0.1,-0.15 -2.21,-0.28 -4.7,-0.28c-5.76,0 -5.43,0.39 -5.43,-6.37l0,-5.48l-1.48,0c-0.81,0 -1.48,0.17 -1.48,0.37m18.34,0c0.13,0.22 2.41,0.37 5.57,0.37l5.35,0l0,1.11c0,0.62 0.17,1.12 0.37,1.12c0.21,0 0.37,-0.67 0.37,-1.49l0,-1.48l-5.95,0c-3.87,0 -5.86,0.13 -5.71,0.37m16.48,0c0,0.23 1.48,0.37 3.72,0.37c6.53,0 7.02,0.59 7.02,8.42c0,7.51 0.65,7.37 0.81,-0.18c0.14,-6.53 -0.09,-7.44 -2.15,-8.42c-1.38,-0.65 -9.4,-0.81 -9.4,-0.19m16.66,-0.03c0,0.26 1.3,0.4 3.73,0.4c4.2,0 5.55,0.47 6.45,2.21c0.74,1.43 0.73,4.8 -0.01,5.86c-0.52,0.74 -0.52,0.9 0,1.64c0.32,0.47 0.57,1.6 0.57,2.6c0,1.05 0.17,1.77 0.42,1.77c0.28,0 0.34,-0.83 0.18,-2.69c-0.31,-3.69 -0.32,-3.51 0.07,-6.2c0.38,-2.63 0.09,-3.64 -1.41,-5c-0.94,-0.86 -10,-1.39 -10,-0.59m16.67,-0.01c0,0.18 0.41,0.6 0.91,0.92c1.15,0.76 2.42,2.94 3.91,6.72c1.4,3.56 2.02,4.34 1.75,2.21c-0.3,-2.46 -2.49,-7.26 -4,-8.79c-1.27,-1.29 -2.57,-1.82 -2.57,-1.06m8.89,0.04c0,0.21 0.42,0.37 0.92,0.37l0.93,0l0,5.56c0,4.69 0.09,5.55 0.56,5.55c0.47,0 0.55,-0.9 0.55,-5.92l0,-5.93l-1.48,0c-0.81,0 -1.48,0.17 -1.48,0.37m-141.48,7.38c0,4.76 0.08,4.85 4.47,4.85c4.17,0 4.38,-0.68 0.25,-0.82c-2.76,-0.1 -3.09,-0.19 -3.42,-0.94c-0.2,-0.46 -0.49,-0.84 -0.65,-0.84c-0.15,0 -0.28,-0.66 -0.28,-1.48c0,-0.81 0.16,-1.48 0.37,-1.48c0.2,0 0.37,-0.67 0.37,-1.48c0,-1.07 -0.16,-1.48 -0.56,-1.48c-0.45,0 -0.55,0.65 -0.55,3.67m39.26,1.67c0,4.59 0.08,5.4 0.56,5.4c0.76,0 0.66,-10.4 -0.1,-10.65c-0.36,-0.12 -0.46,1.09 -0.46,5.25m10.74,-3.86c0,0.81 0.16,1.48 0.37,1.48c0.2,0 0.37,-0.67 0.37,-1.48c0,-0.82 -0.17,-1.48 -0.37,-1.48c-0.21,0 -0.37,0.66 -0.37,1.48m31.85,0c0,0.81 0.17,1.48 0.37,1.48c0.2,0 0.37,-0.67 0.37,-1.48c0,-0.82 -0.17,-1.48 -0.37,-1.48c-0.2,0 -0.37,0.66 -0.37,1.48m16.3,0.55l0,2.04l3.68,0l3.68,0l0.14,1.2c0.13,1.05 0.16,1 0.21,-0.37l0.06,-1.57l-3.33,0l-3.33,0l0,-1.67c0,-1.23 -0.15,-1.66 -0.56,-1.66c-0.42,0 -0.55,0.47 -0.55,2.03m16.66,3.34c0,4.52 0.09,5.37 0.56,5.37c0.41,0 0.55,-0.44 0.55,-1.67c0,-0.92 -0.16,-1.67 -0.37,-1.67c-0.2,0 -0.37,-0.66 -0.37,-1.48c0,-0.81 0.17,-1.48 0.37,-1.48c0.21,0 0.37,-0.99 0.37,-2.22c0,-1.73 -0.12,-2.22 -0.55,-2.22c-0.47,0 -0.56,0.84 -0.56,5.37m16.67,0.46c0,3.03 0.14,4.91 0.37,4.91c0.48,0 0.48,-8.51 0,-9.26c-0.24,-0.38 -0.36,1.04 -0.37,4.35m-128.89,-3.61c0,0.21 1.04,0.37 2.39,0.37c1.31,0 2.48,-0.17 2.61,-0.37c0.14,-0.23 -0.74,-0.37 -2.39,-0.37c-1.49,0 -2.61,0.16 -2.61,0.37m49.81,0c0.13,0.21 1.92,0.37 4.1,0.37l3.87,0l0,1.11c0,0.61 0.16,1.11 0.37,1.11c0.2,0 0.37,-0.67 0.37,-1.48l0,-1.48l-4.47,0c-2.88,0 -4.38,0.13 -4.24,0.37m31.86,0c0.13,0.21 1.91,0.37 4.09,0.37l3.87,0l0,1.11c0,0.61 0.17,1.11 0.37,1.11c0.2,0 0.37,-0.67 0.37,-1.48l0,-1.48l-4.47,0c-2.88,0 -4.38,0.13 -4.23,0.37m33.14,1.48c0,0.21 1.05,0.37 2.39,0.37c1.31,0 2.49,-0.17 2.61,-0.37c0.15,-0.23 -0.73,-0.37 -2.38,-0.37c-1.5,0 -2.62,0.16 -2.62,0.37m-67.4,3.07c0,1.59 0.56,1.75 6.37,1.75l5.48,0l0,1.11c0,0.61 0.17,1.11 0.37,1.11c0.41,0 0.5,-1.46 0.15,-2.38c-0.19,-0.5 -1.04,-0.59 -5.57,-0.59c-5.33,0 -5.34,0 -5.76,-0.92c-0.53,-1.16 -1.04,-1.2 -1.04,-0.08m31.85,0c0,1.59 0.56,1.75 6.35,1.75l5.45,0l0.15,1.2c0.13,1.04 0.16,0.99 0.21,-0.37l0.06,-1.58l-5.38,0c-5.37,0 -5.38,0 -5.8,-0.92c-0.52,-1.16 -1.04,-1.2 -1.04,-0.08m16.3,2.3c0,1.23 0.14,1.67 0.55,1.67c0.41,0 0.56,-0.44 0.56,-1.67c0,-1.23 -0.15,-1.67 -0.56,-1.67c-0.41,0 -0.55,0.44 -0.55,1.67m-81.86,-0.93c0,0.23 1.54,0.38 3.87,0.38c2.18,0 3.97,-0.17 4.1,-0.38c0.14,-0.23 -1.23,-0.37 -3.87,-0.37c-2.48,0 -4.1,0.15 -4.1,0.37m-7.4,1.67c0,0.58 0.21,0.93 0.55,0.93c0.35,0 0.56,-0.35 0.56,-0.93c0,-0.57 -0.21,-0.92 -0.56,-0.92c-0.34,0 -0.55,0.35 -0.55,0.92m131.48,0c0,0.58 0.21,0.93 0.55,0.93c0.35,0 0.56,-0.35 0.56,-0.93c0,-0.57 -0.21,-0.92 -0.56,-0.92c-0.34,0 -0.55,0.35 -0.55,0.92" fill="#cf33ef" fill-rule="evenodd" id="svg_4"/>
  <path d="m403.8,285.46c0,1.54 0.44,1.7 4.83,1.7c3.28,0.01 4.06,0.31 4.06,1.59c0,0.85 0.87,0.65 1.04,-0.24c0.28,-1.41 -0.58,-1.71 -4.79,-1.71l-4.03,0l0,-1.3c0,-0.91 -0.17,-1.3 -0.56,-1.3c-0.38,0 -0.55,0.39 -0.55,1.26m13.76,2.63c0.18,5.62 0.86,6.28 6.52,6.35l3.98,0.04l-3.34,-0.23c-5.3,-0.37 -6.11,-1.25 -6.11,-6.69c0,-2.82 -0.09,-3.36 -0.59,-3.36c-0.51,0 -0.57,0.53 -0.46,3.89m11.72,1.85c-0.06,3.16 -0.08,5.75 -0.05,5.75c0.04,0 0.33,-0.27 0.65,-0.59c0.83,-0.83 0.87,-10.9 0.05,-10.9c-0.45,0 -0.56,1.02 -0.65,5.74m4.89,-4.25l0,1.48l2.58,0c3.32,0 3.34,0.05 3.34,6.64l0,5.21l1.58,-0.06c1.36,-0.05 1.41,-0.08 0.37,-0.21l-1.21,-0.15l0,-5.68c0,-6.49 0.22,-6.12 -3.55,-6.12l-2.37,0l0,-1.3c0,-0.71 -0.17,-1.3 -0.37,-1.3c-0.21,0 -0.37,0.67 -0.37,1.49m8.89,-0.77c0,0.4 0.16,0.82 0.37,0.95c0.21,0.13 0.37,-0.18 0.37,-0.72c0,-0.52 -0.17,-0.95 -0.37,-0.95c-0.21,0 -0.37,0.33 -0.37,0.72m10.44,0.46c0.16,1.7 1.04,1.82 1.04,0.15c0,-0.96 -0.16,-1.33 -0.58,-1.33c-0.43,0 -0.55,0.31 -0.46,1.18m13.63,4.4c0,8.68 0.56,9.28 8.7,9.16l5.19,-0.07l-5,-0.2c-7.51,-0.31 -7.78,-0.62 -7.78,-8.88c0,-4.72 -0.09,-5.59 -0.55,-5.59c-0.47,0 -0.56,0.87 -0.56,5.58m18.22,-4.4c0.16,1.7 1.04,1.82 1.04,0.15c0,-0.96 -0.16,-1.33 -0.58,-1.33c-0.43,0 -0.55,0.31 -0.46,1.18m16.59,0.08c0,1.54 0.45,1.7 4.84,1.7c4.19,0.01 4.05,-0.2 4.05,6.38l0,5.48l1.58,-0.06c1.1,-0.04 1.27,-0.1 0.55,-0.21l-1.02,-0.15l0,-5.46c0,-6.67 0.26,-6.34 -4.88,-6.34l-4,0l0,-1.3c0,-0.91 -0.17,-1.3 -0.56,-1.3c-0.38,0 -0.56,0.39 -0.56,1.26m16.67,0c0,1.54 0.45,1.7 4.86,1.7c3.7,0.01 4.18,0.32 3.97,2.55c-0.16,1.65 0.64,1.76 1.04,0.14c0.62,-2.44 -0.03,-2.86 -4.6,-2.97l-4.16,-0.11l0,-1.28c0,-0.9 -0.17,-1.29 -0.55,-1.29c-0.39,0 -0.56,0.39 -0.56,1.26m16.67,0.04c0,0.71 0.16,1.3 0.37,1.3c0.2,0 0.37,-0.59 0.37,-1.3c0,-0.71 -0.17,-1.3 -0.37,-1.3c-0.21,0 -0.37,0.59 -0.37,1.3m8.89,4.26c0,3.46 0.14,5.55 0.37,5.55c0.23,0 0.37,-2.09 0.37,-5.55c0,-3.46 -0.14,-5.56 -0.37,-5.56c-0.23,0 -0.37,2.1 -0.37,5.56m-99.36,-2.7c0.65,0.09 1.82,0.09 2.59,0.01c0.77,-0.08 0.23,-0.15 -1.2,-0.15c-1.42,0 -2.05,0.06 -1.39,0.14m12.6,0.01c1.47,0.07 3.89,0.07 5.37,0c1.47,-0.07 0.27,-0.13 -2.69,-0.13c-2.95,0 -4.16,0.06 -2.68,0.13m31.85,0c1.48,0.07 3.89,0.07 5.37,0c1.48,-0.07 0.27,-0.13 -2.69,-0.13c-2.95,0 -4.16,0.06 -2.68,0.13m47.24,0.47c0.82,3.87 4.11,10.04 5.83,10.93c1.83,0.95 1.99,0.6 0.4,-0.84c-1.19,-1.07 -1.96,-2.36 -3.39,-5.64c-1.84,-4.22 -3.27,-6.47 -2.84,-4.45m-135.66,3.79c0,6.73 1.03,7.73 7.85,7.62l4.18,-0.07l-4.07,-0.21c-6.19,-0.32 -6.86,-1.03 -6.86,-7.39c0,-3.41 -0.09,-4.11 -0.55,-4.11c-0.46,0 -0.56,0.71 -0.55,4.16m49.68,0.2c0.21,7 0.89,7.53 9.47,7.41l5.47,-0.07l-5.61,-0.2c-7.65,-0.28 -8.28,-0.85 -8.28,-7.6c0,-3.34 -0.08,-3.9 -0.59,-3.9c-0.52,0 -0.58,0.55 -0.46,4.36m31.85,0c0.21,7 0.89,7.53 9.47,7.41l5.47,-0.07l-5.61,-0.2c-7.65,-0.28 -8.27,-0.85 -8.27,-7.6c0,-3.34 -0.09,-3.9 -0.6,-3.9c-0.52,0 -0.58,0.55 -0.46,4.36m16.61,1.56l0,5.93l1.58,-0.06c1.1,-0.04 1.27,-0.1 0.55,-0.21l-1.02,-0.15l0,-5.72c0,-4.83 -0.08,-5.71 -0.55,-5.71c-0.47,0 -0.56,0.9 -0.56,5.92m16.67,0l0,5.93l1.57,-0.06c1.11,-0.04 1.27,-0.1 0.56,-0.21l-1.02,-0.15l0,-5.72c0,-4.83 -0.09,-5.71 -0.56,-5.71c-0.47,0 -0.55,0.9 -0.55,5.92m16.66,0l0,5.93l1.39,-0.06c1.12,-0.04 1.19,-0.08 0.37,-0.21l-1.01,-0.15l0,-5.72c0,-3.56 -0.14,-5.71 -0.37,-5.71c-0.24,0 -0.38,2.22 -0.38,5.92m-127.03,-1.48l0,1.48l3.26,0c3.46,0 4.15,0.29 4.15,1.73c0,0.82 2.25,1.69 2.85,1.09c0.13,-0.12 -0.21,-0.22 -0.76,-0.22c-0.83,0 -0.98,-0.16 -0.98,-1.04c0,-1.66 -0.59,-1.93 -4.15,-1.93l-3.26,0l0,-1.29c0,-0.91 -0.17,-1.3 -0.56,-1.3c-0.4,0 -0.55,0.41 -0.55,1.48m49.63,0l0,1.48l4.53,-0.08l4.54,-0.07l-3.98,-0.12l-3.98,-0.12l0,-1.29c0,-0.89 -0.17,-1.28 -0.56,-1.28c-0.4,0 -0.55,0.41 -0.55,1.48m31.85,0l0,1.48l4.54,-0.08l4.53,-0.07l-3.98,-0.12l-3.98,-0.12l0,-1.29c0,-0.89 -0.17,-1.28 -0.56,-1.28c-0.4,0 -0.55,0.41 -0.55,1.48m33.33,1.48l0,1.48l3.26,0c3.82,0 4.15,0.22 4.15,2.67l0,1.78l1.57,-0.06c1.11,-0.04 1.28,-0.1 0.56,-0.21c-0.93,-0.14 -1.02,-0.29 -1.02,-1.77c0,-2.41 -0.57,-2.78 -4.29,-2.78l-3.12,0l0,-1.29c0,-0.91 -0.16,-1.3 -0.55,-1.3c-0.4,0 -0.56,0.41 -0.56,1.48m-15.45,1.39c0.98,0.07 2.48,0.07 3.33,-0.01c0.86,-0.07 0.07,-0.14 -1.77,-0.13c-1.83,0 -2.53,0.06 -1.56,0.14m-85.66,3.06l0,1.48l5.09,-0.08l5.1,-0.08l-4.54,-0.12l-4.54,-0.11l0,-1.29c0,-0.9 -0.17,-1.28 -0.55,-1.28c-0.4,0 -0.56,0.41 -0.56,1.48" fill="#0ff9fc" fill-rule="evenodd" id="svg_3"/>
  <path d="m383.49,278.74c0.05,3.48 0.2,3.07 0.39,-1.11c0.06,-1.28 -0.02,-2.32 -0.18,-2.32c-0.15,0 -0.25,1.55 -0.21,3.43m115.96,5.83c0,0.92 0.08,1.3 0.16,0.84c0.09,-0.46 0.09,-1.21 0,-1.67c-0.08,-0.46 -0.16,-0.08 -0.16,0.83m-49.64,0.37c0,0.72 0.07,1.01 0.17,0.65c0.09,-0.35 0.09,-0.94 0,-1.29c-0.1,-0.36 -0.17,-0.07 -0.17,0.64m16.66,0c0,0.72 0.08,1.01 0.17,0.65c0.1,-0.35 0.1,-0.94 0,-1.29c-0.09,-0.36 -0.17,-0.07 -0.17,0.64m31.86,0c0,0.72 0.07,1.01 0.17,0.65c0.09,-0.35 0.09,-0.94 0,-1.29c-0.1,-0.36 -0.17,-0.07 -0.17,0.64m49.69,4.45c0,3.16 0.06,4.45 0.13,2.87c0.06,-1.58 0.06,-4.16 0,-5.74c-0.07,-1.58 -0.13,-0.29 -0.13,2.87m-164.47,-0.19c0,1.63 0.07,2.25 0.15,1.38c0.08,-0.87 0.08,-2.2 -0.01,-2.96c-0.07,-0.76 -0.14,-0.05 -0.14,1.58m-15.55,0.93c0,1.73 0.06,2.44 0.14,1.57c0.08,-0.86 0.08,-2.28 0,-3.14c-0.08,-0.87 -0.14,-0.16 -0.14,1.57m17.75,-1.3c0.01,1.02 0.08,1.39 0.16,0.83c0.09,-0.56 0.09,-1.4 0,-1.85c-0.09,-0.46 -0.16,0 -0.16,1.02m58.19,3.71c0,3.05 0.06,4.25 0.13,2.67c0.07,-1.59 0.07,-4.09 0,-5.56c-0.07,-1.47 -0.13,-0.17 -0.13,2.89m10.68,-1.62c-0.07,3.36 0.01,4.01 0.57,4.44c0.56,0.45 0.59,0.44 0.19,-0.07c-0.26,-0.34 -0.5,-2.16 -0.57,-4.44l-0.12,-3.87l-0.07,3.94m1.13,-2.27c0,0.91 0.07,1.29 0.16,0.83c0.09,-0.46 0.09,-1.21 0,-1.67c-0.09,-0.45 -0.16,-0.08 -0.16,0.84m30.72,2.27c-0.07,3.36 0.01,4.01 0.57,4.44c0.57,0.45 0.59,0.44 0.2,-0.07c-0.27,-0.34 -0.5,-2.16 -0.57,-4.44l-0.13,-3.87l-0.07,3.94m1.13,-2.27c0,0.91 0.07,1.29 0.16,0.83c0.09,-0.46 0.09,-1.21 0,-1.67c-0.09,-0.45 -0.16,-0.08 -0.16,0.84m48.57,4.26c0,2.85 0.05,3.97 0.12,2.48c0.07,-1.48 0.07,-3.82 0,-5.18c-0.07,-1.37 -0.13,-0.15 -0.12,2.7m-165.98,-3.34c0,0.82 0.08,1.11 0.17,0.65c0.08,-0.46 0.08,-1.13 -0.01,-1.48c-0.1,-0.36 -0.17,0.02 -0.16,0.83m21.62,-0.55c0.23,0.3 0.51,0.89 0.61,1.29c0.17,0.71 0.18,0.71 0.22,-0.04c0.03,-0.44 -0.25,-1.02 -0.6,-1.3c-0.57,-0.44 -0.6,-0.44 -0.23,0.05m74.31,1.48c0,0.92 0.07,1.29 0.16,0.83c0.09,-0.45 0.09,-1.2 0,-1.66c-0.09,-0.46 -0.16,-0.09 -0.16,0.83m31.85,0c0,0.92 0.07,1.29 0.16,0.83c0.09,-0.45 0.09,-1.2 0,-1.66c-0.09,-0.46 -0.16,-0.09 -0.16,0.83m-32.98,0.37c0,0.71 0.08,1.01 0.17,0.65c0.1,-0.36 0.1,-0.94 0,-1.3c-0.09,-0.35 -0.17,-0.06 -0.17,0.65m31.85,0c0,0.71 0.08,1.01 0.17,0.65c0.1,-0.36 0.1,-0.94 0,-1.3c-0.09,-0.35 -0.17,-0.06 -0.17,0.65m40.43,3.15c0,2.24 0.06,3.11 0.13,1.93c0.08,-1.18 0.08,-3.01 0,-4.07c-0.07,-1.07 -0.13,-0.1 -0.13,2.14m-160.05,-1.11c0.01,0.81 0.08,1.1 0.17,0.64c0.09,-0.46 0.09,-1.13 -0.01,-1.48c-0.09,-0.35 -0.16,0.02 -0.16,0.84m2.13,1.83c0,0.5 0.14,0.99 0.31,1.09c0.16,0.1 0.23,-0.3 0.14,-0.9c-0.2,-1.33 -0.45,-1.43 -0.45,-0.19m87.12,2.06c0,0.71 0.08,1 0.17,0.64c0.1,-0.35 0.1,-0.94 0,-1.29c-0.09,-0.36 -0.17,-0.07 -0.17,0.65m15.19,0c0,0.71 0.08,1 0.17,0.64c0.09,-0.35 0.09,-0.94 0,-1.29c-0.09,-0.36 -0.17,-0.07 -0.17,0.65m16.67,0c0,0.71 0.07,1 0.17,0.64c0.09,-0.35 0.09,-0.94 0,-1.29c-0.1,-0.36 -0.17,-0.07 -0.17,0.65m-114.78,2.4c0,1.63 0.07,2.25 0.15,1.38c0.08,-0.87 0.08,-2.2 -0.01,-2.96c-0.07,-0.76 -0.14,-0.05 -0.14,1.58" fill="#ee9cf8" fill-rule="evenodd" id="svg_2"/>
  <path d="m435,285.5c0,0.81 0.08,1.1 0.17,0.64c0.09,-0.46 0.08,-1.12 -0.01,-1.48c-0.09,-0.35 -0.16,0.03 -0.16,0.84m8.84,-0.44c-0.03,0.73 -0.18,0.96 -0.51,0.76c-0.26,-0.16 -0.22,0.01 0.1,0.41c0.62,0.77 0.99,-0.16 0.62,-1.57c-0.1,-0.38 -0.18,-0.22 -0.21,0.4m10.8,0.63c0,0.91 0.07,1.29 0.16,0.83c0.09,-0.46 0.09,-1.21 0,-1.67c-0.09,-0.46 -0.16,-0.08 -0.16,0.84m31.85,0c0,0.91 0.07,1.29 0.16,0.83c0.09,-0.46 0.09,-1.21 0,-1.67c-0.09,-0.46 -0.16,-0.08 -0.16,0.84m49.64,0.37c0,1.12 0.07,1.57 0.15,1.01c0.09,-0.56 0.09,-1.47 0,-2.03c-0.08,-0.56 -0.15,-0.1 -0.15,1.02m7.81,2.03c0,2.24 0.06,3.11 0.13,1.93c0.07,-1.18 0.07,-3.01 0,-4.07c-0.08,-1.06 -0.14,-0.1 -0.13,2.14m0.89,1.89c-0.06,3.18 0.02,5.85 0.17,5.95c0.15,0.09 0.28,-2.51 0.28,-5.78c0,-7.61 -0.3,-7.72 -0.45,-0.17m-93.12,1.26c0,2.34 0.06,3.3 0.14,2.13c0.07,-1.17 0.07,-3.09 0,-4.26c-0.08,-1.17 -0.14,-0.21 -0.14,2.13m31.86,0c0,2.34 0.06,3.3 0.13,2.13c0.07,-1.17 0.07,-3.09 0,-4.26c-0.07,-1.17 -0.13,-0.21 -0.13,2.13m49.63,1.67c0.01,3.26 0.06,4.54 0.13,2.85c0.07,-1.69 0.07,-4.36 0,-5.93c-0.07,-1.57 -0.13,-0.18 -0.13,3.08m-92.22,0.18c0,3.16 0.06,4.45 0.13,2.87c0.07,-1.58 0.07,-4.16 0,-5.74c-0.07,-1.58 -0.13,-0.28 -0.13,2.87m-1.11,0.56c0,3.05 0.06,4.25 0.13,2.67c0.07,-1.59 0.07,-4.09 0,-5.56c-0.07,-1.47 -0.13,-0.17 -0.13,2.89m16.24,-2.22c0.01,0.81 0.08,1.1 0.17,0.64c0.09,-0.46 0.09,-1.13 -0.01,-1.48c-0.09,-0.36 -0.16,0.02 -0.16,0.84m31.85,0c0.01,0.81 0.08,1.1 0.17,0.64c0.09,-0.46 0.09,-1.13 0,-1.48c-0.1,-0.36 -0.17,0.02 -0.17,0.84m44.07,0.55c0,0.71 0.08,1.01 0.17,0.65c0.09,-0.36 0.09,-0.94 0,-1.3c-0.09,-0.35 -0.17,-0.06 -0.17,0.65m-113.32,5.56c0,0.91 0.07,1.29 0.16,0.83c0.09,-0.46 0.09,-1.21 0,-1.67c-0.09,-0.45 -0.16,-0.08 -0.16,0.84" fill="#9ff2fc" fill-rule="evenodd" id="svg_1"/>
 </g>
</svg>