<svg xmlns="http://www.w3.org/2000/svg" id="Layer_1" data-name="Layer 1" width="718.88" height="693.83" viewBox="0 0 718.88 693.83"><defs><style>      .cls-1 {        fill: #a6a235;      }      .cls-2 {        fill: #be5727;      }      .cls-3 {        fill: #5e692d;      }    </style></defs><g><path class="cls-3" d="M41.55,211.64c-.15,0-.29-.03-.44-.09-.56-.24-.82-.89-.58-1.45,.58-1.36,1.18-2.71,1.77-4.06,.25-.56,.9-.81,1.46-.56s.81,.9,.56,1.46c-.6,1.34-1.18,2.68-1.76,4.03-.18,.42-.59,.67-1.02,.67Z"></path><path class="cls-3" d="M47.05,199.5c-.16,0-.32-.03-.48-.11-.55-.26-.79-.92-.52-1.47,1.29-2.71,2.61-5.4,3.97-8.06,.27-.54,.94-.77,1.49-.48,.54,.28,.76,.94,.48,1.49-1.35,2.65-2.67,5.32-3.95,8.01-.19,.4-.58,.63-1,.63Zm624.11-1.39c-.41,0-.8-.23-1-.63-1.29-2.68-2.62-5.34-3.97-7.98-.28-.54-.06-1.21,.48-1.49,.52-.29,1.2-.06,1.49,.48,1.37,2.65,2.7,5.33,4,8.03,.26,.55,.03,1.21-.52,1.48-.16,.07-.32,.11-.48,.11ZM55.17,183.54c-.18,0-.36-.04-.53-.13-.54-.29-.73-.96-.45-1.5,1.43-2.63,2.89-5.25,4.38-7.84,.31-.53,.98-.71,1.51-.41,.53,.31,.71,.98,.41,1.51-1.48,2.58-2.94,5.17-4.35,7.79-.2,.37-.58,.58-.97,.58Zm607.83-1.31c-.39,0-.77-.21-.97-.57-1.43-2.61-2.89-5.19-4.38-7.76-.31-.53-.13-1.21,.4-1.51,.53-.32,1.21-.13,1.51,.4,1.5,2.58,2.97,5.18,4.41,7.81,.29,.54,.1,1.21-.44,1.5-.17,.1-.35,.14-.53,.14Zm-598.9-14.21c-.2,0-.4-.05-.58-.16-.52-.32-.68-1-.36-1.52,1.56-2.55,3.15-5.08,4.78-7.6,.33-.51,1.02-.66,1.53-.33,.51,.33,.66,1.02,.33,1.53-1.62,2.5-3.2,5.01-4.75,7.56-.21,.34-.57,.53-.94,.53Zm589.92-1.24c-.37,0-.73-.19-.94-.52-1.56-2.53-3.15-5.04-4.77-7.52-.34-.51-.19-1.2,.32-1.53,.51-.34,1.19-.19,1.53,.32,1.63,2.5,3.23,5.03,4.8,7.57,.32,.52,.16,1.2-.36,1.53-.18,.11-.38,.16-.58,.16Zm-580.2-13.79c-.22,0-.43-.06-.63-.19-.5-.35-.63-1.03-.29-1.54,1.69-2.47,3.41-4.92,5.17-7.34,.36-.49,1.05-.61,1.54-.25,.5,.35,.61,1.05,.25,1.54-1.74,2.41-3.45,4.84-5.13,7.3-.21,.31-.56,.48-.91,.48Zm570.43-1.18c-.35,0-.7-.17-.91-.48-1.68-2.44-3.4-4.86-5.15-7.26-.36-.49-.25-1.19,.24-1.55s1.18-.26,1.55,.24c1.76,2.42,3.49,4.85,5.19,7.31,.35,.5,.22,1.19-.29,1.54-.19,.13-.41,.19-.63,.19Zm-559.95-13.33c-.23,0-.47-.07-.67-.22-.49-.37-.58-1.07-.21-1.55,1.82-2.38,3.66-4.74,5.54-7.07,.38-.47,1.07-.54,1.56-.16,.48,.38,.55,1.08,.16,1.56-1.86,2.31-3.7,4.65-5.5,7.02-.22,.29-.55,.44-.88,.44Zm549.41-1.11c-.33,0-.66-.15-.88-.43-1.82-2.36-3.65-4.69-5.52-6.99-.38-.48-.31-1.17,.16-1.56,.47-.38,1.17-.31,1.56,.16,1.88,2.32,3.74,4.66,5.56,7.04,.37,.48,.28,1.18-.2,1.55-.2,.16-.44,.23-.67,.23ZM95.51,124.54c-.26,0-.51-.09-.72-.26-.46-.39-.52-1.09-.13-1.56,1.93-2.28,3.9-4.53,5.89-6.77,.41-.45,1.12-.49,1.56-.09,.46,.41,.5,1.11,.09,1.56-1.98,2.22-3.93,4.46-5.85,6.73-.22,.26-.53,.39-.84,.39Zm526.95-1.06c-.31,0-.62-.13-.84-.39-1.92-2.26-3.89-4.49-5.87-6.7-.41-.45-.37-1.15,.08-1.56,.45-.42,1.15-.37,1.56,.08,2,2.22,3.97,4.47,5.91,6.74,.4,.47,.34,1.16-.13,1.56-.21,.18-.46,.26-.72,.26ZM107.43,111.2c-.27,0-.54-.1-.76-.3-.45-.42-.47-1.12-.05-1.56,2.05-2.18,4.12-4.33,6.23-6.46,.43-.44,1.13-.44,1.56,0,.43,.43,.44,1.13,0,1.56-2.09,2.11-4.15,4.25-6.19,6.42-.22,.23-.51,.35-.81,.35Zm503.08-1c-.29,0-.59-.12-.8-.35-2.04-2.16-4.12-4.29-6.21-6.39-.43-.43-.43-1.13,0-1.56s1.13-.42,1.56,0c2.11,2.12,4.2,4.26,6.26,6.43,.42,.45,.4,1.15-.04,1.56-.22,.2-.49,.3-.76,.3Zm-490.5-11.71c-.29,0-.58-.11-.8-.34-.42-.44-.41-1.14,.03-1.56,2.15-2.07,4.34-4.11,6.55-6.13,.45-.41,1.16-.38,1.56,.07,.41,.45,.38,1.15-.07,1.56-2.2,2.01-4.37,4.03-6.51,6.09-.21,.2-.49,.31-.77,.31Zm477.86-.96c-.28,0-.55-.1-.77-.31-2.15-2.05-4.33-4.07-6.54-6.07-.45-.41-.49-1.11-.08-1.56,.42-.45,1.12-.48,1.56-.08,2.22,2.01,4.41,4.04,6.58,6.11,.44,.42,.46,1.12,.03,1.56-.22,.22-.51,.34-.8,.34Zm-464.65-11.09c-.31,0-.62-.13-.84-.38-.4-.46-.35-1.16,.11-1.56,2.26-1.95,4.55-3.88,6.86-5.78,.48-.39,1.17-.32,1.56,.15,.39,.48,.32,1.17-.15,1.56-2.3,1.88-4.57,3.8-6.81,5.75-.21,.18-.47,.27-.73,.27Zm451.38-.9c-.26,0-.51-.09-.72-.27-2.26-1.93-4.53-3.84-6.84-5.72-.47-.38-.54-1.08-.16-1.56,.38-.48,1.08-.55,1.56-.16,2.32,1.89,4.61,3.81,6.89,5.76,.46,.4,.51,1.09,.12,1.56-.22,.26-.53,.38-.84,.38Zm-437.57-10.44c-.33,0-.65-.15-.87-.43-.38-.48-.29-1.18,.19-1.55,2.35-1.83,4.73-3.64,7.14-5.42,.5-.36,1.19-.26,1.55,.23,.36,.49,.26,1.18-.23,1.55-2.39,1.76-4.76,3.56-7.1,5.38-.2,.16-.44,.23-.68,.23Zm423.7-.86c-.24,0-.48-.07-.68-.23-2.35-1.82-4.73-3.61-7.12-5.36-.49-.36-.6-1.05-.24-1.55,.37-.5,1.06-.59,1.55-.24,2.42,1.77,4.81,3.57,7.18,5.4,.48,.38,.57,1.07,.2,1.56-.22,.28-.55,.43-.88,.43Zm-409.33-9.76c-.35,0-.69-.16-.91-.47-.35-.5-.23-1.19,.27-1.54,2.45-1.71,4.92-3.39,7.41-5.05,.5-.33,1.19-.2,1.53,.32,.34,.51,.19,1.2-.32,1.53-2.48,1.63-4.93,3.31-7.36,5.01-.19,.13-.42,.2-.64,.2Zm394.89-.82c-.22,0-.44-.06-.63-.2-2.44-1.69-4.91-3.35-7.4-4.99-.51-.34-.65-1.02-.32-1.53,.34-.5,1.02-.64,1.53-.32,2.5,1.64,4.98,3.32,7.44,5.02,.5,.35,.63,1.04,.28,1.54-.21,.31-.56,.48-.91,.48Zm-379.99-9.05c-.37,0-.73-.19-.94-.52-.32-.52-.17-1.2,.35-1.53,2.53-1.58,5.09-3.13,7.66-4.65,.54-.31,1.21-.13,1.51,.39,.31,.53,.14,1.21-.39,1.51-2.55,1.51-5.09,3.05-7.61,4.63-.19,.11-.38,.17-.59,.17Zm365.02-.77c-.2,0-.4-.05-.58-.16-2.53-1.56-5.08-3.1-7.64-4.6-.53-.31-.7-.99-.4-1.51,.31-.54,.98-.72,1.51-.4,2.59,1.51,5.15,3.05,7.7,4.63,.52,.32,.68,1,.36,1.53-.21,.34-.57,.52-.94,.52Zm-349.63-8.31c-.39,0-.77-.2-.97-.57-.29-.53-.1-1.21,.43-1.5,2.61-1.45,5.24-2.87,7.89-4.25,.53-.28,1.21-.08,1.49,.47,.28,.54,.07,1.21-.47,1.49-2.63,1.37-5.24,2.78-7.83,4.22-.17,.1-.35,.14-.54,.14Zm334.18-.72c-.18,0-.36-.04-.53-.14-2.61-1.44-5.23-2.84-7.88-4.2-.54-.28-.76-.95-.48-1.49,.28-.55,.95-.77,1.49-.48,2.66,1.37,5.3,2.78,7.93,4.23,.54,.29,.73,.97,.44,1.5-.2,.37-.58,.57-.97,.57Zm-318.36-7.54c-.41,0-.8-.23-.99-.62-.27-.55-.04-1.21,.51-1.48,2.68-1.31,5.38-2.59,8.09-3.84,.55-.27,1.21-.02,1.47,.54,.26,.56,0,1.21-.54,1.47-2.7,1.24-5.38,2.51-8.04,3.81-.16,.08-.32,.11-.49,.11Zm302.44-.68c-.16,0-.33-.03-.48-.11-2.68-1.3-5.37-2.56-8.09-3.79-.55-.25-.8-.91-.55-1.47,.25-.55,.89-.82,1.47-.55,2.73,1.24,5.44,2.51,8.14,3.81,.55,.26,.78,.93,.51,1.48-.19,.39-.58,.62-.99,.62Zm-286.21-6.75c-.43,0-.84-.25-1.02-.67-.24-.56,.02-1.21,.58-1.45,2.74-1.17,5.5-2.31,8.28-3.41,.57-.22,1.21,.06,1.44,.62,.22,.57-.05,1.21-.62,1.44-2.76,1.09-5.5,2.22-8.22,3.38-.14,.06-.29,.09-.44,.09Zm269.89-.63c-.14,0-.29-.03-.43-.09-2.74-1.15-5.5-2.27-8.27-3.36-.57-.22-.85-.86-.63-1.43,.22-.57,.88-.86,1.43-.63,2.79,1.09,5.57,2.22,8.33,3.38,.57,.24,.83,.89,.59,1.45-.18,.42-.59,.68-1.02,.68Zm-253.31-5.95c-.45,0-.87-.28-1.04-.73-.21-.57,.08-1.21,.66-1.42,2.8-1.03,5.61-2.02,8.44-2.98,.58-.19,1.21,.12,1.4,.7s-.12,1.21-.7,1.4c-2.81,.95-5.61,1.93-8.39,2.95-.13,.05-.26,.07-.38,.07Zm236.62-.58c-.13,0-.25-.02-.38-.06-2.8-1.02-5.61-1.99-8.44-2.93-.58-.19-.89-.82-.7-1.4,.2-.57,.84-.89,1.4-.7,2.85,.95,5.68,1.93,8.49,2.94,.57,.21,.87,.84,.67,1.42-.16,.45-.59,.73-1.04,.73Zm-219.72-5.13c-.47,0-.91-.3-1.06-.78-.18-.58,.15-1.21,.73-1.39,2.84-.88,5.71-1.72,8.59-2.52,.58-.16,1.2,.18,1.36,.77,.17,.59-.18,1.2-.77,1.36-2.86,.8-5.7,1.64-8.53,2.52-.11,.03-.22,.05-.33,.05Zm202.7-.52c-.1,0-.21-.01-.32-.05-2.85-.86-5.71-1.69-8.59-2.48-.59-.16-.93-.77-.77-1.36s.77-.93,1.36-.77c2.9,.8,5.78,1.63,8.64,2.5,.58,.18,.92,.8,.74,1.38-.14,.48-.58,.79-1.06,.79Zm-185.53-4.3c-.5,0-.95-.33-1.07-.83-.15-.59,.21-1.19,.8-1.34,2.89-.73,5.8-1.43,8.73-2.09,.62-.15,1.18,.25,1.32,.84,.13,.6-.24,1.19-.84,1.32-2.9,.65-5.79,1.34-8.67,2.07-.09,.03-.18,.03-.27,.03Zm168.24-.45c-.09,0-.18,0-.27-.03-2.88-.71-5.78-1.39-8.7-2.03-.6-.13-.97-.72-.84-1.32,.13-.6,.7-.98,1.32-.84,2.94,.64,5.86,1.33,8.76,2.05,.59,.15,.96,.74,.8,1.34-.12,.5-.57,.84-1.07,.84Zm-150.79-3.48c-.52,0-.98-.36-1.09-.89-.12-.6,.27-1.18,.87-1.3,2.93-.58,5.87-1.12,8.82-1.63,.59-.12,1.18,.3,1.28,.9,.1,.6-.3,1.17-.9,1.28-2.93,.51-5.85,1.05-8.76,1.62-.07,.01-.15,.02-.22,.02Zm133.3-.36c-.07,0-.14,0-.21-.02-2.91-.56-5.84-1.09-8.78-1.57-.6-.1-1.01-.67-.91-1.28,.1-.6,.69-1.01,1.28-.91,2.96,.49,5.9,1.02,8.83,1.59,.6,.11,.99,.7,.88,1.29-.1,.53-.56,.9-1.09,.9Zm-115.67-2.65c-.54,0-1.02-.4-1.09-.95-.09-.61,.33-1.17,.93-1.25,2.95-.43,5.92-.82,8.9-1.17,.57-.06,1.16,.36,1.23,.97,.07,.61-.36,1.16-.97,1.23-2.96,.35-5.9,.74-8.84,1.16-.06,0-.11,.01-.16,.01Zm98.03-.27s-.1,0-.15,0c-2.94-.41-5.88-.78-8.85-1.12-.61-.06-1.04-.61-.97-1.22,.06-.61,.51-1.05,1.22-.97,2.98,.33,5.94,.7,8.9,1.12,.61,.09,1.03,.64,.95,1.25-.08,.55-.55,.96-1.1,.96Zm-80.27-1.83c-.57,0-1.05-.43-1.1-1.01-.06-.61,.39-1.15,1-1.2,2.97-.27,5.95-.51,8.94-.71,.73-.13,1.13,.42,1.18,1.03,.04,.61-.42,1.14-1.03,1.18-2.98,.2-5.94,.44-8.89,.71-.03,0-.06,0-.1,0Zm62.5-.17s-.06,0-.1,0c-2.95-.26-5.92-.48-8.89-.65-.61-.04-1.07-.56-1.04-1.18,.04-.61,.44-1.03,1.18-1.04,2.99,.19,5.97,.41,8.94,.66,.61,.05,1.06,.59,1.01,1.2-.05,.57-.53,1.01-1.1,1.01Zm-44.66-1.02c-.59,0-1.08-.47-1.11-1.06-.03-.61,.45-1.12,1.06-1.15,2.97-.12,5.96-.2,8.95-.25h.02c.61,0,1.1,.48,1.11,1.09,0,.61-.48,1.12-1.09,1.12-2.98,.05-5.94,.13-8.9,.25h-.04Zm26.8-.07h-.04c-2.97-.1-5.94-.17-8.91-.2-.61,0-1.1-.51-1.09-1.12,0-.61,.5-1.09,1.11-1.09h.01c3,.03,5.98,.1,8.97,.2,.61,.02,1.09,.54,1.07,1.15-.02,.6-.51,1.07-1.11,1.07Z"></path><path class="cls-3" d="M676.87,210.57c-.43,0-.83-.25-1.02-.67-.58-1.34-1.18-2.68-1.78-4.03-.25-.56,0-1.21,.56-1.46,.55-.24,1.21,0,1.46,.56,.6,1.34,1.2,2.69,1.79,4.05,.24,.56-.02,1.21-.57,1.46-.14,.06-.29,.09-.44,.09Z"></path></g><g><path class="cls-3" d="M694.78,432.83c-.09,0-.18,0-.27-.03-.6-.15-.96-.75-.8-1.34,.35-1.42,.71-2.85,1.05-4.28,.14-.59,.73-.98,1.33-.82,.6,.14,.96,.74,.82,1.33-.34,1.44-.7,2.88-1.06,4.31-.13,.51-.57,.84-1.07,.84Z"></path><path class="cls-3" d="M359.44,693.83c-1.37,0-2.73,0-4.1-.03-.61,0-1.1-.51-1.09-1.12s.54-1.17,1.12-1.09c2.95,.03,5.9,.04,8.85,0h.02c.61,0,1.1,.48,1.11,1.09,0,.61-.48,1.12-1.09,1.12-1.6,.03-3.21,.03-4.81,.03Zm-12.96-.24h-.04c-2.97-.11-5.94-.26-8.89-.44-.61-.04-1.07-.56-1.04-1.18,.04-.61,.45-.99,1.18-1.04,2.94,.18,5.88,.33,8.84,.44,.61,.03,1.09,.54,1.06,1.15-.02,.6-.51,1.06-1.11,1.06Zm26.62-.03c-.59,0-1.09-.47-1.11-1.06-.02-.61,.45-1.12,1.06-1.15,2.96-.11,5.91-.27,8.84-.46,.71,.06,1.14,.43,1.18,1.04,.04,.61-.42,1.13-1.03,1.18-2.96,.19-5.92,.35-8.9,.46h-.04Zm-44.34-1.07h-.1c-2.97-.27-5.92-.56-8.87-.9-.61-.07-1.04-.61-.97-1.23,.06-.61,.54-1.12,1.22-.97,2.93,.34,5.86,.63,8.81,.88,.61,.06,1.06,.6,1.01,1.2-.05,.58-.53,1.01-1.1,1.01Zm62.06-.06c-.57,0-1.05-.43-1.1-1-.06-.61,.39-1.15,1-1.2,2.95-.27,5.88-.57,8.81-.91,.66-.13,1.15,.36,1.22,.97,.07,.61-.36,1.16-.97,1.23-2.94,.34-5.89,.64-8.86,.91-.03,0-.07,0-.1,0Zm-79.7-1.95s-.1,0-.15,0c-2.94-.41-5.88-.86-8.81-1.35-.6-.1-1.01-.67-.91-1.27s.69-1.01,1.28-.91c2.91,.48,5.82,.93,8.75,1.33,.61,.09,1.03,.65,.95,1.25-.08,.55-.55,.95-1.1,.95Zm97.33-.1c-.54,0-1.02-.4-1.09-.95-.09-.61,.33-1.17,.94-1.25,2.93-.42,5.84-.86,8.75-1.35,.64-.1,1.18,.3,1.28,.91,.1,.6-.3,1.17-.9,1.27-2.93,.49-5.86,.95-8.81,1.37-.05,0-.1,0-.16,0Zm-114.85-2.81c-.07,0-.14,0-.21-.02-2.93-.57-5.84-1.17-8.73-1.81-.6-.13-.98-.73-.84-1.32,.13-.59,.73-.97,1.32-.84,2.87,.64,5.77,1.24,8.67,1.79,.6,.12,.99,.7,.88,1.3-.1,.53-.57,.9-1.09,.9Zm132.36-.13c-.52,0-.98-.36-1.09-.89-.12-.61,.27-1.18,.87-1.31,2.9-.56,5.79-1.17,8.66-1.81,.59-.11,1.19,.25,1.32,.84,.13,.6-.25,1.19-.84,1.32-2.89,.64-5.8,1.25-8.72,1.82-.07,0-.14,.02-.21,.02Zm-149.73-3.69c-.09,0-.18,0-.26-.03-2.9-.71-5.78-1.46-8.65-2.26-.59-.16-.93-.77-.77-1.36,.16-.59,.77-.98,1.36-.77,2.85,.78,5.71,1.53,8.59,2.24,.59,.15,.96,.74,.81,1.34-.13,.5-.58,.84-1.08,.84Zm167.06-.15c-.5,0-.95-.34-1.07-.84-.15-.6,.21-1.19,.8-1.34,2.87-.72,5.72-1.47,8.56-2.25,.59-.21,1.2,.18,1.36,.77,.16,.59-.19,1.2-.77,1.36-2.86,.8-5.73,1.55-8.61,2.27-.09,.03-.18,.03-.27,.03Zm-184.23-4.57c-.11,0-.22-.02-.32-.05-2.85-.86-5.69-1.76-8.51-2.69-.58-.2-.89-.82-.7-1.4,.19-.58,.8-.88,1.4-.71,2.8,.93,5.62,1.82,8.46,2.69,.59,.17,.92,.8,.74,1.37-.15,.48-.58,.79-1.06,.79Zm201.34-.17c-.48,0-.91-.3-1.06-.79-.18-.58,.15-1.2,.73-1.37,2.83-.86,5.64-1.76,8.43-2.69,.59-.22,1.21,.11,1.4,.7,.19,.58-.12,1.2-.7,1.39-2.81,.94-5.64,1.84-8.49,2.71-.11,.03-.22,.05-.32,.05Zm-218.24-5.43c-.13,0-.25-.02-.38-.07-2.8-1-5.59-2.04-8.36-3.13-.57-.22-.85-.86-.63-1.44,.22-.56,.88-.85,1.43-.62,2.75,1.07,5.52,2.11,8.3,3.11,.57,.2,.87,.84,.67,1.41-.16,.46-.59,.73-1.04,.73Zm235.05-.19c-.45,0-.88-.28-1.04-.73-.21-.58,.09-1.21,.66-1.42,2.77-1.01,5.52-2.05,8.26-3.11,.55-.22,1.21,.06,1.43,.62,.22,.57-.06,1.22-.63,1.44-2.75,1.08-5.52,2.12-8.3,3.13-.13,.05-.26,.07-.38,.07Zm-251.63-6.26c-.14,0-.29-.03-.43-.09-2.75-1.15-5.47-2.34-8.18-3.56-.56-.25-.8-.91-.55-1.47,.24-.55,.9-.8,1.46-.55,2.69,1.22,5.4,2.39,8.13,3.54,.57,.23,.83,.88,.59,1.45-.18,.42-.59,.67-1.02,.67Zm268.11-.19c-.43,0-.84-.25-1.02-.68-.24-.56,.03-1.21,.59-1.44,2.71-1.14,5.41-2.32,8.09-3.54,.57-.23,1.21,0,1.47,.55,.26,.56,0,1.21-.55,1.47-2.7,1.22-5.42,2.41-8.15,3.55-.14,.06-.29,.09-.43,.09Zm-284.32-7.13c-.16,0-.32-.03-.48-.11-2.68-1.29-5.34-2.62-7.98-3.98-.54-.29-.76-.95-.48-1.5,.29-.55,.96-.73,1.49-.48,2.62,1.36,5.27,2.67,7.93,3.96,.55,.26,.78,.93,.52,1.48-.19,.39-.59,.62-1,.62Zm300.46-.17c-.41,0-.8-.23-.99-.62-.27-.55-.04-1.21,.51-1.48,2.65-1.29,5.29-2.6,7.9-3.95,.52-.27,1.21-.07,1.49,.48,.28,.54,.06,1.22-.48,1.5-2.63,1.35-5.28,2.68-7.95,3.97-.15,.08-.32,.11-.48,.11Zm-316.28-7.95c-.18,0-.36-.04-.53-.14-2.61-1.43-5.2-2.89-7.77-4.37-.53-.31-.7-.99-.4-1.51,.3-.54,.98-.7,1.51-.41,2.55,1.49,5.12,2.93,7.72,4.36,.54,.29,.73,.97,.44,1.5-.2,.36-.58,.57-.97,.57Zm332.03-.16c-.39,0-.77-.21-.97-.57-.29-.54-.1-1.21,.43-1.5,2.59-1.43,5.15-2.87,7.69-4.36,.52-.29,1.21-.13,1.51,.41,.31,.53,.13,1.2-.4,1.51-2.56,1.49-5.14,2.95-7.73,4.37-.17,.1-.35,.14-.54,.14Zm-347.4-8.78c-.2,0-.4-.05-.58-.16-2.53-1.56-5.05-3.16-7.53-4.78-.51-.33-.66-1.02-.32-1.53,.33-.52,1.03-.65,1.53-.32,2.47,1.61,4.96,3.2,7.48,4.75,.52,.32,.68,1,.36,1.52-.21,.34-.57,.53-.94,.53Zm362.71-.15c-.37,0-.73-.19-.94-.53-.32-.52-.16-1.2,.36-1.52,2.51-1.55,5-3.13,7.46-4.74,.51-.34,1.19-.2,1.53,.32,.34,.51,.19,1.19-.32,1.53-2.48,1.63-4.98,3.21-7.5,4.77-.18,.11-.38,.16-.58,.16Zm-377.59-9.56c-.22,0-.44-.06-.63-.2-2.45-1.68-4.87-3.4-7.28-5.15-.49-.36-.6-1.05-.24-1.55,.36-.48,1.05-.61,1.55-.24,2.39,1.74,4.79,3.44,7.22,5.12,.51,.35,.63,1.04,.29,1.54-.22,.32-.56,.48-.91,.48Zm392.44-.15c-.35,0-.7-.17-.91-.48-.35-.5-.22-1.19,.29-1.54,2.43-1.67,4.83-3.38,7.21-5.11,.49-.36,1.18-.26,1.55,.24,.36,.49,.25,1.18-.24,1.55-2.39,1.75-4.82,3.46-7.26,5.15-.19,.13-.41,.19-.63,.19Zm-406.8-10.31c-.24,0-.47-.07-.67-.23-2.36-1.81-4.69-3.65-6.99-5.52-.48-.38-.55-1.08-.16-1.56,.39-.48,1.09-.54,1.56-.16,2.29,1.86,4.61,3.68,6.95,5.48,.48,.37,.57,1.07,.2,1.55-.22,.29-.54,.43-.88,.43Zm421.13-.14c-.33,0-.66-.15-.88-.43-.37-.48-.28-1.18,.2-1.55,2.34-1.8,4.65-3.62,6.94-5.48,.47-.38,1.17-.32,1.56,.16,.38,.47,.31,1.17-.16,1.56-2.3,1.87-4.63,3.71-6.99,5.52-.2,.16-.44,.23-.67,.23Zm-434.94-11.03c-.26,0-.51-.09-.72-.26-2.26-1.93-4.49-3.88-6.71-5.87-.45-.41-.49-1.11-.08-1.56,.41-.45,1.11-.49,1.56-.08,2.2,1.97,4.42,3.92,6.66,5.83,.47,.4,.52,1.09,.13,1.56-.22,.26-.53,.39-.84,.39Zm448.72-.14c-.31,0-.62-.13-.84-.39-.39-.46-.34-1.16,.13-1.56,2.24-1.92,4.47-3.86,6.66-5.83,.45-.41,1.15-.38,1.56,.08,.41,.45,.37,1.15-.08,1.56-2.21,1.98-4.44,3.94-6.7,5.87-.21,.18-.46,.26-.72,.26Zm-461.93-11.73c-.27,0-.54-.1-.76-.3-2.16-2.04-4.29-4.11-6.4-6.2-.43-.43-.43-1.13,0-1.56,.43-.43,1.13-.43,1.56,0,2.09,2.08,4.21,4.13,6.35,6.16,.45,.42,.46,1.12,.04,1.56-.22,.23-.51,.35-.8,.35Zm475.13-.14c-.29,0-.59-.12-.8-.35-.42-.45-.4-1.15,.04-1.56,2.14-2.02,4.26-4.08,6.35-6.16,.44-.43,1.14-.43,1.56,0,.43,.44,.43,1.14,0,1.56-2.11,2.1-4.24,4.16-6.39,6.2-.22,.2-.49,.3-.76,.3Zm-487.72-12.39c-.29,0-.58-.12-.8-.34-2.05-2.15-4.07-4.32-6.07-6.52-.41-.45-.38-1.15,.08-1.56,.45-.42,1.15-.38,1.56,.08,1.98,2.18,3.99,4.34,6.03,6.48,.42,.44,.41,1.14-.03,1.56-.22,.2-.49,.31-.77,.31Zm500.3-.14c-.28,0-.55-.1-.77-.31-.44-.42-.46-1.12-.03-1.56,2.04-2.14,4.05-4.3,6.03-6.48,.42-.45,1.12-.48,1.56-.08,.45,.41,.49,1.11,.08,1.56-2,2.2-4.02,4.37-6.07,6.52-.22,.22-.51,.34-.8,.34Zm-512.23-13c-.31,0-.62-.13-.84-.38-1.94-2.24-3.85-4.52-5.72-6.81-.39-.47-.32-1.17,.16-1.56,.47-.39,1.16-.32,1.56,.16,1.87,2.28,3.76,4.53,5.69,6.77,.4,.46,.35,1.16-.12,1.56-.21,.18-.47,.27-.72,.27Zm524.16-.16c-.26,0-.51-.09-.72-.27-.46-.4-.51-1.1-.12-1.56,1.93-2.24,3.82-4.5,5.69-6.78,.39-.47,1.09-.54,1.56-.16,.48,.39,.54,1.09,.16,1.56-1.88,2.3-3.79,4.57-5.73,6.83-.22,.26-.53,.38-.84,.38Zm-535.4-13.58c-.33,0-.66-.15-.87-.43-1.82-2.34-3.61-4.71-5.37-7.1-.36-.49-.26-1.18,.23-1.55,.5-.35,1.18-.26,1.55,.23,1.75,2.37,3.53,4.73,5.34,7.06,.38,.48,.29,1.18-.19,1.55-.2,.16-.44,.23-.68,.23Zm546.64-.17c-.24,0-.48-.08-.68-.23-.48-.37-.57-1.07-.19-1.55,1.81-2.33,3.59-4.69,5.34-7.07,.36-.48,1.06-.6,1.55-.23,.49,.36,.6,1.05,.23,1.55-1.76,2.39-3.55,4.76-5.37,7.11-.22,.28-.54,.43-.87,.43Zm-557.17-14.11c-.35,0-.69-.16-.91-.48-1.69-2.43-3.36-4.89-5-7.36-.34-.51-.2-1.19,.31-1.53,.5-.34,1.2-.21,1.53,.31,1.63,2.46,3.29,4.9,4.97,7.32,.35,.5,.22,1.19-.28,1.54-.19,.13-.41,.2-.63,.2Zm567.7-.2c-.22,0-.44-.06-.63-.2-.5-.35-.63-1.04-.28-1.54,1.69-2.43,3.34-4.87,4.97-7.34,.33-.52,1.02-.64,1.53-.32,.51,.34,.65,1.02,.32,1.53-1.63,2.48-3.31,4.94-5,7.38-.21,.31-.56,.48-.91,.48Zm-577.48-14.6c-.37,0-.73-.19-.94-.52-1.57-2.52-3.11-5.05-4.62-7.61-.31-.53-.13-1.21,.39-1.52,.54-.3,1.21-.13,1.52,.39,1.49,2.54,3.02,5.06,4.58,7.56,.32,.52,.16,1.2-.35,1.53-.19,.11-.38,.17-.59,.17Zm587.26-.24c-.2,0-.4-.05-.58-.17-.52-.32-.68-1-.35-1.52,1.56-2.51,3.09-5.04,4.59-7.58,.31-.53,.99-.7,1.52-.39,.53,.31,.7,.99,.39,1.52-1.51,2.56-3.05,5.1-4.62,7.63-.21,.34-.57,.52-.94,.52Zm-596.26-15.04c-.39,0-.77-.2-.97-.57-1.44-2.59-2.84-5.2-4.22-7.83-.28-.54-.07-1.21,.47-1.5,.54-.28,1.21-.07,1.5,.47,1.37,2.62,2.76,5.21,4.19,7.79,.29,.53,.1,1.21-.43,1.5-.17,.1-.35,.14-.54,.14Zm605.27-.29c-.18,0-.37-.04-.54-.14-.54-.3-.73-.97-.43-1.5,1.43-2.58,2.83-5.18,4.2-7.81,.29-.54,.96-.74,1.49-.47,.54,.28,.75,.95,.47,1.49-1.37,2.64-2.78,5.26-4.22,7.86-.2,.36-.58,.57-.97,.57Zm-613.47-15.43c-.41,0-.8-.23-.99-.62-1.31-2.66-2.58-5.34-3.81-8.05-.26-.55,0-1.21,.55-1.47,.53-.26,1.21-.02,1.47,.55,1.23,2.68,2.49,5.34,3.79,7.99,.27,.55,.04,1.21-.51,1.48-.16,.08-.32,.11-.49,.11Zm621.69-.34c-.16,0-.33-.03-.48-.11-.55-.27-.78-.93-.51-1.48,1.3-2.65,2.56-5.33,3.79-8.01,.26-.56,.93-.8,1.47-.55,.56,.26,.8,.91,.55,1.47-1.24,2.71-2.51,5.4-3.81,8.07-.19,.39-.58,.62-.99,.62Zm7.39-16.19c-.15,0-.29-.03-.43-.09-.56-.24-.83-.89-.59-1.45,1.16-2.71,2.28-5.45,3.37-8.21,.22-.57,.85-.86,1.44-.62,.57,.22,.85,.87,.62,1.44-1.1,2.77-2.23,5.52-3.39,8.26-.18,.42-.59,.67-1.02,.67Zm6.55-16.54c-.13,0-.26-.02-.38-.07-.57-.21-.87-.84-.66-1.42,1.02-2.78,1.99-5.57,2.94-8.37,.2-.57,.84-.88,1.4-.7,.58,.19,.89,.83,.7,1.4-.95,2.82-1.94,5.63-2.96,8.43-.16,.45-.59,.73-1.04,.73Zm5.68-16.87c-.11,0-.22-.02-.32-.05-.58-.18-.91-.8-.73-1.38,.87-2.83,1.71-5.67,2.5-8.52,.17-.59,.78-.94,1.37-.77,.59,.16,.93,.78,.77,1.37-.8,2.87-1.65,5.73-2.52,8.57-.15,.48-.59,.78-1.06,.78Z"></path><path class="cls-3" d="M41.21,483.59c-.43,0-.84-.25-1.02-.67-.58-1.36-1.15-2.73-1.72-4.09-.23-.57,.04-1.21,.61-1.44,.56-.24,1.21,.04,1.44,.61,.55,1.36,1.12,2.71,1.7,4.06,.24,.56-.02,1.21-.58,1.45-.14,.06-.29,.09-.44,.09Z"></path></g><g><path class="cls-2" d="M288.09,432.6c1.83,0,3.57,.32,5.2,.98,1.63,.65,3.06,1.57,4.28,2.77,1.22,1.2,2.18,2.65,2.89,4.34,.7,1.7,1.06,3.6,1.06,5.7s-.35,4-1.06,5.7c-.7,1.7-1.66,3.16-2.89,4.38-1.22,1.22-2.65,2.16-4.28,2.83-1.63,.66-3.38,.99-5.24,.99s-3.57-.32-5.2-.98c-1.63-.65-3.06-1.57-4.28-2.77-1.22-1.2-2.18-2.64-2.89-4.34-.7-1.7-1.05-3.6-1.05-5.69s.35-4.01,1.05-5.72,1.66-3.17,2.89-4.38c1.22-1.21,2.65-2.14,4.28-2.81,1.63-.67,3.38-1,5.24-1Zm.67,26.02c2.2,0,3.91-.99,5.1-2.97,1.2-1.98,1.79-4.69,1.79-8.15,0-2.13-.21-4.01-.64-5.66-.42-1.65-1.02-3.03-1.77-4.14s-1.63-1.97-2.63-2.55-2.08-.88-3.25-.88c-2.18,0-3.87,.99-5.08,2.97-1.21,1.98-1.82,4.69-1.82,8.14,0,2.13,.22,4.01,.64,5.66,.42,1.65,1.02,3.03,1.77,4.15,.76,1.12,1.64,1.96,2.65,2.55,1.01,.59,2.08,.88,3.23,.88Z"></path><path class="cls-2" d="M314.62,460.29c-.9,0-1.84-.08-2.81-.25-.97-.17-1.85-.45-2.65-.86-.8-.4-1.46-.94-1.97-1.6-.52-.67-.78-1.49-.78-2.47,0-.53,.08-1.12,.24-1.77,.16-.65,.45-1.28,.88-1.89h.92c.05,.99,.23,1.92,.54,2.79,.31,.88,.73,1.64,1.28,2.29,.54,.65,1.21,1.16,2.01,1.53,.8,.37,1.69,.56,2.67,.56,.88,0,1.62-.13,2.23-.4,.61-.27,1.11-.61,1.5-1.04,.38-.43,.66-.91,.83-1.46s.26-1.09,.26-1.62c0-1.12-.31-2.04-.93-2.77-.63-.73-1.4-1.38-2.33-1.96-.93-.57-1.95-1.12-3.05-1.63-1.1-.52-2.12-1.12-3.05-1.79s-1.7-1.48-2.33-2.42c-.62-.93-.93-2.09-.93-3.47,0-1.14,.22-2.17,.67-3.09,.45-.92,1.1-1.7,1.93-2.36,.84-.65,1.85-1.15,3.03-1.5,1.18-.35,2.49-.52,3.93-.52s2.71,.11,3.84,.33c1.13,.22,2.04,.46,2.73,.72v6.08h-.92c-.45-1.99-1.18-3.4-2.17-4.22s-2.25-1.24-3.77-1.24c-.85,0-1.57,.11-2.15,.34-.58,.22-1.06,.52-1.43,.88-.38,.36-.64,.76-.8,1.2-.16,.44-.24,.88-.24,1.34,0,.96,.31,1.76,.94,2.41,.62,.65,1.4,1.25,2.33,1.8s1.95,1.09,3.05,1.63,2.12,1.18,3.05,1.92c.93,.73,1.7,1.6,2.33,2.62,.62,1.01,.93,2.27,.93,3.79,0,1.3-.24,2.45-.73,3.45-.49,1-1.18,1.84-2.05,2.53-.87,.69-1.91,1.22-3.11,1.58-1.19,.36-2.49,.54-3.9,.54Z"></path><path class="cls-2" d="M352.23,460.01c-.4-.51-.82-1-1.28-1.5-.45-.49-1.12-1.16-1.99-2.01l-15.22-15.22h-.08v14.42c0,.93,.23,1.66,.7,2.19,.46,.53,1.36,.83,2.69,.88v.92h-7.77v-.92c.9-.05,1.53-.35,1.89-.88,.36-.53,.54-1.26,.54-2.19v-18.52c0-1.2-.24-1.99-.72-2.39-.48-.4-1.3-.62-2.47-.68v-.92h5.02c.4,.59,.82,1.12,1.28,1.62,.45,.49,.97,1.02,1.55,1.57l15.38,15.22h.08v-14.42c0-.93-.22-1.66-.68-2.19-.45-.53-1.35-.82-2.71-.88v-.92h7.81v.92c-.9,.06-1.53,.35-1.89,.88s-.54,1.26-.54,2.19v20.66c0,.68,.03,1.4,.08,2.17h-1.67Z"></path><path class="cls-2" d="M373.67,432.6c1.83,0,3.57,.32,5.2,.98,1.63,.65,3.06,1.57,4.28,2.77,1.22,1.2,2.18,2.65,2.89,4.34,.7,1.7,1.06,3.6,1.06,5.7s-.35,4-1.06,5.7c-.7,1.7-1.66,3.16-2.89,4.38-1.22,1.22-2.65,2.16-4.28,2.83-1.63,.66-3.38,.99-5.24,.99s-3.57-.32-5.2-.98c-1.63-.65-3.06-1.57-4.28-2.77-1.22-1.2-2.18-2.64-2.89-4.34-.7-1.7-1.05-3.6-1.05-5.69s.35-4.01,1.05-5.72,1.66-3.17,2.89-4.38c1.22-1.21,2.65-2.14,4.28-2.81,1.63-.67,3.38-1,5.24-1Zm.67,26.02c2.2,0,3.91-.99,5.1-2.97,1.2-1.98,1.79-4.69,1.79-8.15,0-2.13-.21-4.01-.64-5.66-.42-1.65-1.02-3.03-1.77-4.14-.76-1.12-1.63-1.97-2.63-2.55s-2.08-.88-3.25-.88c-2.18,0-3.87,.99-5.08,2.97-1.21,1.98-1.82,4.69-1.82,8.14,0,2.13,.22,4.01,.64,5.66,.42,1.65,1.02,3.03,1.77,4.15s1.64,1.96,2.65,2.55c1.01,.59,2.08,.88,3.23,.88Z"></path><path class="cls-2" d="M400.08,460.01c-.16-.69-.3-1.27-.42-1.73-.12-.47-.33-1.04-.62-1.73l-7.49-19.36c-.26-.69-.5-1.23-.7-1.61s-.42-.68-.64-.9c-.22-.21-.47-.35-.73-.42-.27-.07-.58-.11-.96-.14v-.92h10.4v.92c-1.17,.06-1.85,.32-2.03,.8-.19,.48-.08,1.23,.32,2.27l5.7,15.1h.08l5.58-15.1c.35-.93,.32-1.66-.06-2.19-.38-.53-1.25-.82-2.61-.88v-.92h7.65v.92c-1.25,.11-2.22,1.13-2.91,3.07l-7.09,19.36c-.26,.72-.46,1.3-.58,1.75-.12,.45-.26,1.02-.42,1.72h-2.47Z"></path><path class="cls-2" d="M434.58,455.71c.27,.69,.51,1.24,.72,1.63s.43,.7,.66,.9,.48,.33,.76,.4c.28,.06,.62,.11,1.02,.14v.92h-10.48v-.92c1.2-.05,1.89-.32,2.09-.8,.2-.48,.11-1.24-.26-2.27l-2.11-5.85c-.13,.13-.33,.22-.6,.26-.27,.04-.54,.06-.84,.06h-4.78c-.56,0-.98,.07-1.28,.2-.29,.13-.54,.48-.76,1.04l-1.63,4.3c-.35,.93-.32,1.66,.06,2.19s1.27,.83,2.65,.88v.92h-7.65v-.92c.69-.05,1.25-.35,1.69-.88,.44-.53,.84-1.26,1.21-2.19l7.41-19.36c.29-.69,.55-1.37,.77-2.03,.22-.66,.43-1.34,.62-2.03h2.15c.19,.69,.39,1.37,.62,2.03,.22,.67,.48,1.34,.77,2.03l7.17,19.36Zm-9.12-7.13c.37,0,.62-.06,.73-.16,.12-.11,.11-.35-.02-.72l-2.99-7.97h-.08l-3.38,9c.13-.08,.29-.13,.48-.14,.19-.01,.4-.02,.64-.02h4.62Z"></path><path class="cls-2" d="M463.59,460.01c-.4-.51-.82-1-1.28-1.5-.45-.49-1.12-1.16-1.99-2.01l-15.22-15.22h-.08v14.42c0,.93,.23,1.66,.7,2.19,.46,.53,1.36,.83,2.69,.88v.92h-7.77v-.92c.9-.05,1.53-.35,1.89-.88s.54-1.26,.54-2.19v-18.52c0-1.2-.24-1.99-.72-2.39-.48-.4-1.3-.62-2.47-.68v-.92h5.02c.4,.59,.82,1.12,1.28,1.62,.45,.49,.97,1.02,1.55,1.57l15.38,15.22h.08v-14.42c0-.93-.22-1.66-.68-2.19-.45-.53-1.35-.82-2.71-.88v-.92h7.81v.92c-.9,.06-1.53,.35-1.89,.88s-.54,1.26-.54,2.19v20.66c0,.68,.03,1.4,.08,2.17h-1.67Z"></path><path class="cls-2" d="M485.03,432.6c1.83,0,3.57,.32,5.2,.98,1.63,.65,3.06,1.57,4.28,2.77,1.22,1.2,2.18,2.65,2.89,4.34s1.06,3.6,1.06,5.7-.35,4-1.06,5.7-1.66,3.16-2.89,4.38c-1.22,1.22-2.65,2.16-4.28,2.83-1.63,.66-3.38,.99-5.24,.99s-3.57-.32-5.2-.98c-1.63-.65-3.06-1.57-4.28-2.77-1.22-1.2-2.18-2.64-2.89-4.34-.7-1.7-1.05-3.6-1.05-5.69s.35-4.01,1.05-5.72c.7-1.71,1.66-3.17,2.89-4.38,1.22-1.21,2.65-2.14,4.28-2.81,1.63-.67,3.38-1,5.24-1Zm.67,26.02c2.2,0,3.91-.99,5.1-2.97,1.2-1.98,1.79-4.69,1.79-8.15,0-2.13-.21-4.01-.64-5.66-.42-1.65-1.02-3.03-1.77-4.14s-1.63-1.97-2.63-2.55-2.08-.88-3.25-.88c-2.18,0-3.87,.99-5.08,2.97-1.21,1.98-1.82,4.69-1.82,8.14,0,2.13,.22,4.01,.64,5.66,.42,1.65,1.02,3.03,1.77,4.15s1.64,1.96,2.65,2.55c1.01,.59,2.08,.88,3.23,.88Z"></path><path class="cls-2" d="M353.69,488.14l-.36,6.97h-18.65v-.92c.24-.1,.57-.29,.99-.56,.42-.26,.85-.57,1.28-.92,3.43-2.74,5.98-5.49,7.67-8.27,1.69-2.78,2.53-5.29,2.53-7.55,0-.61-.06-1.19-.2-1.73-.13-.54-.36-1.02-.67-1.41-.32-.4-.75-.71-1.28-.93-.53-.22-1.18-.34-1.95-.34-1.38,0-2.62,.37-3.7,1.1-1.09,.73-2.14,1.81-3.15,3.25l-.76-.64c1.06-2.55,2.36-4.45,3.9-5.69,1.54-1.25,3.48-1.88,5.81-1.88s4.02,.57,5.36,1.69,2.01,2.78,2.01,4.96c0,2.5-.84,4.98-2.53,7.45-1.69,2.47-4.35,5.08-7.99,7.85v.08h6.61c1.51,0,2.56-.23,3.13-.7,.57-.47,.91-1.07,1.02-1.82h.92Z"></path><path class="cls-2" d="M369.18,468.61c1.22,0,2.44,.26,3.67,.78,1.22,.52,2.32,1.32,3.31,2.41,.98,1.09,1.78,2.48,2.39,4.16,.61,1.69,.92,3.71,.92,6.07s-.3,4.41-.92,6.13c-.61,1.73-1.4,3.15-2.39,4.27-.99,1.12-2.09,1.94-3.33,2.47-1.24,.53-2.49,.8-3.77,.8s-2.45-.26-3.68-.77c-1.24-.52-2.34-1.32-3.31-2.41-.97-1.09-1.76-2.48-2.37-4.16-.61-1.69-.92-3.71-.92-6.08s.31-4.41,.92-6.13c.61-1.72,1.4-3.15,2.37-4.26,.97-1.12,2.08-1.94,3.32-2.47,1.25-.53,2.51-.8,3.79-.8Zm.08,25.42c.61,0,1.2-.19,1.77-.56s1.07-.99,1.5-1.87,.76-2.04,1.02-3.51c.25-1.46,.38-3.28,.38-5.46,0-3.96-.43-7-1.29-9.14-.86-2.14-2.09-3.21-3.69-3.21-.61,0-1.2,.19-1.77,.56-.57,.38-1.07,1-1.49,1.88-.43,.87-.77,2.04-1.02,3.51-.26,1.46-.38,3.28-.38,5.46,0,3.96,.43,7.01,1.3,9.14,.86,2.14,2.09,3.21,3.68,3.21Z"></path><path class="cls-2" d="M395.52,468.61c1.22,0,2.44,.26,3.67,.78,1.22,.52,2.32,1.32,3.31,2.41,.98,1.09,1.78,2.48,2.39,4.16,.61,1.69,.92,3.71,.92,6.07s-.3,4.41-.92,6.13c-.61,1.73-1.4,3.15-2.39,4.27-.99,1.12-2.09,1.94-3.33,2.47-1.24,.53-2.49,.8-3.77,.8s-2.45-.26-3.68-.77c-1.24-.52-2.34-1.32-3.31-2.41-.97-1.09-1.76-2.48-2.37-4.16-.61-1.69-.92-3.71-.92-6.08s.31-4.41,.92-6.13c.61-1.72,1.4-3.15,2.37-4.26,.97-1.12,2.08-1.94,3.32-2.47,1.25-.53,2.51-.8,3.79-.8Zm.08,25.42c.61,0,1.2-.19,1.77-.56s1.07-.99,1.5-1.87,.76-2.04,1.02-3.51c.25-1.46,.38-3.28,.38-5.46,0-3.96-.43-7-1.29-9.14-.86-2.14-2.09-3.21-3.69-3.21-.61,0-1.2,.19-1.77,.56-.57,.38-1.07,1-1.49,1.88-.43,.87-.77,2.04-1.02,3.51-.26,1.46-.38,3.28-.38,5.46,0,3.96,.43,7.01,1.3,9.14,.86,2.14,2.09,3.21,3.68,3.21Z"></path><path class="cls-2" d="M428.31,488.14l-.36,6.97h-18.65v-.92c.24-.1,.57-.29,.99-.56,.42-.26,.85-.57,1.28-.92,3.43-2.74,5.98-5.49,7.67-8.27,1.69-2.78,2.53-5.29,2.53-7.55,0-.61-.06-1.19-.2-1.73-.13-.54-.36-1.02-.67-1.41-.32-.4-.75-.71-1.28-.93-.53-.22-1.18-.34-1.95-.34-1.38,0-2.62,.37-3.7,1.1-1.09,.73-2.14,1.81-3.15,3.25l-.76-.64c1.06-2.55,2.36-4.45,3.9-5.69,1.54-1.25,3.48-1.88,5.81-1.88s4.02,.57,5.36,1.69c1.34,1.13,2.01,2.78,2.01,4.96,0,2.5-.84,4.98-2.53,7.45-1.69,2.47-4.35,5.08-7.99,7.85v.08h6.61c1.51,0,2.56-.23,3.13-.7,.57-.47,.91-1.07,1.02-1.82h.92Z"></path><path class="cls-2" d="M434.84,495.71c-.82,0-1.51-.29-2.07-.86-.56-.57-.84-1.24-.84-2.01s.28-1.48,.84-2.05,1.25-.86,2.07-.86,1.47,.29,2.03,.86,.84,1.25,.84,2.05-.28,1.44-.84,2.01c-.56,.57-1.24,.86-2.03,.86Z"></path></g><g><path class="cls-3" d="M458.75,374.81c-1.14,3.59-2.9,6.73-5.26,9.42-2.37,2.69-5.46,4.81-9.29,6.36-3.83,1.55-8.6,2.32-14.31,2.32h-10.5c-7.34,0-12.28-.89-14.8-2.69-2.53-1.79-3.79-5.79-3.79-11.98v-113.74c0-4.07,.24-7.34,.73-9.78,.49-2.45,1.35-4.32,2.57-5.63,1.22-1.3,2.77-2.16,4.65-2.56,1.87-.41,4.2-.69,6.97-.86v-5.62h-66.29v5.62c3.91,.17,7.13,.45,9.66,.86,2.53,.41,4.53,1.26,5.99,2.56,1.47,1.31,2.49,3.18,3.06,5.63,.57,2.45,.86,5.71,.86,9.78v113.74c0,4.08-.29,7.34-.86,9.78-.57,2.45-1.43,4.32-2.57,5.62-1.14,1.31-2.65,2.17-4.53,2.57-1.88,.41-4.2,.7-6.97,.86v5.62h110.54l1.95-39.38h-5.62c-.33,4.08-1.07,7.91-2.21,11.49Z"></path><path class="cls-3" d="M590.33,374.81c-1.14,3.59-2.9,6.73-5.26,9.42-2.37,2.69-5.47,4.81-9.3,6.36-3.83,1.55-8.6,2.32-14.31,2.32h-18.59c-7.34,0-12.27-.89-14.8-2.69-2.53-1.79-3.79-5.79-3.79-11.98v-113.74c0-4.07,.25-7.34,.74-9.78,.49-2.45,1.35-4.32,2.57-5.63,1.22-1.3,2.77-2.16,4.65-2.56,1.87-.41,4.19-.69,6.97-.86v-5.62h-66.28v5.62c3.91,.17,7.13,.45,9.66,.86,2.52,.41,4.52,1.26,5.99,2.56,1.47,1.31,2.49,3.18,3.06,5.63,.57,2.45,.85,5.71,.85,9.78v113.74c0,4.08-.28,7.34-.85,9.78-.57,2.45-1.43,4.32-2.57,5.62-1.14,1.31-2.65,2.17-4.53,2.57-1.88,.41-4.2,.7-6.97,.86v5.62h118.63l1.95-39.38h-5.62c-.33,4.08-1.07,7.91-2.2,11.49Z"></path><path class="cls-3" d="M712.64,396.21c-1.71-.4-3.26-1.22-4.65-2.45-1.38-1.22-2.73-3.05-4.04-5.5-1.31-2.45-2.78-5.79-4.4-10.03l-44.03-118.88c-1.79-4.24-3.38-8.39-4.77-12.47-1.39-4.07-2.65-8.23-3.79-12.47h-13.21c-1.14,4.24-2.41,8.4-3.79,12.47-1.39,4.08-2.98,8.24-4.77,12.47l-28.67,74.9h-54.91v9.93h51.11l-.02,.04h28.71s22.61,0,22.61,0c.46,0,.89-.03,1.34-.05h8.15l12.28,34.05c2.28,6.36,2.81,11.01,1.59,13.94-1.22,2.94-5.51,4.57-12.84,4.9v5.62h64.33v-5.62c-2.45-.16-4.52-.45-6.24-.86Zm-83.52-116.06h.49l18.34,48.92c.82,2.29,.86,3.75,.12,4.41-.41,.37-1.08,.63-1.98,.79h-37.33l20.36-54.11Z"></path><path class="cls-3" d="M283.82,259.36c-1.79-4.24-3.38-8.39-4.77-12.47-1.38-4.07-2.65-8.23-3.79-12.47h-13.21c-1.14,4.24-2.41,8.4-3.79,12.47-1.39,4.08-2.98,8.24-4.77,12.47l-28.67,74.9h-92.25v1.12h-.09v7.75s.06,0,.09,0v1.05h12.62c.98,.14,1.93,.3,2.8,.47,4.05,.79,7.25,2.49,9.61,5.08,2.36,2.59,3.99,6.43,4.89,11.5,.9,5.08,1.35,20.45,1.35,29.47s-.28,23.72-.84,29.24c-.56,5.52-1.74,9.87-3.54,13.03-3.6,7-8.99,11.67-16.18,14.05-7.19,2.37-14.5,3.55-21.91,3.55-10.57,0-20.29-2.64-29.16-7.93-8.88-5.29-16.47-12.72-22.76-22.29-6.29-9.57-11.18-21.16-14.67-34.78-3.49-13.62-5.23-28.75-5.23-45.42,0-31.75,6.57-55.72,19.72-71.93,13.15-16.21,31.63-24.32,55.46-24.32,6.74,0,13.37,.79,19.89,2.36,6.52,1.57,12.53,4.21,18.04,7.92,5.51,3.71,10.45,8.77,14.83,15.17,4.38,6.4,7.7,14.55,9.95,24.44h7.75v-51.58c-8.32-3.37-18.66-6.29-31.02-8.77-12.36-2.47-24.61-3.71-36.75-3.71-17.31,0-33.66,2.7-49.05,8.09-15.4,5.39-28.94,13.21-40.62,23.43-11.69,10.23-20.9,22.82-27.64,37.76-6.74,14.95-10.12,31.97-10.12,51.07,0,17.08,2.92,32.65,8.77,46.7,5.84,14.05,13.88,26.02,24.11,35.91,10.23,9.89,22.19,17.59,35.91,23.09,13.71,5.51,28.43,8.26,44.16,8.26,12.14,0,23.37-1.29,33.71-3.88,10.34-2.58,19.55-5.73,27.65-9.44,8.09-3.71,15-7.58,20.73-11.63,5.73-4.05,9.95-7.42,12.64-10.12-1.35-5.84-2.14-11.46-2.36-16.86-.23-5.39-.34-19.22-.34-25.29v-27.87c0-5.39,.67-9.27,2.02-11.63,.79-1.39,2.03-2.44,3.67-3.16h10.36l-.02,.04h28.71s22.61,0,22.61,0c.46,0,.89-.03,1.34-.05h8.15l12.28,34.05c2.28,6.36,2.81,11.01,1.59,13.94-1.22,2.94-5.51,4.57-12.84,4.9v5.62h64.33v-5.62c-2.45-.16-4.52-.45-6.24-.86-1.71-.4-3.26-1.22-4.65-2.45-1.38-1.22-2.73-3.05-4.04-5.5-1.31-2.45-2.77-5.79-4.4-10.03l-12.61-34.05h36.48v-9.93h-40.16l-27.74-74.9Zm-26.41,20.79h.49l18.34,48.92c.82,2.29,.86,3.75,.12,4.41-.41,.37-1.08,.63-1.98,.79h-37.33l20.35-54.11Z"></path><rect class="cls-3" x="417.85" y="334.26" width="58.76" height="9.93"></rect></g><g><path class="cls-1" d="M178.72,155.72c-2.11,2.02-4.44,3.54-6.99,4.56-2.56,1.02-5.14,1.53-7.8,1.51-2.65-.02-5.27-.59-7.85-1.73s-4.98-2.86-7.18-5.15c-2.45-2.57-4.18-5.29-5.2-8.17-1.01-2.88-1.39-5.75-1.13-8.63,.25-2.88,1.07-5.67,2.45-8.37,1.37-2.7,3.24-5.16,5.57-7.39,1.63-1.56,3.43-2.97,5.41-4.23,1.98-1.25,3.74-2.18,5.3-2.8l6.62,6.93-1.05,1c-1.57-1.04-3.05-1.71-4.47-2.01-1.42-.29-2.72-.33-3.95-.13-1.21,.21-2.36,.63-3.45,1.25-1.07,.63-2.07,1.37-2.97,2.24-3.2,3.06-4.64,6.52-4.33,10.39,.31,3.87,2.52,7.94,6.59,12.21,2.15,2.24,4.32,4.06,6.55,5.44,2.21,1.38,4.36,2.31,6.44,2.79,2.07,.48,4.06,.5,5.92,.07,1.88-.43,3.52-1.32,4.95-2.68,.99-.96,1.82-2.05,2.49-3.29,.66-1.25,.79-2.57,.37-3.98-.16-.65-.57-1.39-1.2-2.2-.63-.81-1.5-1.8-2.61-2.95-1.15-1.21-2.13-2.11-2.89-2.67-.78-.57-1.5-.88-2.14-.92-.64-.04-1.3,.13-1.95,.55-.65,.42-1.4,1.01-2.28,1.79l-.99-1.04,11.07-10.57,.99,1.04c-.46,.55-.62,1.08-.51,1.56,.13,.49,.54,1.1,1.23,1.83l2.52,2.63c.78,.82,1.53,1.58,2.25,2.27,.73,.7,1.56,1.36,2.48,1.97-.02,.71-.16,1.7-.41,2.98-.24,1.28-.67,2.69-1.29,4.23-.61,1.53-1.44,3.14-2.5,4.82-1.06,1.68-2.4,3.29-4.05,4.85Z"></path><path class="cls-1" d="M212.49,128.65c-3.34,2.14-6.45,2.81-9.33,2.01s-5.28-2.73-7.23-5.75l-13.12-20.43c-.55-.88-1.07-1.54-1.54-1.99-.46-.45-.93-.72-1.4-.81-.48-.09-1-.01-1.57,.22-.57,.24-1.27,.6-2.1,1.08l-.79-1.21,14.1-9.05,.77,1.22c-.56,.42-1.04,.8-1.38,1.15-.35,.34-.56,.74-.65,1.19-.08,.45,0,.98,.23,1.57,.22,.59,.63,1.34,1.18,2.21l12.61,19.63c1.2,1.87,2.54,3.13,4.06,3.81,1.5,.67,3.25,.37,5.26-.92,1.51-.97,2.68-2.22,3.52-3.75s1.33-3.19,1.52-5c.18-1.81,.03-3.67-.47-5.59-.48-1.92-1.3-3.76-2.42-5.52l-8.23-12.82c-.56-.88-1.07-1.54-1.54-1.99-.46-.44-.94-.71-1.44-.79s-1.04,0-1.62,.26c-.59,.25-1.31,.63-2.18,1.13l-.78-1.21,13.98-8.98,.78,1.21c-.57,.42-1.04,.8-1.38,1.15-.35,.35-.56,.75-.65,1.2-.08,.45,0,.97,.22,1.56,.23,.6,.64,1.34,1.19,2.21l15.97,24.85c.51,.81,.99,1.41,1.41,1.81,.43,.4,.87,.64,1.32,.72s.95,.01,1.5-.22c.54-.22,1.19-.56,1.96-1l.78,1.21-9.4,6.03c-.56-.43-1.16-1.01-1.77-1.72-.62-.73-1.37-1.78-2.25-3.15l-2.84-4.43-.1,.07c.92,4.13,.91,7.78,0,10.95-.92,3.17-2.98,5.78-6.18,7.84Z"></path><path class="cls-1" d="M277.99,95.83c-1.28,.51-2.45,.81-3.52,.9-1.07,.1-2.08,.03-3.01-.18-.94-.21-1.83-.53-2.69-.98-.86-.44-1.69-.93-2.49-1.47l-15.15-9.59c-.67-.45-1.19-.7-1.55-.76s-.77-.02-1.2,.11l-.78-1.92c1.79-.71,3.24-1.53,4.36-2.46,1.12-.92,1.94-1.9,2.47-2.92,.54-1.03,.8-2.08,.78-3.18,0-1.11-.23-2.2-.67-3.29-.51-1.28-1.17-2.27-1.96-3-.78-.72-1.63-1.22-2.55-1.51-.93-.28-1.88-.36-2.89-.26-.99,.11-1.95,.35-2.88,.73-1.37,.54-2.24,1.15-2.64,1.84-.41,.68-.29,1.83,.37,3.46l10.89,27.05c.38,.97,.76,1.72,1.14,2.25,.36,.52,.79,.88,1.26,1.04,.47,.17,1.03,.19,1.67,.04,.64-.15,1.44-.39,2.38-.72l.54,1.34-15.76,6.34-.54-1.34c.65-.3,1.17-.59,1.57-.87s.7-.63,.86-1.05c.17-.43,.19-.96,.08-1.59-.12-.63-.37-1.43-.76-2.39l-10.88-27.05c-.4-.98-.77-1.72-1.14-2.25s-.79-.87-1.26-1.04c-.48-.17-1.04-.18-1.68-.04s-1.43,.38-2.38,.72l-.54-1.33,4.65-1.87c2.84-1.14,5.24-2.17,7.24-3.08,2.01-.92,3.76-1.68,5.27-2.29,2.64-1.06,4.95-1.74,6.94-2.05,2-.3,3.73-.32,5.2-.03,1.47,.29,2.67,.84,3.61,1.66,.93,.82,1.65,1.85,2.16,3.1,.48,1.2,.7,2.42,.66,3.65-.05,1.23-.32,2.41-.81,3.53-.49,1.12-1.18,2.19-2.06,3.19-.87,1.01-1.9,1.88-3.04,2.61l.04,.12,16.63,10.76c2.1,1.31,3.72,2.11,4.85,2.38,1.12,.27,2.15,.2,3.13-.18l.54,1.33c-.61,.52-1.31,.99-2.11,1.42-.79,.44-1.58,.81-2.35,1.12Z"></path><path class="cls-1" d="M310.07,87.97c-.5-.89-1.07-1.78-1.73-2.69-.64-.9-1.5-2.13-2.58-3.68l-15.68-22.44-.12,.02,3.18,24.91c.18,1.46,.69,2.53,1.56,3.23,.86,.7,2.38,.89,4.52,.6l.26,1.43-12.1,2.14-.25-1.42c1.34-.32,2.21-.94,2.59-1.87,.4-.91,.51-2.1,.34-3.55l-3.72-28.95c-.15-1.08-.34-1.91-.57-2.48-.23-.58-.55-.99-.99-1.23-.42-.24-.95-.36-1.59-.36-.62,0-1.44,.06-2.46,.15l-.24-1.42,12.16-2.15c.52,1.02,1.06,1.96,1.62,2.83,.55,.88,1.24,1.84,2.01,2.9l15.67,22.32,.11-.02,6.21-26.18c.58-2.27,.93-4.46,1.07-6.56l11.79-2.09,.25,1.43c-.7,.16-1.27,.34-1.76,.53-.48,.19-.85,.46-1.1,.83-.25,.37-.38,.87-.4,1.51,0,.64,.09,1.49,.32,2.55l6.37,28.48c.22,1.02,.48,1.83,.75,2.42,.27,.59,.61,1.01,1.01,1.25,.4,.24,.91,.38,1.54,.4,.61,.02,1.36-.03,2.24-.14l.24,1.42-16.31,2.88-.24-1.42c.69-.17,1.26-.35,1.72-.56,.44-.21,.8-.49,1.02-.85,.24-.36,.35-.86,.34-1.5,0-.63-.12-1.46-.34-2.48l-5.7-25.74-.12,.03-6.7,27.67c-.44,1.86-.75,3.31-.95,4.34-.2,1.04-.35,2.04-.42,3.03l-2.84,.5Z"></path><path class="cls-1" d="M382.12,77.14c.4,1.1,.74,1.97,1.06,2.6,.31,.64,.65,1.12,.99,1.44,.35,.32,.74,.54,1.18,.66,.43,.12,.97,.21,1.6,.27l-.05,1.44-16.48-.48,.03-1.44c1.88-.03,3-.41,3.33-1.16,.34-.74,.23-1.94-.3-3.59l-3.06-9.3c-.22,.2-.53,.33-.94,.38-.42,.05-.86,.07-1.32,.06l-7.52-.22c-.87-.02-1.56,.06-2.01,.26-.48,.19-.87,.73-1.25,1.6l-2.77,6.69c-.58,1.45-.58,2.6,0,3.45,.58,.86,1.95,1.36,4.12,1.5l-.04,1.44-12.03-.35,.03-1.44c1.1-.05,2-.48,2.71-1.3,.72-.81,1.37-1.95,2.01-3.39l12.54-30.12c.49-1.08,.93-2.13,1.31-3.16,.38-1.04,.74-2.1,1.06-3.17l3.38,.1c.27,1.1,.55,2.17,.89,3.22,.32,1.06,.7,2.14,1.12,3.24l10.4,30.78Zm-14.02-11.64c.59,.02,.97-.05,1.17-.21,.19-.16,.18-.54,0-1.13l-4.33-12.67h-.13s-5.73,14.01-5.73,14.01c.21-.12,.46-.18,.75-.2,.29,0,.63-.01,1.01,0l7.27,.21Z"></path><path class="cls-1" d="M429.9,92.53c-.44-.91-.93-1.82-1.47-2.72-.54-.9-1.33-2.16-2.4-3.75l-18.39-28.44-.13-.03-4.76,22.2c-.3,1.43-.19,2.63,.35,3.6,.54,.98,1.82,1.72,3.85,2.24l-.3,1.41-11.95-2.56,.3-1.41c1.4,.21,2.47-.03,3.2-.73,.73-.7,1.25-1.77,1.54-3.19l6.11-28.51c.4-1.84,.29-3.14-.3-3.92-.61-.77-1.8-1.38-3.58-1.85l.29-1.41,7.73,1.66c.43,1.03,.9,2,1.44,2.91,.53,.9,1.16,1.88,1.87,2.93l18.64,28.49,.13,.03,4.75-22.19c.31-1.43,.21-2.63-.3-3.6-.53-.96-1.82-1.71-3.89-2.24l.3-1.41,12.02,2.58-.29,1.41c-1.42-.22-2.49,.02-3.2,.73-.73,.7-1.25,1.76-1.56,3.19l-6.1,28.51c-.24,1.15-.48,2.24-.71,3.28-.22,1.04-.42,2.16-.59,3.37l-2.58-.55Z"></path><path class="cls-1" d="M457.01,102.57c-1.31-.53-2.64-1.21-3.96-2.02-1.31-.82-2.43-1.75-3.35-2.81-.93-1.06-1.57-2.22-1.95-3.49-.35-1.28-.25-2.63,.32-4.07,.31-.77,.78-1.59,1.4-2.44,.61-.86,1.41-1.61,2.39-2.25l1.34,.53c-.49,1.47-.78,2.93-.86,4.39-.07,1.46,.1,2.83,.51,4.1,.42,1.27,1.1,2.4,2.03,3.42,.95,1.01,2.14,1.8,3.58,2.38,1.28,.51,2.43,.76,3.49,.73,1.05-.03,1.98-.24,2.78-.64,.82-.39,1.51-.94,2.08-1.64,.57-.69,1.01-1.43,1.33-2.2,.65-1.63,.73-3.16,.26-4.6-.48-1.43-1.23-2.84-2.25-4.22-1.04-1.38-2.19-2.78-3.49-4.18-1.3-1.4-2.44-2.88-3.4-4.41-.95-1.54-1.61-3.17-1.98-4.9-.36-1.72-.13-3.6,.67-5.62,.68-1.67,1.61-3.04,2.82-4.12,1.2-1.07,2.59-1.84,4.2-2.3,1.61-.46,3.37-.59,5.3-.4,1.93,.19,3.94,.71,6.03,1.55,2.1,.85,3.91,1.76,5.41,2.75,1.53,.99,2.71,1.87,3.58,2.65l-3.59,8.88-1.32-.54c.5-3.17,.27-5.65-.7-7.44-.97-1.79-2.56-3.13-4.77-4.02-1.24-.5-2.34-.76-3.33-.77-.99,0-1.86,.13-2.61,.44-.75,.3-1.37,.73-1.87,1.28s-.87,1.15-1.14,1.81c-.56,1.4-.58,2.75-.05,4.08,.53,1.31,1.31,2.65,2.35,3.99,1.03,1.34,2.2,2.73,3.48,4.18,1.28,1.44,2.39,2.97,3.32,4.59,.93,1.62,1.55,3.34,1.86,5.19,.32,1.84,.04,3.87-.86,6.08-.77,1.9-1.81,3.44-3.11,4.6-1.31,1.16-2.79,2-4.48,2.49-1.69,.5-3.51,.65-5.46,.48-1.95-.18-3.97-.68-6.02-1.51Z"></path><path class="cls-1" d="M512.28,131.72c-1.17-.72-2.1-1.49-2.83-2.29-.7-.8-1.25-1.65-1.67-2.54-.41-.89-.68-1.81-.84-2.76-.15-.95-.27-1.92-.35-2.91l-1.26-18.3c-.07-.83-.18-1.41-.32-1.75-.15-.32-.35-.58-.63-.76-.33-.19-.68-.24-1.06-.13-.38,.1-.78,.48-1.17,1.12l-7.1,11.53c-.54,.89-.93,1.64-1.13,2.25-.2,.61-.22,1.16-.09,1.64,.15,.48,.48,.93,.97,1.37,.49,.42,1.16,.93,1.99,1.48l-.75,1.23-14.48-8.91,.76-1.22c.62,.33,1.18,.59,1.64,.75,.46,.16,.93,.19,1.36,.06,.45-.12,.88-.41,1.31-.88,.44-.47,.93-1.15,1.48-2.04l15.29-24.83c.54-.89,.92-1.64,1.12-2.25,.21-.62,.23-1.16,.1-1.64-.16-.48-.48-.94-.97-1.37-.49-.43-1.17-.93-2-1.49l.76-1.22,14.46,8.91-.75,1.23c-.62-.34-1.18-.59-1.64-.76-.46-.16-.92-.18-1.36-.06s-.87,.42-1.31,.88c-.45,.47-.94,1.15-1.49,2.04l-5.84,9.51,.1,.06,17.7-2.44c1.06-.13,1.85-.29,2.37-.49,.51-.2,.88-.48,1.11-.83,.28-.47,.25-.94-.05-1.43-.32-.49-.99-1.11-2.06-1.86l.75-1.23,11.75,7.23-.75,1.23c-1.16-.52-2.33-.79-3.53-.8-1.18-.02-2.59,.08-4.2,.32l-13.11,1.8c-.8,.1-1.17,.69-1.09,1.76l1.38,23.97c.16,2.45,.45,4.21,.91,5.27,.45,1.06,1.12,1.87,2.01,2.42l-.76,1.23c-.73-.16-1.52-.44-2.35-.83-.85-.39-1.64-.82-2.39-1.28Z"></path><path class="cls-1" d="M550.13,154.75c-.42,1.09-.71,1.98-.87,2.67-.16,.69-.22,1.27-.16,1.74s.22,.89,.48,1.26c.26,.37,.61,.78,1.05,1.22l-.96,1.08-12.33-10.95,.96-1.08c1.46,1.18,2.56,1.6,3.29,1.25,.73-.36,1.43-1.34,2.08-2.94l3.63-9.1c-.3,.02-.63-.09-.98-.32-.35-.23-.7-.5-1.05-.8l-5.63-5c-.65-.58-1.22-.95-1.7-1.09-.49-.16-1.14-.01-1.98,.42l-6.42,3.36c-1.37,.73-2.12,1.61-2.22,2.64-.1,1.02,.63,2.29,2.2,3.8l-.97,1.08-8.99-8,.96-1.07c.86,.66,1.83,.9,2.91,.73s2.31-.6,3.72-1.31l28.96-15.04c1.06-.51,2.08-1.04,3.03-1.58,.96-.55,1.9-1.13,2.84-1.75l2.53,2.25c-.5,1.01-.97,2.02-1.4,3.04-.43,1.02-.82,2.09-1.2,3.21l-11.79,30.28Zm-3.29-17.93c.43,.39,.78,.58,1.03,.58,.26,0,.5-.29,.73-.86l4.82-12.5-.1-.09-13.39,7.06c.23,.04,.47,.16,.71,.34,.22,.18,.48,.39,.77,.64l5.44,4.83Z"></path></g><g><path class="cls-1" d="M231.42,579.19l-5.24,8.2-1.17-.74c.49-.99,.87-1.91,1.13-2.79,.28-.87,.36-1.74,.25-2.57-.12-.84-.45-1.65-1.02-2.45-.58-.8-1.44-1.56-2.59-2.3l-3.56-2.27-17.07,26.75c-.54,.86-.93,1.57-1.12,2.15-.22,.59-.25,1.12-.11,1.58,.12,.47,.42,.91,.91,1.33,.46,.42,1.1,.91,1.9,1.46l-.75,1.18-13.82-8.82,.75-1.17c.6,.34,1.12,.58,1.56,.75,.45,.16,.89,.19,1.31,.08,.44-.11,.86-.39,1.29-.83,.43-.44,.92-1.09,1.46-1.95l17.07-26.74-3.62-2.32c-1.12-.72-2.16-1.16-3.12-1.34s-1.84-.15-2.65,.1c-.81,.24-1.56,.67-2.25,1.28-.71,.61-1.37,1.35-2.04,2.22l-1.17-.74,5.24-8.21,28.43,18.15Z"></path><path class="cls-1" d="M256.34,635.03c-1.23-.51-2.24-1.11-3.02-1.76-.8-.66-1.44-1.39-1.94-2.17-.51-.78-.89-1.61-1.18-2.5-.28-.88-.51-1.78-.7-2.69l-3.85-16.84c-.15-.77-.33-1.3-.54-1.57-.21-.29-.51-.54-.9-.74l.77-1.84c1.71,.72,3.26,1.15,4.65,1.27,1.39,.13,2.62,.02,3.68-.31,1.06-.35,1.95-.89,2.7-1.65,.73-.77,1.32-1.66,1.76-2.7,.51-1.23,.75-2.35,.7-3.38-.06-1.03-.29-1.95-.73-2.78-.45-.82-1.04-1.53-1.79-2.13-.75-.61-1.57-1.09-2.47-1.47-1.29-.54-2.32-.73-3.05-.54-.73,.19-1.44,1.06-2.09,2.63l-10.93,25.9c-.4,.93-.65,1.69-.75,2.31-.1,.61-.06,1.13,.15,1.57,.21,.44,.58,.82,1.12,1.16,.54,.34,1.24,.72,2.12,1.12l-.54,1.29-15.1-6.38,.55-1.28c.64,.23,1.2,.39,1.67,.48,.46,.08,.9,.03,1.3-.15,.41-.17,.77-.52,1.13-1.03,.35-.51,.71-1.24,1.1-2.16l10.93-25.9c.4-.93,.65-1.69,.76-2.31,.1-.61,.05-1.13-.16-1.57-.2-.43-.57-.82-1.11-1.16s-1.24-.71-2.13-1.12l.55-1.28,4.45,1.88c2.71,1.15,5.06,2.08,7.05,2.81,1.99,.73,3.7,1.4,5.16,2.01,2.52,1.06,4.57,2.18,6.15,3.31,1.57,1.16,2.76,2.32,3.57,3.52,.8,1.19,1.25,2.39,1.34,3.59,.08,1.19-.12,2.38-.62,3.56-.48,1.16-1.16,2.14-2.04,2.96-.86,.81-1.85,1.44-2.95,1.87-1.11,.43-2.3,.69-3.58,.78-1.28,.1-2.57,0-3.85-.28l-.05,.11,4.08,18.65c.54,2.33,1.1,3.97,1.69,4.91,.58,.95,1.34,1.62,2.26,2.01l-.54,1.28c-.77-.06-1.56-.22-2.4-.46-.83-.25-1.63-.52-2.37-.84Z"></path><path class="cls-1" d="M305.01,641.04c.15,1.12,.32,2.01,.49,2.66,.17,.67,.39,1.18,.66,1.56,.27,.37,.58,.66,.98,.85,.38,.2,.86,.38,1.44,.56l-.31,1.36-15.47-3.64,.32-1.36c1.79,.34,2.9,.18,3.37-.45,.45-.64,.59-1.79,.4-3.44l-1.09-9.39c-.24,.16-.57,.21-.97,.18-.41-.03-.83-.1-1.26-.21l-7.06-1.66c-.82-.2-1.48-.25-1.95-.15-.48,.1-.97,.52-1.48,1.26l-3.9,5.78c-.84,1.26-1.06,2.34-.68,3.26,.39,.93,1.58,1.66,3.61,2.21l-.32,1.36-11.3-2.65,.33-1.36c1.03,.16,1.97-.07,2.8-.71,.83-.62,1.68-1.56,2.55-2.81l17.67-26.02c.67-.92,1.29-1.82,1.85-2.72,.57-.91,1.11-1.83,1.62-2.78l3.17,.74c.04,1.08,.11,2.15,.21,3.21,.1,1.06,.24,2.15,.44,3.28l3.87,31.08Zm-11-13.69c.55,.12,.93,.13,1.15,.02,.21-.11,.28-.48,.21-1.06l-1.65-12.8-.12-.03-8.13,12.12c.23-.07,.48-.08,.76-.03,.28,.04,.59,.11,.95,.19l6.82,1.61Z"></path><path class="cls-1" d="M323.71,648.87c.68,0,1.26-.04,1.72-.12,.48-.07,.86-.26,1.15-.58,.3-.3,.53-.75,.71-1.35,.17-.6,.28-1.4,.34-2.4l1.5-28.07c.05-1,.02-1.81-.09-2.42-.11-.61-.34-1.08-.67-1.43-.35-.34-.83-.58-1.45-.72-.61-.13-1.42-.24-2.38-.34l.07-1.38,4.83,.26c2.42,.12,4.74,.2,6.98,.22,2.24,.02,4.38,.08,6.44,.19,3.38,.18,6.45,.72,9.2,1.61,2.75,.89,5.11,2.17,7.03,3.82,1.93,1.66,3.39,3.73,4.37,6.2,.97,2.47,1.38,5.38,1.2,8.72-.19,3.54-1,6.61-2.46,9.22-1.45,2.6-3.29,4.74-5.49,6.4-2.21,1.65-4.67,2.86-7.4,3.61s-5.47,1.04-8.25,.89l-17.44-.93,.08-1.38Zm15.99-.18c2.61,.14,4.88-.18,6.83-.97,1.93-.78,3.57-1.94,4.9-3.46,1.33-1.52,2.34-3.37,3.05-5.53,.69-2.16,1.12-4.57,1.26-7.22,.17-3.14-.04-5.84-.63-8.11-.58-2.27-1.48-4.15-2.69-5.65-1.22-1.5-2.7-2.61-4.46-3.35-1.76-.73-3.72-1.16-5.89-1.28-1.86-.1-3.15,.07-3.87,.49-.73,.42-1.14,1.48-1.23,3.17l-1.49,28.06c-.09,1.54,.16,2.53,.75,3.01,.57,.47,1.73,.76,3.47,.85Z"></path><path class="cls-1" d="M380.8,649.71c.68-.1,1.24-.23,1.7-.37,.45-.15,.81-.39,1.09-.74,.27-.35,.44-.83,.51-1.44,.06-.61,.04-1.42-.06-2.42l-2.66-27.98c-.1-1-.24-1.8-.44-2.39s-.49-1.02-.88-1.31-.9-.46-1.53-.49c-.63-.04-1.43-.03-2.4,.02l-.13-1.38,16.3-1.56,.13,1.38c-.67,.11-1.24,.23-1.69,.37-.46,.15-.82,.4-1.09,.74-.26,.35-.43,.83-.49,1.44-.06,.61-.04,1.42,.04,2.42l2.67,27.98c.09,1,.24,1.8,.43,2.39,.2,.59,.5,1.03,.88,1.31,.4,.29,.92,.46,1.55,.5,.62,.04,1.43,.03,2.39-.02l.14,1.38-16.31,1.55-.13-1.38Z"></path><path class="cls-1" d="M434.41,643.38c-3.01,.73-5.91,.92-8.69,.57-2.78-.35-5.3-1.18-7.56-2.51-2.27-1.32-4.22-3.08-5.84-5.27-1.63-2.2-2.8-4.79-3.51-7.77-.78-3.22-.89-6.25-.33-9.12,.55-2.87,1.63-5.45,3.23-7.75,1.6-2.28,3.63-4.23,6.09-5.84,2.45-1.61,5.18-2.78,8.2-3.5,2.27-.54,4.54-.86,6.8-.95,2.26-.09,4.11,0,5.55,.29l2.23,9.29-1.36,.32c-.81-1.67-1.73-2.99-2.75-3.97s-2.11-1.69-3.25-2.14c-1.14-.45-2.31-.67-3.52-.67s-2.41,.15-3.63,.43c-3.92,.95-6.74,3.1-8.46,6.45-1.72,3.36-1.89,7.89-.53,13.56,.66,2.74,1.55,5.21,2.68,7.41,1.12,2.19,2.43,4.02,3.9,5.46,1.46,1.45,3.09,2.46,4.86,3.03,1.76,.56,3.64,.61,5.59,.14,1.65-.4,3.1-1.07,4.38-2.05,1.28-.97,2.36-2.12,3.23-3.44,.86-1.33,1.51-2.76,1.95-4.32,.43-1.56,.65-3.1,.65-4.63l1.36-.33,1.54,8.21c-.99,1.93-2.51,3.74-4.58,5.39-2.07,1.66-4.8,2.9-8.22,3.72Z"></path><path class="cls-1" d="M463.67,632.01c.61-.29,1.12-.56,1.52-.82s.68-.61,.84-1.01c.16-.42,.19-.93,.07-1.53-.11-.61-.35-1.37-.71-2.31l-10.34-26.15c-.38-.93-.73-1.66-1.09-2.17-.35-.52-.76-.85-1.21-1.02-.45-.16-.99-.18-1.61-.04-.62,.14-1.39,.36-2.3,.68l-.51-1.3,15.23-6.02,.51,1.29c-.62,.29-1.12,.57-1.53,.83-.39,.27-.67,.61-.83,1.02-.16,.41-.19,.92-.07,1.52,.1,.61,.34,1.38,.72,2.32l10.33,26.14c.37,.94,.73,1.66,1.08,2.17,.36,.51,.77,.86,1.21,1.02,.45,.16,.99,.18,1.61,.04,.61-.14,1.39-.36,2.3-.68l.51,1.3-15.23,6.01-.51-1.29Z"></path><path class="cls-1" d="M498.15,632.12c.68-.62,1.14-1.3,1.37-2.01,.24-.72,.27-1.56,.08-2.53-.18-.97-.56-2.13-1.14-3.46-.59-1.33-1.35-2.91-2.3-4.74l-15.72-30.31c-.47-.89-.9-1.57-1.31-2.04-.41-.48-.84-.77-1.31-.89s-1.01-.08-1.6,.12c-.61,.2-1.34,.5-2.21,.91l-.64-1.23,14.53-7.55,.64,1.24c-.59,.35-1.07,.67-1.42,.98-.37,.3-.61,.67-.73,1.1-.12,.42-.09,.93,.08,1.52,.17,.59,.48,1.34,.95,2.23l15.88,30.58c1,1.93,1.6,3.79,1.77,5.58,.19,1.8,.03,3.44-.46,4.95-.5,1.5-1.24,2.84-2.25,3.99-1.01,1.16-2.2,2.09-3.56,2.79l-.64-1.22Z"></path><path class="cls-1" d="M543.01,583.07c.93,.62,1.71,1.09,2.32,1.4,.61,.3,1.14,.48,1.59,.54,.46,.06,.89,0,1.3-.16,.41-.16,.86-.4,1.38-.71l.8,1.13-13.01,9.14-.8-1.14c1.44-1.11,2.07-2.04,1.91-2.81-.18-.77-.94-1.63-2.3-2.59l-7.73-5.44c-.05,.29-.22,.57-.51,.85-.3,.28-.62,.54-.99,.8l-5.94,4.17c-.69,.48-1.16,.94-1.4,1.36-.25,.42-.26,1.07-.04,1.95l1.72,6.77c.39,1.45,1.04,2.34,1.98,2.67,.94,.32,2.29-.09,4.06-1.23l.8,1.14-9.5,6.67-.8-1.14c.81-.67,1.26-1.51,1.34-2.56,.09-1.05-.05-2.3-.4-3.79l-7.67-30.49c-.25-1.12-.51-2.19-.81-3.21s-.64-2.04-1.01-3.06l2.68-1.88c.83,.7,1.67,1.36,2.54,1.99,.85,.62,1.77,1.24,2.74,1.84l25.78,17.8Zm-17.55-.91c.46-.33,.73-.61,.78-.84s-.16-.53-.64-.87l-10.67-7.3-.1,.07,3.63,14.14c.1-.22,.26-.42,.48-.59,.22-.18,.48-.37,.77-.58l5.74-4.03Z"></path></g><path class="cls-1" d="M64.77,213.17c-.31,0-.63-.06-.93-.2-1.11-.51-1.59-1.83-1.08-2.94C116.04,94.74,232.49,20.25,359.44,20.25s242.84,74.16,296.28,188.93c.52,1.11,.03,2.43-1.07,2.94-1.09,.53-2.42,.05-2.94-1.07C599,97.84,484.27,24.68,359.44,24.68S119.34,98.16,66.78,211.88c-.38,.81-1.18,1.28-2.01,1.28Z"></path><path class="cls-1" d="M359.44,673.55c-128.57,0-245.63-75.83-298.23-193.18-.5-1.12,0-2.43,1.12-2.92,1.1-.52,2.42,0,2.92,1.12,51.89,115.76,167.36,190.56,294.19,190.56,148.17,0,276.72-100.26,312.61-243.81,.3-1.19,1.47-1.92,2.68-1.61,1.19,.3,1.91,1.5,1.61,2.68-36.38,145.53-166.7,247.16-316.91,247.16Z"></path><path class="cls-1" d="M154.64,212.15c-.42,0-.86-.12-1.23-.38-1.02-.68-1.29-2.05-.61-3.07,46.31-69.1,123.56-110.36,206.63-110.36s159.75,40.97,206.11,109.59c.69,1.02,.42,2.39-.59,3.07-1.01,.69-2.39,.42-3.07-.59-45.53-67.4-121.21-107.64-202.44-107.64s-157.47,40.52-202.96,108.4c-.42,.64-1.12,.98-1.84,.98Z"></path><path class="cls-1" d="M359.44,595.47c-86.28,0-165.14-43.74-210.93-117-.65-1.03-.33-2.4,.7-3.05,1.03-.64,2.4-.34,3.05,.7,44.98,71.96,122.43,114.92,207.17,114.92,104.18,0,196.97-66.14,230.88-164.58,.4-1.15,1.66-1.77,2.81-1.37s1.77,1.66,1.37,2.81c-34.53,100.23-128.99,167.57-235.06,167.57Z"></path><g><path class="cls-3" d="M572.83,432.88c-.14,0-.28-.03-.41-.08-.57-.22-.84-.87-.62-1.44,.54-1.36,1.08-2.73,1.59-4.11,.22-.57,.85-.86,1.43-.65,.57,.22,.86,.85,.65,1.43-.52,1.39-1.06,2.78-1.61,4.15-.17,.43-.59,.7-1.03,.7Z"></path><path class="cls-3" d="M357.01,577.59h-.01c-3-.03-5.98-.12-8.95-.26-.61-.03-1.09-.55-1.05-1.16s.6-.99,1.16-1.05c2.94,.14,5.9,.23,8.87,.26,.61,0,1.1,.51,1.09,1.12,0,.61-.5,1.09-1.11,1.09Zm8.91-.07c-.6,0-1.09-.48-1.11-1.08-.02-.61,.46-1.12,1.08-1.14,2.97-.09,5.92-.22,8.86-.42,.03,0,.05,0,.07,0,.58,0,1.07,.45,1.1,1.03,.04,.61-.42,1.14-1.03,1.18-2.97,.2-5.94,.34-8.95,.42h-.03Zm-26.71-.79s-.06,0-.1,0c-2.99-.26-5.95-.58-8.91-.95-.61-.08-1.04-.63-.96-1.24,.07-.61,.58-1.07,1.24-.96,2.93,.37,5.87,.68,8.82,.94,.61,.05,1.06,.59,1.01,1.2-.05,.58-.53,1.01-1.1,1.01Zm44.49-.38c-.56,0-1.04-.42-1.1-.99-.06-.61,.38-1.15,.99-1.22,2.95-.31,5.88-.68,8.8-1.1,.64-.1,1.17,.33,1.25,.93,.09,.61-.33,1.17-.93,1.25-2.95,.43-5.91,.8-8.88,1.12-.04,0-.08,0-.12,0Zm-62.19-1.85c-.06,0-.12,0-.18-.01-2.96-.49-5.9-1.04-8.82-1.65-.6-.13-.98-.71-.86-1.31,.13-.6,.72-.97,1.31-.86,2.89,.61,5.8,1.15,8.73,1.63,.6,.1,1.01,.67,.91,1.28-.09,.54-.56,.93-1.09,.93Zm79.83-.7c-.52,0-.99-.37-1.09-.91-.11-.6,.29-1.18,.89-1.29,2.91-.54,5.81-1.13,8.69-1.78,.59-.13,1.19,.24,1.32,.84,.13,.6-.24,1.19-.84,1.32-2.9,.65-5.82,1.25-8.77,1.79-.06,.01-.13,.02-.2,.02Zm-97.3-2.91c-.09,0-.18,0-.27-.03-2.91-.72-5.8-1.5-8.66-2.33-.59-.17-.93-.78-.76-1.37,.17-.58,.74-.94,1.37-.76,2.84,.82,5.7,1.59,8.58,2.31,.59,.15,.95,.74,.8,1.34-.12,.5-.57,.84-1.07,.84Zm114.69-.99c-.49,0-.94-.33-1.07-.82-.16-.59,.19-1.2,.78-1.35,2.86-.77,5.69-1.58,8.5-2.45,.61-.16,1.21,.16,1.39,.73,.18,.59-.15,1.21-.73,1.39-2.84,.88-5.71,1.7-8.59,2.47-.1,.03-.19,.04-.29,.04Zm-131.82-3.97c-.12,0-.23-.02-.35-.06-2.84-.95-5.65-1.95-8.45-3-.57-.22-.86-.86-.65-1.43,.22-.57,.86-.85,1.43-.65,2.77,1.04,5.56,2.03,8.37,2.97,.58,.19,.89,.82,.7,1.4-.16,.46-.59,.76-1.05,.76Zm148.81-1.28c-.46,0-.88-.29-1.04-.74-.2-.57,.1-1.21,.67-1.41,2.79-.98,5.56-2.02,8.3-3.1,.58-.22,1.21,.05,1.44,.62,.22,.57-.05,1.21-.62,1.44-2.77,1.09-5.56,2.14-8.37,3.13-.12,.04-.25,.06-.37,.06Zm-165.5-5.01c-.14,0-.29-.03-.43-.09-2.76-1.16-5.49-2.38-8.19-3.65-.55-.26-.79-.92-.53-1.47,.26-.56,.94-.79,1.47-.53,2.68,1.26,5.38,2.46,8.11,3.61,.56,.24,.83,.89,.59,1.45-.18,.42-.59,.67-1.02,.67Zm182.04-1.55c-.42,0-.83-.25-1.01-.66-.25-.56,0-1.21,.57-1.46,2.7-1.2,5.38-2.44,8.02-3.74,.54-.26,1.21-.04,1.48,.51,.27,.55,.04,1.21-.51,1.48-2.67,1.31-5.37,2.57-8.11,3.78-.14,.06-.29,.1-.45,.1Zm-198.18-6.02c-.17,0-.35-.04-.51-.13-2.65-1.37-5.28-2.8-7.88-4.27-.53-.3-.71-.98-.42-1.51,.31-.53,.98-.72,1.51-.42,2.57,1.47,5.17,2.87,7.8,4.24,.54,.28,.75,.95,.47,1.49-.19,.38-.58,.6-.98,.6Zm214.17-1.8c-.39,0-.77-.21-.97-.58-.29-.54-.09-1.21,.45-1.5,2.6-1.4,5.17-2.86,7.72-4.36,.53-.32,1.21-.14,1.51,.39,.31,.53,.14,1.21-.39,1.51-2.57,1.52-5.17,2.99-7.79,4.4-.16,.09-.35,.13-.52,.13Zm-229.67-7c-.2,0-.4-.05-.58-.16-2.54-1.58-5.05-3.2-7.52-4.87-.51-.34-.64-1.03-.3-1.53,.34-.51,1.03-.64,1.53-.3,2.45,1.65,4.93,3.26,7.45,4.82,.52,.32,.68,1.01,.36,1.53-.21,.34-.57,.52-.94,.52Zm245-2.05c-.36,0-.72-.18-.93-.51-.33-.51-.18-1.2,.33-1.53,2.49-1.6,4.94-3.25,7.36-4.95,.49-.35,1.18-.23,1.54,.27,.35,.5,.23,1.19-.27,1.54-2.44,1.71-4.92,3.38-7.44,4.99-.18,.12-.39,.18-.6,.18Zm-259.77-7.93c-.23,0-.46-.07-.65-.22-2.41-1.77-4.79-3.58-7.12-5.44-.48-.38-.56-1.08-.18-1.55s1.08-.56,1.55-.18c2.32,1.84,4.66,3.64,7.05,5.39,.49,.36,.6,1.05,.24,1.54-.22,.3-.55,.45-.89,.45Zm274.36-2.29c-.33,0-.67-.15-.88-.44-.37-.49-.27-1.18,.21-1.55,2.36-1.79,4.68-3.62,6.96-5.5,.48-.39,1.17-.31,1.56,.15,.39,.48,.32,1.17-.15,1.56-2.3,1.89-4.65,3.74-7.02,5.55-.2,.15-.44,.22-.67,.22Zm-288.32-8.8c-.26,0-.51-.09-.72-.27-2.26-1.95-4.49-3.93-6.68-5.97-.45-.42-.48-1.12-.06-1.56,.42-.44,1.12-.47,1.56-.06,2.17,2.02,4.37,3.99,6.62,5.92,.46,.4,.51,1.1,.12,1.56-.22,.26-.53,.38-.84,.38Zm302.08-2.52c-.3,0-.61-.13-.83-.37-.41-.46-.37-1.15,.09-1.56,2.21-1.97,4.38-3.97,6.51-6.02,.44-.41,1.14-.42,1.56,.03,.42,.44,.41,1.14-.03,1.56-2.15,2.07-4.34,4.09-6.58,6.07-.21,.19-.47,.28-.73,.28Zm-315.13-9.61c-.29,0-.57-.11-.78-.32-2.11-2.12-4.18-4.27-6.2-6.47-.42-.45-.38-1.15,.06-1.56,.45-.42,1.15-.38,1.56,.06,2.01,2.17,4.06,4.31,6.14,6.4,.43,.44,.43,1.14,0,1.56-.22,.22-.5,.32-.78,.32Zm327.99-2.72c-.28,0-.55-.1-.77-.31-.44-.42-.45-1.12-.03-1.56,2.05-2.13,4.06-4.3,6.03-6.5,.42-.45,1.12-.5,1.56-.09,.46,.41,.5,1.11,.09,1.56-1.99,2.23-4.02,4.42-6.09,6.57-.22,.22-.51,.34-.8,.34Zm-340.07-10.38c-.31,0-.62-.13-.84-.39-1.94-2.27-3.83-4.58-5.68-6.93-.38-.48-.29-1.18,.19-1.55,.48-.38,1.18-.31,1.55,.19,1.83,2.32,3.7,4.6,5.62,6.86,.4,.46,.34,1.16-.13,1.56-.21,.18-.46,.26-.72,.26Zm351.94-2.93c-.25,0-.5-.08-.7-.25-.47-.39-.54-1.09-.15-1.56,1.88-2.28,3.72-4.6,5.51-6.95,.38-.49,1.07-.58,1.55-.21,.49,.37,.58,1.07,.21,1.55-1.81,2.38-3.67,4.72-5.56,7.02-.22,.26-.54,.4-.86,.4Zm10.79-14.18c-.22,0-.44-.06-.64-.2-.5-.35-.62-1.04-.27-1.54,1.7-2.42,3.35-4.88,4.96-7.36,.33-.52,1.02-.66,1.53-.33s.66,1.02,.33,1.53c-1.62,2.51-3.29,4.98-5.01,7.43-.21,.31-.56,.47-.9,.47Zm9.68-14.98c-.19,0-.39-.05-.56-.16-.53-.31-.7-.99-.39-1.51,1.5-2.55,2.96-5.12,4.37-7.73,.29-.54,.96-.73,1.5-.45,.54,.29,.73,.96,.45,1.5-1.42,2.63-2.9,5.24-4.42,7.8-.21,.35-.57,.54-.95,.54Zm8.49-15.69c-.16,0-.33-.03-.49-.11-.55-.27-.77-.93-.51-1.48,1.31-2.65,2.56-5.33,3.77-8.05,.25-.56,.91-.82,1.46-.56,.56,.25,.81,.9,.56,1.46-1.21,2.74-2.48,5.44-3.8,8.12-.19,.39-.59,.62-.99,.62Z"></path><path class="cls-3" d="M173.53,482.76c-.34,0-.68-.16-.89-.46-.87-1.2-1.73-2.4-2.58-3.62-.35-.5-.22-1.19,.28-1.54,.5-.35,1.19-.23,1.54,.28,.84,1.2,1.69,2.4,2.55,3.59,.36,.49,.25,1.18-.25,1.54-.19,.14-.42,.21-.65,.21Z"></path></g><g><path class="cls-3" d="M174.42,212.05c-.23,0-.46-.07-.66-.22-.49-.36-.6-1.05-.23-1.55,.88-1.19,1.77-2.38,2.67-3.56,.37-.5,1.06-.58,1.55-.2,.48,.37,.57,1.07,.2,1.55-.89,1.16-1.78,2.34-2.65,3.52-.22,.29-.55,.45-.89,.45Z"></path><path class="cls-3" d="M182.63,201.55c-.25,0-.5-.08-.7-.26-.47-.39-.54-1.09-.15-1.56,1.9-2.3,3.85-4.56,5.84-6.78,.42-.45,1.12-.48,1.56-.09,.45,.41,.49,1.11,.09,1.56-1.97,2.2-3.9,4.44-5.79,6.71-.22,.26-.54,.4-.85,.4Zm351.7-2.29c-.31,0-.62-.13-.84-.39-1.92-2.25-3.87-4.46-5.87-6.64-.42-.45-.38-1.15,.06-1.56s1.15-.38,1.56,.06c2.02,2.19,4,4.43,5.93,6.7,.4,.47,.34,1.16-.13,1.56-.21,.18-.46,.26-.72,.26Zm-339.81-10.97c-.28,0-.55-.1-.77-.31-.44-.43-.45-1.13-.03-1.56,2.08-2.14,4.19-4.25,6.35-6.3,.45-.41,1.15-.4,1.56,.03,.42,.44,.41,1.14-.03,1.56-2.14,2.04-4.23,4.12-6.29,6.24-.22,.22-.51,.34-.8,.34Zm327.76-2.13c-.29,0-.57-.11-.78-.32-2.09-2.1-4.21-4.15-6.37-6.17-.45-.42-.47-1.12-.05-1.56,.42-.45,1.12-.46,1.56-.05,2.18,2.03,4.32,4.11,6.42,6.22,.43,.44,.43,1.14,0,1.56-.22,.22-.5,.32-.78,.32Zm-314.89-10.17c-.31,0-.61-.13-.83-.37-.4-.46-.36-1.16,.1-1.56,2.24-1.98,4.5-3.91,6.82-5.8,.48-.38,1.17-.32,1.56,.16,.39,.47,.32,1.17-.16,1.56-2.29,1.87-4.54,3.79-6.75,5.75-.21,.19-.48,.28-.73,.28Zm301.87-1.97c-.26,0-.51-.09-.72-.27-2.24-1.93-4.52-3.82-6.83-5.66-.48-.38-.55-1.08-.17-1.56,.38-.48,1.08-.55,1.56-.17,2.33,1.86,4.63,3.76,6.89,5.71,.46,.4,.51,1.1,.12,1.56-.22,.26-.53,.38-.84,.38Zm-288.09-9.31c-.33,0-.67-.15-.88-.44-.37-.48-.27-1.18,.21-1.55,2.38-1.8,4.79-3.55,7.25-5.26,.49-.34,1.19-.23,1.54,.28,.35,.5,.22,1.19-.28,1.54-2.43,1.69-4.82,3.42-7.17,5.2-.2,.15-.43,.22-.67,.22Zm274.15-1.79c-.23,0-.46-.07-.66-.22-2.38-1.75-4.79-3.45-7.24-5.11-.51-.34-.64-1.03-.3-1.53,.34-.51,1.04-.64,1.53-.3,2.47,1.67,4.91,3.39,7.31,5.16,.49,.36,.6,1.05,.23,1.55-.22,.29-.55,.45-.89,.45Zm-259.55-8.38c-.36,0-.72-.18-.93-.51-.33-.51-.18-1.2,.34-1.53,2.51-1.61,5.05-3.17,7.62-4.68,.52-.32,1.2-.13,1.52,.39,.31,.53,.13,1.21-.39,1.52-2.55,1.5-5.07,3.04-7.55,4.63-.19,.12-.39,.17-.6,.17Zm244.81-1.6c-.2,0-.4-.05-.58-.17-2.51-1.56-5.05-3.07-7.62-4.54-.53-.3-.71-.98-.41-1.51,.29-.54,.98-.72,1.51-.41,2.59,1.47,5.15,3,7.69,4.58,.52,.32,.68,1,.35,1.52-.21,.34-.57,.52-.94,.52Zm-229.46-7.41c-.39,0-.77-.21-.98-.58-.29-.54-.09-1.21,.45-1.5,2.62-1.4,5.28-2.76,7.96-4.07,.54-.28,1.21-.04,1.48,.51s.04,1.21-.51,1.48c-2.66,1.3-5.29,2.64-7.89,4.03-.16,.09-.35,.13-.52,.13Zm213.98-1.41c-.17,0-.35-.04-.51-.13-2.62-1.36-5.27-2.67-7.95-3.93-.55-.26-.79-.92-.53-1.47s.93-.78,1.47-.53c2.7,1.28,5.38,2.6,8.02,3.97,.54,.28,.75,.95,.47,1.49-.19,.38-.58,.6-.98,.6Zm-197.98-6.38c-.42,0-.83-.25-1.01-.66-.25-.56,0-1.21,.57-1.46,2.72-1.2,5.47-2.35,8.25-3.44,.58-.23,1.21,.05,1.44,.62,.22,.57-.06,1.21-.62,1.44-2.75,1.09-5.48,2.22-8.17,3.41-.14,.06-.29,.1-.45,.1Zm181.87-1.2c-.14,0-.29-.03-.43-.09-2.71-1.15-5.46-2.25-8.23-3.3-.57-.22-.86-.85-.64-1.43,.21-.57,.86-.86,1.43-.64,2.8,1.06,5.57,2.17,8.31,3.33,.56,.24,.83,.89,.59,1.45-.18,.42-.59,.67-1.02,.67Zm-165.32-5.32c-.46,0-.89-.29-1.05-.74-.2-.58,.1-1.21,.68-1.41,2.81-.98,5.64-1.91,8.49-2.79,.59-.15,1.21,.15,1.38,.73s-.15,1.2-.73,1.38c-2.83,.87-5.63,1.79-8.41,2.76-.12,.04-.25,.06-.37,.06Zm148.65-.99c-.12,0-.23-.02-.35-.06-2.8-.94-5.62-1.82-8.47-2.65-.58-.17-.92-.79-.75-1.37,.18-.59,.79-.92,1.37-.75,2.87,.84,5.72,1.73,8.55,2.68,.58,.19,.89,.82,.7,1.4-.16,.46-.59,.76-1.05,.76Zm-131.64-4.22c-.49,0-.94-.33-1.07-.82-.16-.59,.19-1.2,.78-1.35,2.87-.76,5.77-1.47,8.69-2.12,.64-.13,1.19,.25,1.32,.84,.13,.6-.24,1.19-.84,1.32-2.89,.64-5.76,1.34-8.6,2.09-.1,.03-.19,.04-.29,.04Zm114.53-.77c-.09,0-.18,0-.27-.03-2.86-.71-5.75-1.37-8.65-1.98-.6-.13-.98-.71-.86-1.31,.13-.6,.73-.98,1.31-.86,2.94,.61,5.84,1.28,8.73,2,.59,.15,.96,.75,.8,1.34-.13,.5-.57,.84-1.07,.84Zm-97.17-3.1c-.53,0-.99-.38-1.09-.91-.11-.6,.29-1.18,.89-1.29,2.92-.53,5.86-1.01,8.82-1.43,.6-.14,1.16,.33,1.25,.94,.09,.61-.33,1.17-.94,1.25-2.93,.42-5.84,.89-8.73,1.42-.07,.01-.13,.02-.2,.02Zm79.73-.54c-.06,0-.12,0-.18-.02-2.91-.48-5.84-.92-8.78-1.3-.61-.08-1.03-.63-.96-1.24,.08-.61,.65-1.04,1.24-.96,2.97,.38,5.92,.82,8.86,1.31,.61,.1,1.01,.67,.91,1.28-.09,.54-.56,.93-1.09,.93Zm-62.12-1.96c-.56,0-1.04-.42-1.1-.99-.06-.61,.38-1.15,.99-1.21,2.95-.3,5.92-.55,8.91-.74,.55-.09,1.14,.42,1.17,1.03,.04,.61-.42,1.13-1.03,1.17-2.96,.19-5.9,.44-8.83,.74-.04,0-.08,0-.11,0Zm44.45-.31s-.06,0-.1,0c-2.94-.26-5.88-.46-8.85-.61-.61-.03-1.08-.55-1.05-1.16s.64-.99,1.16-1.05c2.99,.15,5.96,.36,8.92,.62,.61,.05,1.06,.59,1.01,1.2-.05,.58-.53,1.01-1.1,1.01Zm-26.69-.83c-.6,0-1.09-.48-1.11-1.08-.02-.61,.47-1.12,1.08-1.14,2.98-.08,5.96-.1,8.95-.06,.61,0,1.1,.51,1.09,1.12s-.5,1.09-1.11,1.09h-.01c-2.97-.04-5.93-.01-8.86,.06h-.03Z"></path><path class="cls-3" d="M542.84,209.88c-.33,0-.67-.15-.88-.44-.89-1.17-1.78-2.33-2.69-3.49-.38-.48-.29-1.18,.19-1.55,.48-.39,1.18-.3,1.55,.19,.92,1.17,1.82,2.34,2.71,3.52,.37,.49,.27,1.18-.21,1.55-.2,.15-.44,.22-.67,.22Z"></path></g></svg>