<svg xmlns="http://www.w3.org/2000/svg" width="171" height="24" viewBox="0 0 171 24" fill="none"><path d="M60.8145 1.00355L62.271 2.63533V10.4997C60.1826 8.3989 57.8629 6.43379 56.9382 3.83302V2.63147L58.3947 0.999675V0.333008H50.8733V0.999675L52.299 2.63147V23.5966H56.9382V6.39891C59.1576 10.5966 62.271 12.2322 62.271 17.4648V23.5966H66.9102V2.63147L68.3359 0.999675V0.333008H60.8145V1.00355Z" fill="#DB7126"></path><path d="M79.8338 0.336896V1.00356L81.2903 2.63534V22.1663C80.4619 22.6663 79.5679 22.9338 78.6393 22.9338C77.7107 22.9338 76.8168 22.6663 75.9883 22.1663V2.63534L77.414 1.00356V0.336896H69.8926V1.00356L71.3491 2.63534V21.2322C72.6746 22.2322 74.266 22.9997 75.9883 23.364C76.8514 23.5656 77.7107 23.6663 78.6393 23.6663C79.5679 23.6663 80.4272 23.5656 81.2903 23.364C83.0127 22.9958 84.5732 22.2322 85.9296 21.2322V2.63534L87.3899 1.00356V0.336896H79.8338Z" fill="#DB7126"></path><path d="M18.703 1.00381L20.1595 2.63559V3.83714C19.2309 6.43791 16.9113 8.40303 14.8575 10.5038V2.63946L16.2832 1.00769V0.341019H2.96276V1.00769L10.1875 2.63946V3.20535C9.06235 7.67047 3.86055 10.1395 1.83763 14.3371C1.00919 16.0038 0.708644 17.7712 0.677818 19.3022V20.434C0.743322 22.3023 1.10938 23.6007 1.10938 23.6007H5.74861C2.60056 12.7674 7.3053 11.8681 10.1875 6.03868V23.6007H14.8575V17.4689C14.8229 12.2364 17.9401 10.6046 20.1595 6.40303V23.6007H24.7988V2.63559L26.2553 1.00381V0.337139H18.6992V1.00381H18.703Z" fill="#DB7126"></path><path d="M105.743 1.00357L107.203 2.63535V3.8369C106.274 6.43768 103.955 8.4028 101.866 10.5036V2.63923L103.323 1.00745V0.340784H95.8014V1.00745L97.2271 2.63923V3.20512C96.0981 7.67023 90.8963 10.1392 88.8772 14.3369C86.7888 18.7051 88.149 23.6043 88.149 23.6043H92.7882C89.6748 12.771 94.3449 11.8718 97.2309 6.04233V23.6043H101.87V17.4726C101.87 12.24 104.984 10.6082 107.207 6.40667V23.6043H111.846V2.63923L113.272 1.00745V0.340784H105.75V1.00745L105.743 1.00357Z" fill="#DB7126"></path><path d="M154.085 0.336896V1.00356L159.884 2.63922V23.6005H164.523V2.63922L170.322 1.00356V0.336896H154.085Z" fill="#DB7126"></path><path d="M145.007 1.00355L146.467 2.63533V10.4997C144.409 8.3989 142.094 6.43379 141.165 3.83302V2.63147L142.591 0.999675V0.333008H135.069V0.999675L136.53 2.63147V23.5966H141.169V6.39891C143.388 10.5966 146.471 12.2322 146.471 17.4648V23.5966H151.11V2.63147L152.57 0.999675V0.333008H145.014V0.999675L145.007 1.00355Z" fill="#DB7126"></path><path d="M38.5315 0.336896C31.9349 0.336896 26.5866 5.5462 26.5866 11.9687C26.5866 18.3912 31.9349 23.6005 38.5315 23.6005C45.1282 23.6005 50.4764 18.3912 50.4764 11.9687C50.4764 5.5462 45.1282 0.336896 38.5315 0.336896ZM38.5315 22.9338C34.5319 22.9338 31.2914 18.0229 31.2914 11.9687C31.2914 5.91442 34.5319 1.00356 38.5315 1.00356C42.5311 1.00356 45.7717 5.91442 45.7717 11.9687C45.7717 18.0229 42.5311 22.9338 38.5315 22.9338Z" fill="#DB7126"></path><path d="M125.502 22.9687C121.502 22.9687 118.262 18.0578 118.262 12.0036C118.262 5.94929 121.502 1.03843 125.502 1.03843C127.609 1.03843 128.5 2.41053 129.821 4.58882H134.703C132.511 2.0113 129.205 0.371767 125.502 0.371767C118.905 0.371767 113.557 5.58107 113.557 12.0036C113.557 18.426 118.905 23.6353 125.502 23.6353C129.297 23.6353 132.673 21.9066 134.857 19.2206H129.941C128.615 21.5152 127.671 22.9687 125.502 22.9687Z" fill="#DB7126"></path><path d="M38.5312 7.74712L34.2972 12.0062L38.5312 16.2653L42.7653 12.0062L38.5312 7.74712Z" fill="#DB7126"></path><path d="M125.4 7.74433L121.166 12.0034L125.4 16.2625L129.634 12.0034L125.4 7.74433Z" fill="#DB7126"></path></svg>