<?xml version="1.0" standalone="no"?>
<!DOCTYPE svg PUBLIC "-//W3C//DTD SVG 20010904//EN"
 "http://www.w3.org/TR/2001/REC-SVG-20010904/DTD/svg10.dtd">
<svg version="1.0" xmlns="http://www.w3.org/2000/svg"
 width="1024.000000pt" height="1024.000000pt" viewBox="0 0 1024.000000 1024.000000"
 preserveAspectRatio="xMidYMid meet">

<g transform="translate(0.000000,1024.000000) scale(0.100000,-0.100000)"
fill="#000000" stroke="none">
<path d="M5637 9009 c-9 -5 -33 -40 -51 -77 -40 -78 -88 -128 -137 -142 -18
-6 -90 -10 -159 -11 -460 -2 -938 -91 -1329 -249 -420 -169 -711 -343 -1023
-611 -233 -201 -448 -438 -614 -679 -76 -110 -96 -142 -196 -310 -116 -195
-234 -481 -328 -795 -14 -48 -67 -332 -80 -430 -17 -135 -24 -561 -11 -690 25
-240 31 -292 41 -335 59 -258 92 -376 129 -465 5 -11 19 -47 31 -80 21 -53 37
-91 85 -200 80 -181 102 -258 112 -386 8 -110 -10 -197 -59 -269 -72 -109
-230 -244 -390 -334 -45 -25 -83 -75 -76 -98 7 -19 270 196 427 349 52 51 96
91 98 89 2 -2 9 -23 16 -46 l12 -44 30 107 c16 59 32 107 35 107 3 0 12 -17
19 -37 16 -43 102 -206 106 -201 2 2 -5 35 -16 73 -28 101 -85 453 -105 645
-30 292 -10 692 56 1120 79 513 99 557 434 945 168 194 221 270 334 478 96
176 141 239 263 372 50 55 104 119 118 141 l27 42 21 -24 c29 -32 50 -30 87 9
54 58 182 307 157 307 -4 0 -14 -15 -23 -33 -23 -49 -142 -230 -161 -245 -18
-15 -37 -8 -37 14 0 16 161 339 182 365 32 40 101 51 161 26 41 -18 104 -87
128 -142 68 -154 76 -348 20 -513 -41 -121 -71 -173 -151 -252 -75 -75 -156
-119 -233 -126 l-52 -5 45 17 c118 43 262 187 332 331 35 71 41 94 46 170 3
54 8 80 12 68 5 -11 8 22 8 75 1 71 -2 90 -9 77 -6 -10 -8 -30 -5 -44 5 -16 3
-22 -4 -18 -5 3 -10 0 -10 -8 0 -7 -23 -58 -50 -113 -106 -208 -267 -372 -462
-470 l-77 -39 55 -60 c30 -33 57 -70 60 -81 6 -21 0 -165 -9 -214 -2 -14 -5
-32 -6 -40 -1 -13 -2 -13 -11 0 -5 8 -10 10 -10 4 0 -5 5 -15 11 -21 8 -8 7
-13 -2 -18 -8 -6 -10 -4 -5 6 4 8 0 5 -8 -6 -9 -11 -14 -26 -11 -33 3 -8 5
-21 6 -30 0 -14 2 -13 9 3 5 11 9 14 9 7 1 -20 -52 -93 -108 -150 -59 -60
-139 -108 -241 -146 -122 -46 -120 -45 -60 -45 65 -1 102 -10 94 -22 -3 -5 3
-9 13 -10 16 0 16 -1 -2 -9 -11 -5 -14 -9 -6 -9 20 -1 53 -42 46 -59 -3 -8 3
-28 14 -46 30 -50 51 -138 51 -218 0 -67 -4 -82 -55 -193 -30 -65 -55 -121
-55 -123 0 -2 5 0 11 4 15 9 -105 -142 -210 -266 -45 -52 -96 -124 -114 -160
-30 -61 -32 -71 -32 -170 0 -94 3 -111 29 -168 37 -81 74 -132 164 -227 47
-50 78 -75 87 -71 18 7 267 -133 259 -145 -3 -5 3 -6 12 -2 13 5 15 3 9 -7 -5
-9 -4 -11 3 -6 6 4 40 -8 74 -27 35 -19 95 -51 133 -72 71 -38 106 -64 72 -52
-11 4 -16 3 -12 -4 4 -5 14 -7 24 -4 14 4 19 -5 29 -53 31 -153 -5 -286 -129
-469 -51 -75 -63 -101 -31 -67 35 36 92 85 92 78 0 -4 9 5 21 20 15 19 24 24
33 17 7 -6 17 -7 22 -3 5 4 3 0 -4 -8 -11 -12 -14 -13 -21 -1 -6 9 -11 10 -15
2 -4 -6 -2 -11 5 -11 9 0 9 -4 -1 -15 -6 -8 26 8 71 36 92 55 161 79 226 79
42 0 101 -26 278 -125 28 -15 77 -42 110 -60 170 -92 252 -137 310 -170 163
-92 393 -209 475 -241 39 -15 74 -32 77 -37 3 -4 -4 -18 -15 -30 -17 -18 -19
-26 -10 -42 9 -17 8 -18 -3 -8 -7 7 -16 13 -20 13 -16 0 -69 -53 -62 -62 3 -7
1 -8 -6 -4 -13 8 -44 -12 -36 -23 2 -4 -2 -8 -9 -8 -7 0 -27 -10 -44 -23 -24
-18 -29 -26 -20 -33 9 -6 7 -7 -5 -3 -11 4 -31 -2 -47 -14 -15 -11 -32 -20
-37 -20 -5 0 -14 -5 -21 -12 -13 -13 12 -37 41 -38 10 0 20 -7 23 -15 5 -11
21 -15 60 -15 36 0 54 -4 54 -12 0 -10 3 -9 9 1 7 11 14 10 37 -4 24 -14 26
-14 9 -1 -16 14 -17 19 -7 34 7 9 16 27 22 40 10 22 30 31 30 12 0 -5 -6 -10
-12 -10 -9 0 -8 -3 2 -9 18 -12 33 -3 26 15 -3 8 0 14 7 14 13 -1 48 -25 44
-31 -1 -2 0 -3 2 -1 3 1 6 9 7 17 1 8 -2 13 -7 9 -5 -3 -9 5 -9 18 0 13 9 29
20 36 11 7 20 17 20 22 0 6 -9 10 -20 10 -11 0 -20 6 -20 14 0 9 18 16 53 20
84 11 127 9 127 -8 0 -6 8 -3 17 7 23 23 3 48 -22 27 -13 -11 -15 -10 -10 3 4
8 17 17 30 20 14 2 22 0 19 -4 -3 -5 0 -9 5 -9 12 0 15 11 12 54 -1 22 2 27
15 22 8 -3 18 -6 20 -6 2 0 4 -5 4 -11 0 -6 -7 -9 -14 -6 -10 4 -13 1 -9 -9 5
-13 8 -12 25 3 11 10 15 19 9 21 -6 2 -9 7 -6 11 2 5 -9 8 -25 9 -16 0 -34 3
-40 7 -15 10 -12 35 5 35 8 0 15 4 15 9 0 5 9 7 20 4 14 -4 20 0 20 11 0 9 8
16 20 16 11 0 20 4 20 10 0 5 6 9 13 7 6 -1 11 6 11 16 -1 9 2 17 7 17 5 0 9
7 9 15 0 24 -28 17 -33 -7 -4 -23 -4 -23 -6 -1 -1 15 9 26 31 37 40 21 43 20
56 -8 20 -45 6 -82 -58 -146 -3 -3 -18 -21 -34 -40 -74 -91 -154 -169 -130
-127 4 6 3 8 -1 4 -5 -4 -10 -14 -11 -23 -3 -17 -54 -60 -67 -56 -5 1 -6 -2
-3 -7 6 -9 -47 -55 -122 -105 -47 -32 -120 -43 -129 -20 -4 10 -24 14 -72 14
-70 0 -96 -9 -89 -30 3 -10 26 -13 80 -11 72 2 77 1 75 -18 -1 -13 -17 -28
-47 -43 -25 -13 -46 -26 -48 -30 -2 -5 -10 -8 -18 -8 -19 0 -6 28 17 35 11 4
19 15 18 28 0 12 -3 16 -6 10 -2 -7 -11 -13 -19 -13 -9 0 -12 5 -9 10 9 15
-22 12 -36 -3 -13 -14 -92 -10 -83 4 3 5 1 16 -4 25 -8 14 -11 14 -23 1 -21
-20 -42 -26 -62 -15 -11 6 -24 5 -35 -2 -15 -10 -14 -11 6 -6 15 3 25 -1 29
-10 4 -10 17 -15 37 -13 17 1 39 -2 48 -6 10 -4 37 -5 61 -4 41 4 42 3 32 -18
-5 -12 -11 -18 -13 -13 -2 6 -13 10 -24 10 -17 0 -18 -3 -8 -15 7 -8 19 -15
28 -15 8 0 13 -2 10 -5 -10 -10 -68 8 -68 21 0 8 -4 14 -10 14 -14 0 -12 -27
3 -34 6 -3 -8 -3 -33 0 l-45 6 30 -17 c24 -13 33 -14 52 -4 13 7 26 9 29 6 4
-4 -2 -10 -12 -13 -10 -4 -34 -13 -53 -21 -24 -9 -38 -10 -45 -3 -17 17 -29
11 -16 -7 7 -10 -5 0 -26 22 l-39 40 35 6 c35 6 35 6 -8 8 -24 0 -41 -3 -38
-7 13 -21 -15 -32 -87 -34 -53 -2 -77 -7 -77 -15 0 -8 15 -13 40 -13 47 0 57
-26 13 -33 -16 -2 -5 -3 22 -1 40 2 44 1 22 -6 -44 -13 -305 -24 -287 -11 11
8 -4 11 -57 11 -68 0 -73 2 -73 21 0 20 -4 21 -47 16 -26 -3 -58 -1 -72 5 -15
5 -35 11 -46 12 -11 2 -37 9 -59 16 -29 9 -35 15 -25 22 10 6 7 7 -9 3 -41
-12 -207 83 -335 192 -107 92 -247 256 -292 343 -9 18 -19 29 -22 26 -5 -5
124 -297 136 -306 3 -3 7 -12 9 -20 2 -8 8 -21 13 -30 9 -13 10 -12 5 3 -10
33 4 17 29 -34 30 -58 46 -99 40 -99 -2 0 -12 16 -21 35 -27 57 -24 36 8 -60
42 -128 49 -257 18 -339 -27 -71 -89 -142 -158 -179 -56 -31 -150 -57 -203
-57 -76 0 -74 -10 16 -65 47 -28 82 -55 78 -60 -5 -4 -3 -5 4 -1 6 3 67 -24
135 -62 68 -37 202 -105 298 -150 229 -107 223 -104 237 -132 14 -28 35 -38
79 -39 38 -1 40 2 93 102 66 128 130 216 231 321 103 107 154 142 234 162 28
7 78 20 111 28 152 38 340 127 473 224 35 26 78 56 96 68 33 22 216 69 306 78
141 15 487 95 670 156 355 118 695 304 1041 569 97 75 390 365 500 496 259
308 516 754 619 1073 132 413 170 653 170 1087 0 262 -15 499 -39 635 -11 58
-22 128 -26 155 -11 77 -40 182 -75 270 -40 101 -47 182 -26 296 20 108 20
204 0 282 -30 117 -65 166 -208 293 -28 25 -46 49 -46 62 0 14 32 56 84 113
126 134 166 234 166 414 -1 217 -63 364 -213 501 -82 75 -116 89 -212 87 -159
-3 -285 -60 -387 -175 -107 -120 -170 -139 -239 -69 l-39 39 0 114 c0 100 -4
128 -31 214 -76 246 -153 398 -213 419 -25 8 -31 6 -50 -18 -13 -16 -44 -97
-71 -180 -26 -84 -63 -184 -82 -224 -32 -69 -80 -123 -109 -123 -13 0 -86 29
-127 51 -11 6 -52 17 -93 25 -41 7 -84 20 -97 28 -12 8 -38 17 -57 20 -119 22
-177 40 -188 57 -7 11 -15 54 -19 96 -8 92 -28 120 -131 180 -166 97 -313 148
-355 122z m63 -59 c0 -25 -88 -299 -139 -430 -26 -68 -26 -67 3 -74 13 -3 31
-8 39 -12 16 -6 58 105 128 341 22 77 42 146 45 153 5 17 23 15 31 -4 8 -22
-90 -396 -132 -505 -5 -13 2 -20 30 -29 20 -7 39 -9 42 -6 7 6 83 263 120 401
14 55 28 102 29 104 2 2 11 -2 20 -10 23 -19 21 -31 -113 -510 -3 -12 6 -20
32 -29 20 -7 38 -10 40 -8 5 5 65 239 101 391 26 112 28 116 46 101 11 -10 18
-30 17 -48 l-1 -31 -9 30 c-6 22 -7 15 -5 -30 2 -33 1 -52 -3 -42 -4 11 -13
-22 -24 -85 -23 -137 -70 -324 -95 -381 -17 -39 -30 -50 -79 -75 -32 -16 -87
-39 -123 -51 -91 -30 -124 -53 -148 -103 -20 -40 -92 -317 -157 -600 -30 -133
-58 -175 -130 -198 -22 -7 -43 -18 -47 -24 -4 -6 -10 -7 -14 -3 -14 13 55 284
176 692 27 94 50 184 50 202 0 17 -7 62 -16 100 -21 90 -13 134 48 273 28 63
75 180 105 260 30 80 66 175 79 212 18 48 29 65 40 61 8 -3 14 -18 14 -33z
m1404 -131 c79 -149 151 -378 127 -402 -8 -8 -11 -3 -11 15 0 53 -20 37 -60
-49 -249 -524 -315 -693 -363 -930 -21 -101 -24 -137 -19 -251 4 -111 2 -140
-13 -171 -53 -118 -215 -79 -215 52 0 24 18 109 40 188 119 422 131 489 106
597 -9 39 -16 88 -16 109 0 23 42 158 103 333 56 162 129 377 162 477 l60 182
27 -32 c15 -18 47 -71 72 -118z m-1087 -201 c-3 -7 -5 -2 -5 12 0 14 2 19 5
13 2 -7 2 -19 0 -25z m-40 -250 c-3 -7 -5 -2 -5 12 0 14 2 19 5 13 2 -7 2 -19
0 -25z m1997 0 c29 -8 62 -33 112 -82 57 -57 74 -82 88 -126 9 -30 22 -64 28
-75 9 -18 9 -18 -4 -5 -8 8 -22 36 -32 61 -9 25 -23 54 -31 65 -12 16 -12 11
1 -31 24 -76 30 -285 10 -367 -26 -111 -72 -195 -145 -268 -96 -95 -203 -140
-336 -140 -79 0 -151 -18 -186 -47 -46 -39 -90 -135 -244 -533 -107 -276 -119
-300 -160 -300 -30 0 -95 60 -95 88 0 11 59 148 131 303 205 446 186 412 281
495 l48 41 -25 29 c-74 85 -95 223 -55 355 70 232 271 462 460 526 75 26 97
27 154 11z m-3684 -258 c-8 -5 -19 -10 -25 -10 -5 0 -3 5 5 10 8 5 20 10 25
10 6 0 3 -5 -5 -10z m1743 -48 c56 -27 118 -55 137 -62 19 -8 51 -23 70 -35
19 -12 105 -49 191 -84 190 -77 185 -74 173 -100 -9 -19 -15 -18 -169 48 -142
61 -484 218 -543 250 -13 7 -20 16 -17 22 12 19 59 8 158 -39z m-1943 -45
c-190 -96 -403 -228 -525 -325 -5 -4 -39 -30 -75 -57 -88 -67 -113 -89 -189
-168 -36 -37 -71 -65 -78 -63 -7 3 -10 0 -8 -7 2 -7 -51 -69 -119 -140 -67
-70 -121 -129 -119 -131 2 -2 -9 -14 -24 -26 -15 -12 -26 -25 -24 -28 3 -4 -4
-9 -14 -11 -21 -4 59 103 112 150 18 16 32 30 31 33 -6 8 157 176 171 176 8 0
12 2 9 6 -3 3 17 26 46 53 28 26 69 64 91 84 22 20 43 37 47 37 4 0 20 12 35
26 15 15 53 45 83 68 30 22 57 43 60 46 12 12 211 140 278 179 84 49 312 161
327 161 6 0 -46 -29 -115 -63z m1656 54 c-6 -9 -46 -22 -46 -15 0 3 10 9 23
14 29 11 29 11 23 1z m2469 -45 c0 -15 -4 -21 -9 -16 -5 5 -6 16 -3 24 9 22
12 20 12 -8z m-2925 -78 c0 -38 -12 -45 -90 -52 -41 -4 -109 -12 -152 -18
l-76 -10 -9 -47 -9 -46 -8 43 c-7 39 -10 42 -39 42 -89 0 -454 -109 -581 -172
-32 -16 -60 -27 -63 -25 -2 3 61 37 139 76 163 80 347 151 461 176 42 9 77 20
77 24 0 3 21 7 48 7 26 1 92 6 147 11 159 16 155 16 155 -9z m2927 -35 c-3
-10 -5 -2 -5 17 0 19 2 27 5 18 2 -10 2 -26 0 -35z m-2289 -122 l27 -13 -27
-14 c-15 -8 -32 -29 -39 -49 l-13 -35 -13 32 c-17 40 -43 69 -54 62 -5 -3 -9
-1 -9 4 0 5 11 14 24 20 14 6 29 26 37 49 l12 38 14 -41 c9 -27 23 -45 41 -53z
m2304 17 c-4 -38 -42 -161 -48 -156 -3 3 29 142 41 176 8 22 12 12 7 -20z
m-1282 -33 c-6 -8 -9 -19 -5 -25 3 -5 1 -10 -4 -10 -6 0 -11 4 -11 9 0 18 12
41 22 41 6 0 5 -6 -2 -15z m-17 -75 c-3 -11 -9 -18 -13 -15 -5 3 -6 14 -3 25
3 11 9 18 13 15 5 -3 6 -14 3 -25z m204 -36 c49 -20 88 -37 89 -38 1 0 4 -13
8 -28 l6 -27 -97 45 c-90 41 -112 57 -113 77 0 13 18 8 107 -29z m-2887 -9 c0
-2 -13 -11 -30 -20 -38 -19 -40 -11 -2 9 31 17 32 18 32 11z m373 -95 c7 -14
30 -34 51 -46 l39 -22 -47 -20 c-37 -17 -48 -27 -52 -51 -4 -17 -12 -35 -20
-42 -10 -8 -15 -2 -23 29 -11 40 -31 63 -66 76 -19 8 -19 8 -1 19 51 33 65 50
77 99 l13 53 9 -35 c4 -19 14 -46 20 -60z m563 28 c-11 -39 -15 -43 -46 -46
-91 -6 -292 -44 -367 -68 -10 -3 0 5 22 18 45 26 194 88 270 112 44 13 64 17
122 25 9 1 9 -9 -1 -41z m1265 -59 l31 -12 -30 -13 c-20 -8 -34 -24 -43 -48
l-13 -36 -13 32 c-17 40 -43 69 -54 62 -5 -3 -9 -1 -9 4 0 5 11 14 24 20 14 6
29 26 37 49 l12 38 14 -41 c10 -31 22 -45 44 -55z m1679 31 c-6 -11 -13 -20
-16 -20 -2 0 0 9 6 20 6 11 13 20 16 20 2 0 0 -9 -6 -20z m-1253 -52 c-3 -8
-6 -5 -6 6 -1 11 2 17 5 13 3 -3 4 -12 1 -19z m-1417 -45 c-11 -17 -11 -17 -6
0 3 10 6 24 7 30 0 9 2 9 5 0 3 -7 0 -20 -6 -30z m1407 5 c-3 -8 -6 -5 -6 6
-1 11 2 17 5 13 3 -3 4 -12 1 -19z m1118 -42 c-9 -13 -37 -31 -63 -40 -26 -10
-55 -21 -64 -27 -17 -9 -96 -13 -87 -5 2 2 20 6 39 9 19 2 53 12 75 22 22 10
43 18 46 17 3 0 18 10 35 23 36 30 38 30 19 1z m-1128 -8 c-3 -8 -6 -5 -6 6
-1 11 2 17 5 13 3 -3 4 -12 1 -19z m-1410 -10 c-3 -8 -6 -5 -6 6 -1 11 2 17 5
13 3 -3 4 -12 1 -19z m1400 -40 c-3 -7 -5 -2 -5 12 0 14 2 19 5 13 2 -7 2 -19
0 -25z m-932 -26 c-3 -3 -11 0 -18 7 -9 10 -8 11 6 5 10 -3 15 -9 12 -12z
m892 -44 c-2 -13 -4 -3 -4 22 0 25 2 35 4 23 2 -13 2 -33 0 -45z m788 41 c-32
-10 -61 -16 -64 -14 -2 3 1 5 8 5 7 0 9 5 5 11 -4 8 1 9 16 4 15 -5 20 -4 16
4 -5 7 7 11 36 10 l43 -1 -60 -19z m-758 -26 c-3 -10 -5 -4 -5 12 0 17 2 24 5
18 2 -7 2 -21 0 -30z m-803 -7 c42 -18 83 -39 89 -45 10 -10 -161 64 -172 75
-10 9 10 2 83 -30z m-1619 -134 l35 -17 -35 -19 c-27 -15 -38 -29 -46 -60 -17
-70 -21 -73 -31 -26 -10 46 -41 90 -64 90 -28 0 -22 20 10 35 25 12 39 27 47
53 l12 36 19 -37 c10 -21 33 -44 53 -55z m721 32 c-7 -27 -25 -38 -76 -48
l-35 -6 55 55 c56 57 70 57 56 -1z m2905 -20 c115 -51 156 -74 183 -104 31
-34 56 -91 56 -127 0 -21 -44 -96 -90 -154 -47 -58 -112 -148 -119 -163 -2 -5
2 -5 9 -1 9 5 11 4 6 -4 -4 -6 -11 -9 -16 -6 -5 3 -35 -32 -67 -77 -32 -45
-92 -116 -133 -158 -72 -71 -160 -208 -151 -235 1 -5 0 -7 -4 -3 -8 8 -31 -15
-67 -67 -15 -22 -38 -53 -50 -70 -72 -95 -187 -254 -204 -280 -10 -16 -27 -39
-36 -49 -10 -10 -15 -24 -11 -29 5 -9 -46 -2 -55 8 -4 4 182 255 582 786 175
233 325 438 332 456 29 69 10 135 -50 172 -19 12 -108 52 -197 91 -149 62
-162 70 -139 79 35 14 52 9 221 -65z m-1780 18 c58 -24 116 -52 129 -63 14
-10 -35 8 -109 41 -74 33 -137 63 -140 67 -8 7 -5 7 120 -45z m837 11 c-2 -22
1 -27 15 -25 17 3 16 0 -4 -27 -26 -36 -33 -39 -26 -11 3 13 0 20 -10 20 -8 0
-13 3 -11 8 21 44 32 62 35 62 3 0 3 -12 1 -27z m-2256 -74 c-46 -44 -100 -88
-121 -98 -21 -11 -88 -54 -150 -96 -107 -73 -116 -77 -156 -72 -97 14 -180
-44 -218 -150 -18 -49 -31 -68 -64 -92 -22 -16 -52 -45 -66 -63 -28 -36 -51
-119 -42 -148 4 -13 -22 -44 -100 -116 l-105 -99 -45 -125 c-46 -127 -102
-246 -157 -333 l-30 -48 15 -57 c8 -31 18 -73 21 -92 l5 -35 -37 41 c-20 23
-52 66 -70 96 l-32 54 56 84 c78 117 107 179 163 347 l49 147 63 50 c72 59
146 152 225 284 75 124 215 251 444 402 146 95 356 195 420 198 8 1 -22 -35
-68 -79z m1006 35 c37 -14 96 -39 132 -54 36 -16 119 -50 185 -76 188 -73 214
-89 230 -144 l8 -25 -26 25 c-14 14 -54 36 -89 49 -34 13 -83 33 -108 46 -25
12 -58 25 -74 29 -16 4 -57 20 -91 36 -34 16 -74 32 -88 35 -15 4 -29 11 -32
15 -3 5 -31 16 -63 25 -63 19 -82 30 -82 51 0 20 23 17 98 -12z m1553 -101
c-12 -20 -14 -14 -5 12 4 9 9 14 11 11 3 -2 0 -13 -6 -23z m-1780 -8 c96 -20
151 -40 274 -100 182 -87 304 -189 389 -323 64 -102 89 -162 110 -265 37 -178
4 -316 -106 -451 -58 -71 -103 -111 -180 -160 -25 -16 -26 -16 -24 1 2 10 9
19 17 19 8 1 18 2 23 3 6 0 1 8 -10 16 -10 8 -14 15 -7 15 6 0 15 -5 19 -11 4
-8 9 -8 18 1 8 8 7 13 -4 21 -11 7 -7 8 14 3 20 -5 27 -3 22 4 -3 6 -1 14 5
18 8 4 9 3 5 -4 -4 -7 -3 -12 3 -12 19 0 21 19 4 36 -17 17 -17 18 1 11 13 -5
17 -3 13 6 -4 10 2 13 19 11 13 -1 26 2 29 6 3 5 -4 7 -15 5 -11 -2 -20 0 -20
6 0 5 3 9 8 9 7 0 18 18 47 80 10 19 24 43 33 53 8 9 12 17 8 17 -4 0 -4 5 0
12 9 14 10 24 20 138 12 148 -43 327 -130 426 -107 121 -187 189 -274 233 -77
38 -252 97 -332 111 -79 14 -264 18 -343 7 -59 -9 -68 -21 -31 -41 10 -6 22
-14 25 -19 13 -18 124 -77 136 -73 7 3 13 1 13 -4 0 -6 7 -10 16 -10 29 0 -15
-33 -70 -52 l-51 -17 43 -1 c32 0 49 6 66 23 33 33 59 28 181 -37 58 -31 115
-56 129 -56 27 0 79 -37 71 -51 -4 -5 -25 -9 -48 -9 l-42 0 31 -19 c46 -28
128 -113 171 -178 20 -31 47 -66 58 -78 21 -23 61 -42 50 -25 -13 20 25 21 69
1 33 -14 46 -26 46 -40 0 -25 0 -25 -67 -7 -40 11 -50 11 -47 1 3 -7 16 -18
30 -25 13 -7 24 -17 24 -22 0 -4 6 -8 14 -8 56 0 30 -104 -62 -242 -95 -144
-251 -260 -416 -309 -184 -54 -357 -60 -586 -19 -57 11 -106 17 -108 15 -3 -3
1 -6 9 -8 8 -3 39 -12 69 -20 30 -9 86 -21 124 -27 63 -10 120 -29 89 -30 -29
0 -229 33 -271 45 -25 8 -48 12 -50 10 -8 -8 74 -37 156 -55 46 -10 87 -22 90
-25 20 -21 -250 51 -341 90 -124 53 -185 94 -278 185 -107 106 -153 192 -170
317 -18 137 12 299 77 412 99 172 290 328 495 405 82 31 240 65 349 76 105 10
283 3 371 -15z m-2733 -50 c-23 -34 -38 -45 -38 -25 0 6 5 10 11 10 5 0 7 6 3
13 -4 6 -4 9 1 5 5 -5 14 1 22 12 24 34 24 22 1 -15z m3935 -38 c-29 -49 -72
-73 -134 -74 l-54 -1 51 8 c28 4 60 12 71 19 31 16 63 60 63 86 0 30 14 42 18
16 2 -12 -5 -36 -15 -54z m-2872 0 c-8 -8 -11 -7 -11 4 0 20 13 34 18 19 3 -7
-1 -17 -7 -23z m-1117 -43 c-15 -19 -30 -34 -35 -34 -5 0 -9 -5 -9 -11 0 -17
-41 -81 -48 -75 -2 3 0 12 6 19 7 8 9 17 5 20 -3 4 -1 7 5 7 7 0 12 6 12 13 0
6 11 25 25 41 13 16 27 37 30 47 4 10 12 16 20 13 12 -5 9 -13 -11 -40z m4517
2 c-14 -36 -22 -33 -9 5 6 16 12 28 14 26 3 -2 0 -16 -5 -31z m-3401 20 c0 -3
-4 -8 -10 -11 -5 -3 -10 -1 -10 4 0 6 5 11 10 11 6 0 10 -2 10 -4z m1636 -4
c17 -11 36 -51 29 -62 -18 -29 -121 24 -109 55 6 16 60 21 80 7z m290 -94 c54
-37 77 -78 43 -78 -45 0 -129 59 -129 92 0 27 32 22 86 -14z m-3150 -74 c-3
-9 -6 -18 -6 -20 0 -3 -5 -2 -12 2 -8 5 -9 1 -4 -12 5 -14 4 -16 -4 -8 -9 9
-8 17 2 33 15 24 33 28 24 5z m3695 -20 c29 -12 69 -57 69 -76 0 -2 -12 -4
-27 -3 -15 0 -40 12 -57 28 -17 16 -50 37 -73 48 -24 10 -43 21 -43 24 0 10
96 -5 131 -21z m-2033 -10 c-7 -9 -28 -32 -46 -52 -27 -29 -35 -33 -43 -21
-14 22 -11 34 16 63 16 17 34 26 55 26 27 0 29 -2 18 -16z m3251 -48 c8 -5 5
-16 -9 -33 -11 -14 -20 -33 -21 -42 0 -10 -4 -6 -10 9 -6 13 -17 32 -25 41
-13 15 -12 20 8 51 l23 35 12 -27 c6 -15 16 -31 22 -34z m-669 34 c0 -10 -19
-28 -119 -117 l-44 -39 33 -115 c56 -199 131 -422 139 -413 4 5 25 31 46 59
22 27 86 101 143 165 57 63 108 125 113 138 6 15 4 37 -6 66 -16 48 -12 78 11
69 10 -4 13 0 8 13 -4 14 -3 16 4 5 5 -7 7 -23 5 -35 -3 -15 -2 -17 5 -8 6 9
15 -3 30 -44 25 -68 25 -67 -67 -172 -37 -43 -72 -85 -77 -94 -5 -9 -34 -43
-64 -75 -30 -32 -82 -92 -115 -133 -74 -93 -172 -196 -180 -189 -3 3 18 38 46
78 l50 72 -15 46 c-19 55 -20 67 -4 57 7 -5 8 -3 2 7 -5 8 -21 50 -36 94 -14
44 -34 100 -43 125 -9 25 -34 103 -55 173 l-38 128 44 37 c46 38 161 112 176
112 4 0 8 -5 8 -10z m-4280 -13 c0 -7 -6 -21 -13 -32 -13 -17 -14 -17 -12 1 2
32 25 60 25 31z m4551 -64 c-12 -20 -14 -14 -5 12 4 9 9 14 11 11 3 -2 0 -13
-6 -23z m-4598 -30 c-3 -8 -8 -11 -11 -9 -3 3 -11 -2 -19 -12 -13 -15 -13 -15
-3 6 6 12 15 22 20 22 5 0 7 8 4 18 -5 13 -4 14 4 3 6 -8 8 -20 5 -28z m3397
2 c60 -44 66 -70 16 -62 -49 8 -86 35 -86 63 0 32 26 31 70 -1z m-1755 -75
c-19 -37 -42 -136 -49 -215 -10 -103 -8 -272 2 -291 5 -11 12 -30 13 -44 2
-14 6 -27 9 -30 3 -3 13 -14 22 -26 18 -20 17 -20 -43 -16 -82 6 -76 -17 9
-36 60 -13 63 -15 109 -80 25 -37 60 -84 76 -106 23 -30 27 -40 16 -46 -8 -6
3 -10 31 -12 l45 -3 -60 -19 c-86 -28 -137 -27 -169 3 -41 38 -49 84 -26 150
l19 56 -22 17 c-12 9 -49 27 -82 39 -80 29 -110 58 -110 107 0 45 35 99 70
108 27 7 37 34 21 55 -6 8 -32 25 -58 38 -55 26 -54 33 5 104 l39 48 -11 59
c-9 43 -9 65 -1 79 14 27 72 70 107 81 51 15 55 13 38 -20z m2293 14 c12 -8
29 -28 37 -44 17 -32 20 -96 6 -104 -5 -4 -7 2 -4 12 6 24 -24 51 -33 29 -6
-17 -54 -13 -65 5 -4 6 -16 8 -28 5 -23 -6 -33 7 -45 55 -5 22 -2 28 16 34 13
5 26 8 30 9 3 0 10 3 14 8 12 12 48 8 72 -9z m596 -38 c-9 -14 -20 -26 -25
-26 -4 0 2 15 14 34 12 18 23 30 25 25 2 -4 -4 -19 -14 -33z m-4587 2 c-3 -8
-6 -5 -6 6 -1 11 2 17 5 13 3 -3 4 -12 1 -19z m-32 -70 c-15 -24 -24 -34 -20
-23 4 11 8 25 8 32 0 7 5 9 10 6 6 -4 8 0 4 10 -3 9 -1 18 6 20 21 7 20 -1 -8
-45z m4488 2 c35 -16 63 -20 107 -18 33 1 60 6 60 10 0 5 5 8 10 8 22 0 8 -20
-25 -36 -50 -23 -112 -14 -174 25 -27 18 -52 39 -56 48 -5 16 -4 16 12 0 10
-9 40 -26 66 -37z m214 20 c-1 -20 -9 -25 -20 -13 -4 3 -2 12 4 20 15 18 18
17 16 -7z m1048 -126 c146 -221 70 -479 -175 -597 -41 -19 -145 -69 -231 -110
-129 -61 -180 -89 -257 -142 -1 -1 16 -22 39 -46 56 -60 129 -170 164 -249 26
-56 30 -77 30 -155 0 -85 -2 -96 -38 -169 -47 -95 -145 -196 -283 -292 -52
-36 -94 -67 -94 -69 0 -2 15 -26 34 -54 48 -70 80 -172 80 -251 0 -73 -30
-152 -84 -220 -44 -56 -159 -139 -297 -215 -68 -37 -123 -69 -123 -70 0 -2 7
-38 16 -81 41 -198 -20 -389 -178 -559 -112 -120 -285 -224 -608 -364 -380
-164 -415 -184 -485 -269 -59 -71 -191 -217 -272 -299 -52 -54 -67 -63 -96
-63 -20 0 -44 -3 -54 -7 -10 -4 24 38 76 93 97 103 256 292 298 355 30 45 143
105 458 244 121 54 251 113 289 132 257 129 408 274 470 452 30 86 33 217 7
320 -12 46 -21 85 -21 87 0 2 55 31 122 65 155 78 251 142 315 213 119 129
110 276 -27 461 -24 32 -39 60 -33 62 6 2 65 40 132 85 223 147 316 269 316
413 0 62 -5 81 -38 148 -43 87 -135 208 -190 250 -20 15 -37 34 -37 40 0 15
70 83 115 115 45 30 229 121 302 148 246 93 356 205 357 364 0 84 -25 155 -80
231 -42 56 -44 62 -30 78 9 10 16 24 16 32 1 17 49 -37 95 -107z m-5799 5
c-18 -41 -21 -26 -4 22 6 18 13 29 15 23 2 -6 -3 -26 -11 -45z m5610 -51 c49
-43 64 -83 64 -165 0 -82 -23 -138 -71 -174 -61 -46 -74 -50 -111 -34 -50 22
-71 44 -102 107 -24 49 -27 65 -21 105 12 89 28 127 63 161 31 28 43 32 88 32
46 0 59 -5 90 -32z m-5641 -28 c-21 -41 -30 -32 -15 15 8 24 16 33 22 27 6 -6
4 -21 -7 -42z m4180 -10 c12 -23 12 -30 0 -47 -21 -29 -124 -107 -132 -99 -4
4 -3 10 3 14 27 18 42 55 33 79 -15 41 -11 60 15 65 13 3 31 1 40 -4 10 -6 16
-5 16 2 0 5 -4 10 -10 10 -5 0 -10 4 -10 10 0 18 31 -2 45 -30z m-4208 -57
c-6 -16 -18 -35 -26 -43 -12 -12 -13 -11 -6 9 6 20 34 61 42 61 1 0 -3 -12
-10 -27z m1118 -53 c-37 -104 -98 -231 -107 -222 -6 6 -4 19 7 35 9 15 13 32
9 38 -4 8 -3 9 5 5 13 -9 50 66 51 102 0 13 4 20 10 17 6 -3 10 1 10 9 0 17
22 68 27 63 2 -2 -4 -23 -12 -47z m-1165 -77 c-18 -55 -30 -63 -19 -13 11 48
18 64 26 56 3 -2 0 -22 -7 -43z m4230 -22 c41 -78 -31 -165 -169 -205 -91 -26
-79 -2 23 51 73 37 103 71 111 126 8 50 18 59 35 28z m-60 -76 c-7 -12 -29
-32 -51 -44 l-38 -22 27 61 c20 46 31 59 45 56 9 -2 18 1 18 7 1 7 4 1 6 -12
3 -13 -1 -34 -7 -46z m-2506 -199 c14 6 41 -52 65 -144 18 -66 85 -193 124
-235 44 -46 52 -47 26 -2 -28 48 -2 37 30 -13 38 -58 92 -112 134 -133 20 -11
37 -23 37 -28 0 -4 15 -13 33 -19 26 -10 14 -11 -68 -7 -203 11 -298 40 -341
105 -52 79 -88 213 -100 378 -6 82 -5 95 12 113 l18 20 8 -20 c4 -13 13 -18
22 -15z m2411 -97 c-6 -27 -45 -69 -80 -87 -33 -16 -98 -23 -130 -13 l-30 9
31 1 c33 1 93 19 107 31 5 4 -13 6 -40 4 -38 -4 -43 -2 -25 5 12 6 22 12 22
15 0 2 -10 2 -22 -1 -21 -5 -21 -4 -7 8 9 8 20 32 24 54 7 36 9 37 14 15 5
-17 9 -21 15 -12 14 23 28 12 21 -18 -9 -42 11 -31 54 28 l35 46 8 -29 c4 -17
6 -42 3 -56z m-1783 -78 c46 -27 216 -84 323 -109 107 -25 307 -44 408 -40 79
3 98 -8 52 -32 -23 -11 -65 -15 -175 -14 -125 0 -161 4 -260 28 -165 41 -369
133 -384 173 -7 17 -3 17 36 -6z m1927 -249 l1 -122 -27 -11 c-58 -23 -238
-39 -506 -47 -152 -4 -277 -6 -277 -6 0 1 19 14 43 30 l42 29 150 -2 c161 -3
234 6 305 39 52 24 79 52 122 128 17 30 43 71 58 90 14 19 37 58 50 85 l25 51
6 -71 c4 -38 7 -125 8 -193z m-3319 208 c-38 -9 -94 -13 -125 -9 -19 2 83 15
135 16 17 1 14 -2 -10 -7z m583 -107 c-140 -169 -459 -551 -618 -738 -330
-389 -321 -377 -305 -452 15 -68 7 -63 880 -521 157 -82 479 -251 715 -375
626 -328 653 -341 729 -341 48 0 76 7 119 28 66 32 102 72 282 311 149 197
181 236 189 228 16 -16 -1 -51 -82 -164 -288 -404 -331 -442 -502 -443 -77 0
-93 3 -171 37 -47 21 -144 68 -215 105 -71 38 -241 126 -378 196 -137 71 -271
141 -299 157 -27 17 -88 49 -136 73 -47 23 -160 82 -251 131 -91 48 -208 110
-260 138 -557 295 -622 334 -650 392 -43 88 -21 151 103 297 45 53 149 177
232 275 82 98 224 266 315 373 172 203 280 336 308 378 l17 26 9 -32 c8 -28 4
-36 -31 -79z m706 42 c56 -71 108 -106 122 -83 7 11 9 11 9 0 0 -10 4 -10 16
2 18 18 33 21 35 6 1 -5 2 -16 3 -22 1 -7 8 -11 16 -10 8 2 12 0 7 -4 -4 -4
11 -27 34 -50 l42 -43 -29 -12 c-16 -6 -54 -15 -84 -21 -68 -13 -145 6 -206
50 -49 36 -104 134 -104 186 0 32 4 39 33 51 17 8 37 14 44 15 6 0 34 -29 62
-65z m2656 -79 c0 -130 2 -147 21 -173 28 -39 81 -63 156 -70 62 -5 65 -4 86
22 12 16 25 45 28 67 4 21 9 38 13 38 10 0 70 -96 94 -148 13 -30 21 -69 21
-108 1 -55 -3 -67 -34 -110 -19 -27 -48 -60 -64 -74 -81 -70 -243 -165 -234
-138 3 7 14 14 26 16 12 2 20 8 16 13 -3 5 -10 7 -15 3 -7 -4 -7 0 0 12 5 11
12 27 15 37 3 9 11 17 17 17 8 0 8 -4 1 -13 -12 -14 -11 -42 3 -54 4 -4 6 -3
3 2 -8 14 19 38 27 25 4 -6 11 -8 16 -4 5 3 6 10 3 16 -5 7 -2 8 5 3 10 -6 11
-3 2 14 -7 11 -16 21 -21 21 -25 0 -5 22 38 43 26 12 49 25 52 28 3 3 18 10
35 16 29 9 28 10 -24 16 -29 3 -58 10 -65 15 -6 5 -28 12 -48 16 -38 7 -53 26
-20 26 14 0 15 2 2 10 -8 5 -10 10 -5 10 6 0 3 5 -5 10 -13 9 -13 10 0 10 8
-1 24 -7 34 -15 11 -8 24 -15 29 -15 17 0 -6 21 -46 41 -131 67 -281 190 -318
262 -20 38 -25 132 -7 143 4 3 8 10 8 16 0 6 -7 5 -17 -3 -15 -13 -15 -12 -4
9 7 12 17 20 23 16 6 -4 8 -3 5 3 -14 22 69 73 118 73 l30 0 0 -144z m146 47
c104 -111 137 -188 104 -239 -15 -24 -21 -26 -62 -20 -69 9 -131 41 -143 72
-12 31 -16 219 -6 252 7 22 8 22 35 3 14 -11 47 -41 72 -68z m-1351 57 c-91
-71 -255 -126 -335 -111 l-40 7 60 6 c62 7 212 51 229 68 6 6 18 10 29 10 11
0 15 4 11 12 -4 7 -3 8 4 4 7 -4 22 0 34 8 32 23 38 19 8 -4z m240 -57 c0 -49
-39 -100 -84 -109 -21 -3 -64 2 -112 14 -79 21 -77 28 4 13 26 -5 42 -5 42 1
0 6 7 8 15 4 21 -8 72 39 87 79 17 49 48 48 48 -2z m-1219 -126 c19 -9 63 -17
97 -18 34 -1 62 -6 62 -11 0 -4 5 -8 11 -8 5 0 7 5 4 10 -3 6 -1 10 4 10 17 0
13 -18 -9 -40 -11 -11 -20 -18 -20 -15 0 2 -11 -7 -25 -20 -41 -42 -101 -30
-172 35 -23 22 -51 40 -60 41 -11 0 -13 3 -5 6 6 2 12 10 12 17 0 17 56 13
101 -7z m2966 -19 c-3 -8 -6 -5 -6 6 -1 11 2 17 5 13 3 -3 4 -12 1 -19z
m-2325 -18 c17 -5 34 -8 36 -5 3 3 12 -1 20 -8 13 -10 14 -9 7 3 -4 8 -5 12
-1 8 5 -4 19 -3 33 3 16 6 22 6 18 -1 -10 -16 11 -12 25 5 7 8 17 15 23 15 18
0 -64 -67 -116 -96 -45 -24 -56 -26 -136 -22 -85 4 -89 5 -174 57 -48 30 -85
56 -82 59 3 3 25 -9 49 -26 75 -54 126 -51 184 11 20 21 28 24 53 16 16 -5 43
-13 61 -19z m436 -67 c-10 -2 -28 -2 -40 0 -13 2 -5 4 17 4 22 1 32 -1 23 -4z
m1877 -73 c-4 -28 -9 -49 -12 -47 -2 3 -1 28 3 56 4 28 9 50 11 47 3 -3 2 -28
-2 -56z m-1051 -36 c6 -16 -37 -85 -134 -214 -93 -123 -160 -219 -160 -230 0
-6 -13 -10 -30 -10 -16 0 -30 3 -30 8 0 13 332 461 341 462 4 0 10 -7 13 -16z
m-2127 -27 c3 9 344 6 468 -3 44 -4 113 -7 153 -7 72 0 73 0 40 -14 -18 -8
-105 -39 -192 -69 -88 -31 -172 -62 -187 -70 -16 -8 -44 -14 -64 -14 -20 0
-34 -4 -31 -9 4 -5 -4 -7 -16 -3 -12 3 -17 7 -10 10 13 4 -152 90 -183 95 -27
4 -124 54 -158 81 l-27 22 102 -13 c57 -7 104 -10 105 -6z m-299 -54 c78 -52
252 -147 428 -234 l81 -40 56 21 c31 12 62 18 68 14 7 -4 9 -3 6 3 -9 15 66
22 148 15 39 -4 120 -7 180 -6 96 1 118 5 175 28 79 33 162 58 154 45 -3 -5
-12 -9 -20 -9 -8 0 -14 -4 -14 -10 0 -5 27 0 59 12 33 12 57 26 54 31 -3 6 -2
7 4 4 12 -8 127 59 187 107 41 35 63 46 52 27 -4 -5 10 -5 32 0 20 5 46 9 56
9 20 0 20 0 0 -18 -39 -36 -151 -111 -212 -141 -159 -80 -434 -144 -664 -156
-84 -5 -126 -11 -122 -17 5 -7 -5 -9 -27 -4 -19 3 -60 9 -91 12 -32 4 -58 11
-58 15 0 5 -7 6 -16 2 -13 -5 -13 -7 -2 -14 11 -7 11 -9 -1 -9 -8 0 -19 7 -26
16 -10 14 -17 15 -41 6 -18 -6 -22 -11 -11 -11 10 -1 29 -8 42 -17 21 -14 30
-14 55 -4 33 14 110 8 138 -11 15 -9 14 -10 -3 -4 -40 13 -112 17 -119 7 -4
-6 2 -8 14 -5 12 3 20 0 20 -7 0 -8 -12 -10 -42 -5 -33 5 -40 4 -28 -5 12 -9
6 -11 -25 -7 -22 3 -34 3 -27 0 6 -2 9 -10 5 -16 -4 -6 0 -8 10 -4 8 3 29 1
45 -5 16 -6 37 -8 48 -3 17 7 17 8 -6 16 -18 6 -14 7 15 3 22 -3 66 -6 97 -5
57 1 80 -6 128 -35 23 -14 16 -15 -90 -9 -63 3 -122 6 -130 7 -101 3 -417 98
-403 121 3 6 1 7 -5 3 -13 -8 -63 14 -56 25 3 5 -3 6 -12 2 -13 -5 -15 -3 -9
7 5 9 4 11 -4 6 -11 -7 -98 40 -131 70 -8 8 -30 26 -48 40 -18 15 -30 29 -27
32 3 3 -5 16 -17 30 -23 23 -23 24 -3 39 14 11 16 17 8 20 -7 3 -13 12 -13 20
0 9 -7 21 -17 28 -9 7 -13 17 -9 24 14 22 80 0 164 -56z m-237 40 c13 -16 12
-17 -3 -4 -10 7 -18 15 -18 17 0 8 8 3 21 -13z m1540 -22 c-18 -33 -104 -103
-158 -128 -28 -13 -80 -29 -115 -34 -65 -11 -173 -5 -198 11 -10 6 -3 8 20 4
19 -3 77 -1 129 5 111 12 189 45 271 114 63 53 64 53 51 28z m-1779 -60 c-6
-3 -14 -19 -18 -35 l-7 -29 -15 36 c-8 20 -18 34 -23 31 -5 -3 -9 0 -9 5 0 6
5 11 10 11 6 0 16 11 22 25 l11 25 19 -31 c12 -20 16 -34 10 -38z m323 58 c11
-17 -1 -21 -15 -4 -8 9 -8 15 -2 15 6 0 14 -5 17 -11z m3595 -107 c-6 -37 -16
-74 -21 -82 -8 -12 -9 -11 -5 5 2 11 10 53 18 93 7 40 14 68 16 62 2 -5 -1
-41 -8 -78z m-3619 51 c13 -16 12 -17 -3 -4 -10 7 -18 15 -18 17 0 8 8 3 21
-13z m39 -43 c6 -11 9 -20 7 -20 -2 0 -12 9 -22 20 -10 11 -13 20 -7 20 6 0
16 -9 22 -20z m540 -15 c14 -8 21 -14 15 -14 -5 0 -21 6 -35 14 -14 8 -20 14
-15 14 6 0 21 -6 35 -14z m-755 -259 c367 -181 549 -270 960 -466 187 -89 352
-171 368 -182 39 -28 35 -59 -15 -116 -24 -27 -83 -101 -131 -165 -49 -63 -95
-118 -103 -121 -7 -3 -400 189 -874 427 -626 314 -860 436 -860 448 0 18 192
257 238 297 23 20 36 23 82 19 47 -3 98 -25 335 -141z m3255 124 c0 -5 -7 -10
-15 -10 -8 0 -15 5 -15 10 0 6 7 10 15 10 8 0 15 -4 15 -10z m455 -196 c-14
-48 -28 -90 -30 -93 -15 -15 -10 14 18 96 17 50 33 90 35 89 1 -2 -9 -43 -23
-92z m-585 82 c0 -2 -7 -7 -16 -10 -8 -3 -12 -2 -9 4 6 10 25 14 25 6z m-767
-330 c25 -57 63 -103 100 -122 25 -13 50 -16 127 -11 144 8 200 40 200 115 0
30 1 32 16 18 8 -9 16 -16 17 -16 1 0 3 16 5 36 5 73 -62 168 -130 184 -27 6
-20 8 37 9 180 3 338 -85 401 -224 49 -106 45 -173 -15 -233 -48 -49 -159 -87
-239 -83 -13 0 -20 5 -17 11 3 5 0 7 -8 4 -8 -3 -20 2 -27 11 -11 13 -9 15 10
15 13 0 21 2 19 4 -2 3 -66 9 -141 15 -104 9 -157 18 -220 40 -207 71 -247 99
-279 200 -18 56 -20 72 -10 108 14 51 49 95 93 116 l33 16 6 -87 c3 -48 13
-105 22 -126z m170 194 c158 -41 227 -105 227 -210 0 -37 -3 -42 -32 -54 -18
-8 -72 -19 -120 -25 -107 -14 -132 -5 -176 68 -38 61 -52 110 -52 184 l0 57
38 0 c21 0 73 -9 115 -20z m-915 -108 c15 -6 36 -12 46 -14 34 -5 28 -24 -15
-44 -23 -10 -50 -32 -61 -49 l-18 -30 6 45 c4 31 1 58 -10 84 -9 21 -16 48
-16 60 0 18 3 17 20 -10 12 -18 33 -37 48 -42z m2053 26 c-71 -180 -148 -355
-128 -288 6 19 118 293 124 303 9 16 12 6 4 -15z m-2126 -195 c-7 -51 -21 -56
-30 -12 -4 17 -22 48 -41 69 l-34 38 24 6 c13 3 37 20 53 36 l28 30 3 -62 c2
-35 0 -82 -3 -105z m573 -104 c-5 -15 -24 -44 -43 -65 -19 -21 -42 -53 -52
-71 -13 -25 -24 -33 -45 -33 -16 0 -28 3 -28 6 0 4 37 57 83 120 69 95 83 109
88 91 3 -12 2 -34 -3 -48z m1357 -139 c-9 -16 -18 -30 -21 -30 -2 0 2 14 11
30 9 17 18 30 21 30 2 0 -2 -13 -11 -30z m-612 -17 c-7 -2 -21 -2 -30 0 -10 3
-4 5 12 5 17 0 24 -2 18 -5z m537 -113 c-37 -58 -53 -68 -19 -12 13 20 27 45
33 54 6 9 12 15 14 13 3 -2 -10 -27 -28 -55z m-1478 -77 c-5 -106 16 -165 73
-209 34 -26 43 -28 126 -26 145 2 199 27 199 92 0 24 1 23 17 -8 12 -24 18
-30 24 -20 16 24 9 101 -12 145 -22 46 -39 60 -82 65 -49 7 -37 15 16 11 135
-10 283 -61 339 -117 52 -53 80 -198 59 -311 -13 -73 -59 -167 -103 -216 -46
-50 -105 -92 -118 -84 -6 4 -9 1 -8 -6 3 -12 -81 -62 -175 -104 l-53 -23 -2
21 c-1 14 2 17 6 9 11 -17 74 7 67 26 -2 7 0 10 5 7 6 -3 10 -1 10 5 0 7 7 10
15 6 21 -8 68 11 59 25 -7 11 12 29 31 29 6 0 3 -4 -5 -10 -8 -5 -12 -11 -10
-14 3 -2 14 2 24 10 11 8 14 14 7 14 -7 0 -9 5 -6 10 8 13 -1 13 -28 -2 -20
-10 -21 -10 -8 5 9 11 10 17 2 17 -6 0 -11 5 -11 11 0 6 10 10 23 9 55 -5 58
2 7 19 -58 18 -118 48 -72 36 12 -4 22 -2 22 3 0 5 18 14 40 21 22 6 50 22 63
35 13 13 33 27 45 30 12 4 22 12 22 17 0 5 16 17 35 26 32 15 51 40 23 30 -7
-2 -29 1 -48 8 -19 7 -69 17 -110 24 -188 28 -221 34 -318 58 -131 31 -180 52
-233 100 -43 39 -89 125 -89 166 1 45 37 105 77 126 21 11 43 20 49 21 7 0 9
-30 6 -87z m209 41 c107 -42 159 -97 159 -166 0 -55 -28 -70 -146 -76 -94 -5
-95 -4 -125 24 -35 33 -59 107 -59 180 0 83 1 84 69 68 32 -7 78 -21 102 -30z
m1193 -86 c-61 -92 -159 -218 -169 -218 -6 0 -6 3 1 8 13 9 174 230 181 249 3
8 8 12 10 9 3 -3 -7 -25 -23 -48z m-214 -281 c0 -2 -15 -16 -32 -33 l-33 -29
29 33 c28 30 36 37 36 29z m-840 -437 c-8 -5 -19 -10 -25 -10 -5 0 -3 5 5 10
8 5 20 10 25 10 6 0 3 -5 -5 -10z m-70 -54 c0 -2 -13 -9 -30 -15 -35 -12 -41
-5 -7 9 25 10 37 12 37 6z m-239 -69 c-10 -9 -11 -8 -5 6 3 10 9 15 12 12 3
-3 0 -11 -7 -18z m74 13 c-27 -12 -43 -12 -25 0 8 5 22 9 30 9 10 0 8 -3 -5
-9z m-95 -20 c0 -5 -5 -10 -11 -10 -5 0 -7 5 -4 10 3 6 8 10 11 10 2 0 4 -4 4
-10z m-437 -260 c-41 -65 -81 -119 -65 -86 7 14 5 23 -9 37 -11 11 -18 31 -18
47 l2 27 5 -30 c4 -27 5 -28 13 -10 7 15 8 13 4 -10 -5 -27 -4 -28 8 -13 8 10
17 15 20 12 3 -4 15 9 26 27 22 37 39 59 46 59 3 0 -12 -27 -32 -60z m-27 19
c3 -6 1 -16 -6 -22 -10 -9 -12 -8 -6 7 5 14 2 17 -9 12 -8 -3 -15 -1 -15 4 0
14 27 13 36 -1z m-96 -34 c-14 -8 -29 -14 -35 -14 -5 0 1 6 15 14 14 8 30 14
35 14 6 0 -1 -6 -15 -14z m-209 -101 c12 -15 11 -16 -11 -10 l-25 8 23 -17
c12 -9 22 -23 22 -31 0 -19 -7 -18 -32 6 -23 21 -48 27 -48 10 0 -5 -6 -10
-14 -10 -8 0 -17 -6 -19 -12 -4 -10 -6 -10 -6 -1 -1 7 8 18 19 25 11 7 20 18
20 25 0 11 17 19 46 22 6 0 18 -6 25 -15z m79 6 c-8 -5 -26 -9 -40 -9 -23 1
-23 2 5 9 43 11 52 11 35 0z m-3 -36 c-3 -3 -12 -4 -19 -1 -8 3 -5 6 6 6 11 1
17 -2 13 -5z m-145 -86 c-6 -6 -15 -8 -19 -4 -4 4 -1 11 7 16 19 12 27 3 12
-12z m-45 -25 c9 -23 -2 -25 -38 -8 -19 8 -26 13 -15 10 13 -4 17 -1 13 9 -4
10 0 12 15 8 11 -2 22 -11 25 -19z m123 -23 c0 -11 -7 -20 -15 -20 -27 0 -18
30 13 39 1 1 2 -8 2 -19z m-80 -10 c0 -5 -4 -10 -10 -10 -5 0 -10 5 -10 10 0
6 5 10 10 10 6 0 10 -4 10 -10z m120 -40 c0 -5 -4 -10 -10 -10 -5 0 -10 5 -10
10 0 6 5 10 10 10 6 0 10 -4 10 -10z m-285 -40 c3 -6 -1 -7 -9 -4 -18 7 -21
14 -7 14 6 0 13 -4 16 -10z m-27 -78 c3 -10 -4 -13 -24 -10 -15 2 -29 9 -32
16 -3 10 4 13 24 10 15 -2 29 -9 32 -16z m12 -150 c0 -5 -11 -14 -25 -20 -29
-13 -33 -5 -7 14 20 15 32 18 32 6z m95 -53 c-95 -99 -277 -212 -433 -269
-220 -80 -489 -81 -722 -2 -87 30 -190 78 -225 106 -18 15 -17 15 20 2 336
-123 665 -132 961 -25 103 38 247 111 352 179 42 27 79 50 82 50 2 0 -14 -19
-35 -41z m-1685 -24 c0 -5 -5 -3 -10 5 -5 8 -10 20 -10 25 0 6 5 3 10 -5 5 -8
10 -19 10 -25z m1180 -85 c0 -15 -11 -12 -26 8 -13 16 -14 16 -20 -5 -5 -19
-13 -23 -43 -22 l-36 0 45 23 c44 22 80 20 80 -4z m-545 -20 c-3 -5 -14 -10
-23 -10 -15 0 -15 2 -2 10 20 13 33 13 25 0z"/>
<path d="M7125 8450 c-9 -16 -13 -30 -11 -30 3 0 12 14 21 30 9 17 13 30 11
30 -3 0 -12 -13 -21 -30z"/>
<path d="M6986 8175 c-9 -26 -7 -32 5 -12 6 10 9 21 6 23 -2 3 -7 -2 -11 -11z"/>
<path d="M2949 7113 c-13 -16 -12 -17 4 -4 9 7 17 15 17 17 0 8 -8 3 -21 -13z"/>
<path d="M5158 6983 c7 -3 16 -2 19 1 4 3 -2 6 -13 5 -11 0 -14 -3 -6 -6z"/>
<path d="M5098 6963 c7 -3 16 -2 19 1 4 3 -2 6 -13 5 -11 0 -14 -3 -6 -6z"/>
<path d="M5140 6890 c-8 -5 -25 -10 -37 -10 -13 0 -23 -4 -23 -10 0 -5 14 -7
33 -4 48 8 57 12 57 24 0 13 -10 13 -30 0z"/>
<path d="M5060 6710 c-14 -11 -33 -20 -42 -20 -10 0 -18 -4 -18 -10 0 -20 47
-10 70 15 29 31 23 40 -10 15z"/>
<path d="M4801 6689 c-1 -21 -33 -49 -54 -49 -9 0 -17 -4 -17 -10 0 -5 11 -10
24 -10 27 0 60 42 53 68 -4 14 -5 15 -6 1z"/>
<path d="M5148 6558 c-19 -21 -34 -29 -48 -25 -23 6 -27 -11 -4 -20 21 -8 59
14 75 43 18 35 8 36 -23 2z"/>
<path d="M4661 6528 c0 -16 -10 -33 -21 -40 -24 -15 -26 -28 -5 -28 20 0 37
36 32 68 l-4 27 -2 -27z"/>
<path d="M5390 6545 c0 -4 5 -16 11 -28 24 -47 78 -82 109 -72 33 10 24 32
-10 27 -26 -4 -37 2 -70 37 -22 23 -40 39 -40 36z"/>
<path d="M5749 6410 c22 -38 63 -49 69 -18 3 13 -3 16 -25 14 -18 -2 -34 5
-47 18 -15 18 -15 15 3 -14z"/>
<path d="M4915 6347 c-17 -23 -41 -43 -53 -45 -26 -4 -20 -22 8 -22 23 0 80
64 80 90 0 11 -1 20 -2 19 -2 0 -17 -19 -33 -42z"/>
<path d="M5341 6368 c-1 -25 -60 -78 -77 -71 -10 4 -12 0 -8 -11 7 -19 8 -20
42 -2 33 17 56 56 49 82 -4 17 -5 17 -6 2z"/>
<path d="M4701 6324 c0 -11 3 -14 6 -6 3 7 2 16 -1 19 -3 4 -6 -2 -5 -13z"/>
<path d="M4640 6295 c0 -36 51 -47 58 -12 3 16 1 17 -17 5 -18 -11 -23 -11
-31 2 -5 8 -10 11 -10 5z"/>
<path d="M5590 6217 c0 -8 6 -20 14 -27 8 -6 12 -18 9 -26 -3 -8 -1 -14 5 -14
6 0 13 6 15 13 4 10 6 10 6 0 1 -7 9 -13 18 -13 9 0 13 3 10 6 -3 4 -2 16 4
27 8 15 8 18 -1 12 -7 -4 -16 -1 -21 6 -7 11 -9 9 -9 -6 -1 -18 -3 -17 -25 8
-15 17 -25 23 -25 14z"/>
<path d="M5951 6147 c-1 -26 -30 -33 -46 -11 -17 23 -20 3 -5 -27 15 -27 48
-24 56 6 3 13 4 30 1 37 -3 8 -6 6 -6 -5z"/>
<path d="M5648 6133 c7 -3 16 -2 19 1 4 3 -2 6 -13 5 -11 0 -14 -3 -6 -6z"/>
<path d="M4979 6112 c-8 -20 -83 -62 -111 -62 -18 0 -27 -4 -23 -10 4 -7 -3
-8 -22 -4 -25 6 -26 5 -15 -8 15 -18 59 -10 124 23 35 18 66 55 55 65 -3 3 -7
1 -8 -4z"/>
<path d="M5599 6071 c14 -24 77 -54 100 -46 22 7 34 32 25 47 -4 7 -10 4 -16
-6 -12 -21 -36 -20 -76 4 -40 25 -45 25 -33 1z"/>
<path d="M5332 6035 c-32 -33 -88 -51 -109 -34 -13 12 -15 11 -12 -6 5 -23 45
-33 62 -16 6 6 18 11 27 11 18 0 43 25 53 53 8 22 7 21 -21 -8z"/>
<path d="M4786 5742 c-3 -5 1 -9 9 -9 8 0 12 4 9 9 -3 4 -7 8 -9 8 -2 0 -6 -4
-9 -8z"/>
<path d="M4858 5713 c6 -2 18 -2 25 0 6 3 1 5 -13 5 -14 0 -19 -2 -12 -5z"/>
<path d="M4150 6430 c0 -5 5 -10 11 -10 5 0 7 5 4 10 -3 6 -8 10 -11 10 -2 0
-4 -4 -4 -10z"/>
<path d="M6597 6224 c-10 -13 -14 -24 -9 -24 14 0 44 37 35 43 -4 3 -16 -6
-26 -19z"/>
<path d="M5747 5278 c-32 -17 -56 -32 -54 -35 6 -6 104 44 112 57 8 12 11 14
-58 -22z"/>
<path d="M4435 4990 c3 -5 8 -10 11 -10 2 0 4 5 4 10 0 6 -5 10 -11 10 -5 0
-7 -4 -4 -10z"/>
<path d="M4471 4971 c-8 -5 -9 -11 -3 -15 5 -3 12 1 16 9 6 17 6 18 -13 6z"/>
<path d="M4440 4952 c0 -5 7 -15 15 -22 8 -7 15 -9 15 -6 0 4 -7 14 -15 22 -8
9 -15 11 -15 6z"/>
<path d="M4505 4940 c3 -5 -1 -10 -9 -10 -23 0 -19 -12 9 -33 15 -10 26 -13
30 -7 3 6 -1 13 -9 16 -9 3 -16 10 -16 16 0 5 6 6 13 2 8 -5 8 -2 -2 9 -15 18
-26 23 -16 7z"/>
<path d="M4560 4931 c0 -10 19 -25 25 -20 1 2 -3 10 -11 17 -8 7 -14 8 -14 3z"/>
<path d="M4545 4880 c-3 -6 1 -7 9 -4 18 7 21 14 7 14 -6 0 -13 -4 -16 -10z"/>
<path d="M5085 4780 c-3 -5 1 -10 9 -10 9 0 16 5 16 10 0 6 -4 10 -9 10 -6 0
-13 -4 -16 -10z"/>
<path d="M4748 4773 c7 -3 16 -2 19 1 4 3 -2 6 -13 5 -11 0 -14 -3 -6 -6z"/>
<path d="M4775 4760 c-3 -6 1 -7 9 -4 18 7 21 14 7 14 -6 0 -13 -4 -16 -10z"/>
<path d="M3405 5909 c4 -5 1 -17 -6 -25 -6 -8 -10 -17 -7 -20 3 -2 12 6 21 20
14 21 15 25 1 30 -9 3 -12 2 -9 -5z"/>
<path d="M3356 5841 c-4 -5 -2 -12 3 -15 5 -4 12 -2 15 3 4 5 2 12 -3 15 -5 4
-12 2 -15 -3z"/>
<path d="M2291 3644 c0 -11 3 -14 6 -6 3 7 2 16 -1 19 -3 4 -6 -2 -5 -13z"/>
<path d="M3405 3640 c3 -5 8 -10 11 -10 2 0 4 5 4 10 0 6 -5 10 -11 10 -5 0
-7 -4 -4 -10z"/>
<path d="M3375 3630 c3 -5 8 -10 11 -10 2 0 4 5 4 10 0 6 -5 10 -11 10 -5 0
-7 -4 -4 -10z"/>
<path d="M2306 3570 c6 -46 55 -183 75 -210 9 -12 9 -11 4 5 -4 11 -25 72 -47
135 -25 76 -37 100 -32 70z"/>
<path d="M5525 2550 c-3 -5 -2 -17 3 -26 8 -14 10 -14 21 0 13 15 8 36 -9 36
-5 0 -12 -4 -15 -10z m25 -10 c0 -5 -4 -10 -10 -10 -5 0 -10 5 -10 10 0 6 5
10 10 10 6 0 10 -4 10 -10z"/>
<path d="M1975 2320 c10 -11 20 -20 23 -20 3 0 -3 9 -13 20 -10 11 -20 20 -23
20 -3 0 3 -9 13 -20z"/>
<path d="M5283 2308 c-6 -11 16 -38 31 -38 6 0 3 5 -6 11 -10 5 -18 15 -18 21
0 9 3 9 12 0 15 -15 31 -16 22 0 -5 8 -2 9 12 4 10 -4 15 -3 10 1 -10 11 -56
11 -63 1z"/>
<path d="M4830 2195 c7 -8 18 -15 25 -15 8 0 16 -6 18 -12 4 -9 6 -7 6 3 1 9
-10 21 -24 27 -34 16 -40 15 -25 -3z"/>
<path d="M4760 2172 c-19 -9 -37 -19 -40 -22 -6 -6 -125 -49 -165 -60 -25 -7
-21 -8 25 -8 30 0 46 3 36 5 -16 4 -11 8 20 20 21 8 48 17 59 20 16 4 17 3 5
-6 -8 -5 -11 -13 -7 -17 4 -4 13 -2 19 4 7 7 20 12 30 12 18 0 42 33 31 43 -3
3 11 3 31 0 36 -6 51 9 20 21 -21 8 -23 7 -64 -12z"/>
<path d="M5160 2180 c0 -5 5 -10 11 -10 5 0 7 5 4 10 -3 6 -8 10 -11 10 -2 0
-4 -4 -4 -10z"/>
<path d="M5050 2130 c0 -5 5 -10 10 -10 6 0 10 5 10 10 0 6 -4 10 -10 10 -5 0
-10 -4 -10 -10z"/>
<path d="M3828 2103 c7 -3 16 -2 19 1 4 3 -2 6 -13 5 -11 0 -14 -3 -6 -6z"/>
<path d="M4853 2103 c-22 -8 -15 -32 7 -26 20 5 26 18 13 26 -5 2 -14 2 -20 0z"/>
<path d="M4646 2091 c-4 -5 3 -7 14 -4 23 6 26 13 6 13 -8 0 -17 -4 -20 -9z"/>
<path d="M3832 2077 c18 -18 88 -24 88 -7 0 6 -8 10 -19 10 -10 0 -34 3 -52 7
-32 6 -33 5 -17 -10z"/>
<path d="M3940 2070 c-12 -8 -10 -10 8 -10 13 0 20 4 17 10 -7 12 -6 12 -25 0z"/>
<path d="M4465 2070 c-11 -5 -38 -10 -60 -11 -38 -2 -37 -3 15 -9 40 -6 26 -7
-50 -5 -103 3 -104 3 -55 -10 l50 -14 -50 6 c-27 3 -47 2 -43 -2 10 -10 138
-23 132 -13 -3 4 -12 8 -21 8 -9 0 -14 3 -10 6 3 4 20 1 37 -4 21 -8 29 -8 24
-1 -4 7 6 10 29 8 20 -2 39 0 43 4 4 4 19 7 33 8 25 1 25 1 3 7 -13 4 -22 12
-20 17 4 13 -32 16 -57 5z"/>
<path d="M3990 2060 c-9 -6 -10 -10 -3 -10 6 0 15 5 18 10 8 12 4 12 -15 0z"/>
<path d="M4976 2054 c-30 -29 -14 -27 34 6 13 8 13 10 -2 10 -9 0 -24 -7 -32
-16z"/>
<path d="M3928 2033 c7 -3 16 -2 19 1 4 3 -2 6 -13 5 -11 0 -14 -3 -6 -6z"/>
<path d="M4140 2029 c34 -10 100 -11 100 -1 0 4 -28 7 -63 8 -41 0 -54 -2 -37
-7z"/>
<path d="M4008 2013 c6 -2 18 -2 25 0 6 3 1 5 -13 5 -14 0 -19 -2 -12 -5z"/>
<path d="M4458 2013 c7 -3 16 -2 19 1 4 3 -2 6 -13 5 -11 0 -14 -3 -6 -6z"/>
<path d="M3970 1975 c14 -7 27 -11 30 -9 6 7 -22 24 -40 23 -9 0 -5 -6 10 -14z"/>
<path d="M4730 1960 c8 -5 24 -9 35 -9 l20 0 -20 9 c-11 5 -27 9 -35 9 -13 1
-13 0 0 -9z"/>
<path d="M4065 1950 c3 -5 8 -10 11 -10 2 0 4 5 4 10 0 6 -5 10 -11 10 -5 0
-7 -4 -4 -10z"/>
<path d="M4378 1893 c7 -3 16 -2 19 1 4 3 -2 6 -13 5 -11 0 -14 -3 -6 -6z"/>
<path d="M2599 1746 c13 -16 51 -41 51 -33 0 2 -15 14 -32 27 -21 15 -28 17
-19 6z"/>
<path d="M2830 1587 c0 -2 15 -14 33 -27 20 -15 27 -17 18 -6 -13 16 -51 41
-51 33z"/>
</g>
</svg>
